{
copyright = "Copyright (c) 2011, Cyreal (www.cyreal.org) with Reserved Font Name 'Federant'";
customParameters = (
{
name = description;
value = "Federant is designed by Olexa M. Volochay (http://www.olexa.kiev.ua), Alexei Vanyashin for Cyreal. Based on Feder Antiqua by Otto Ludwig Naegele (1911).";
},
{
name = license;
value = "This Font Software is licensed under the SIL Open Font License, Version 1.1. This license is available with a FAQ at: http://scripts.sil.org/OFL";
},
{
name = licenseURL;
value = "http://scripts.sil.org/OFL";
},
{
name = panose;
value = (
    2,
    1,
    6,
    4,
    4,
    1,
    1,
    1,
    1,
    2
);
}
);
date = "2011-10-10 08:27:42 +0000";
designer = "Olexa M. Volochay, Alexei Vanyashin, Otto Ludwig Naegele";
designerURL = "http://cyreal.org";
familyName = "Federant";
fontMaster = (
{
ascender = 942;
capHeight = 714;
customParameters = (
{
name = typoAscender;
value = 942;
},
{
name = typoDescender;
value = -284;
},
{
name = typoLineGap;
value = 0;
},
{
name = hheaAscender;
value = 942;
},
{
name = hheaDescender;
value = -284;
},
{
name = underlinePosition;
value = -105;
},
{
name = underlineThickness;
value = 70;
}
);
descender = -284;
id = "818F4BA1-BEA0-4BCA-BD8D-F69F95152157";
weightValue = 400;
widthValue = 5;
xHeight = 516;
}
);
glyphs = (
{
glyphname = A;
layers = (
{
layerId = "818F4BA1-BEA0-4BCA-BD8D-F69F95152157";
paths = (
{
closed = 1;
nodes = (
"42 623 OFFCURVE",
"40 631 OFFCURVE",
"40 642 CURVE SMOOTH",
"40 651 OFFCURVE",
"41 659 OFFCURVE",
"44 666 CURVE",
"153 697 OFFCURVE",
"280 713 OFFCURVE",
"425 713 CURVE SMOOTH",
"548 713 OFFCURVE",
"589 682 OFFCURVE",
"589 578 CURVE SMOOTH",
"589 95 LINE SMOOTH",
"589 58 OFFCURVE",
"593 40 OFFCURVE",
"600 40 CURVE SMOOTH",
"663 42 LINE",
"666 37 OFFCURVE",
"667 30 OFFCURVE",
"667 23 CURVE SMOOTH",
"667 18 OFFCURVE",
"666 12 OFFCURVE",
"664 6 CURVE",
"619 -7 OFFCURVE",
"577 -13 OFFCURVE",
"536 -13 CURVE SMOOTH",
"475 -13 OFFCURVE",
"468 -9 OFFCURVE",
"469 30 CURVE SMOOTH",
"469 393 LINE",
"387 380 OFFCURVE",
"298 373 OFFCURVE",
"201 371 CURVE",
"201 95 LINE SMOOTH",
"201 58 OFFCURVE",
"205 40 OFFCURVE",
"212 40 CURVE SMOOTH",
"275 42 LINE",
"278 37 OFFCURVE",
"279 30 OFFCURVE",
"279 23 CURVE SMOOTH",
"279 18 OFFCURVE",
"278 12 OFFCURVE",
"276 6 CURVE",
"231 -7 OFFCURVE",
"189 -13 OFFCURVE",
"148 -13 CURVE SMOOTH",
"87 -13 OFFCURVE",
"81 -9 OFFCURVE",
"81 30 CURVE SMOOTH",
"81 562 LINE SMOOTH",
"81 572 OFFCURVE",
"87 579 OFFCURVE",
"98 583 CURVE SMOOTH",
"122 591 OFFCURVE",
"150 595 OFFCURVE",
"183 595 CURVE SMOOTH",
"195 595 OFFCURVE",
"201 589 OFFCURVE",
"201 577 CURVE SMOOTH",
"201 423 LINE",
"261 424 OFFCURVE",
"350 432 OFFCURVE",
"469 445 CURVE",
"469 564 LINE SMOOTH",
"469 639 OFFCURVE",
"448 660 OFFCURVE",
"373 660 CURVE SMOOTH",
"252 660 OFFCURVE",
"97 633 OFFCURVE",
"46 616 CURVE"
);
}
);
width = 674;
}
);
leftKerningGroup = A;
note = A;
rightKerningGroup = quotesingle;
unicode = 0041;
},
{
glyphname = AE;
layers = (
{
layerId = "818F4BA1-BEA0-4BCA-BD8D-F69F95152157";
paths = (
{
closed = 1;
nodes = (
"599 708 OFFCURVE",
"677 714 OFFCURVE",
"769 714 CURVE SMOOTH",
"822 714 OFFCURVE",
"864 712 OFFCURVE",
"894 708 CURVE",
"898 700 OFFCURVE",
"900 691 OFFCURVE",
"900 682 CURVE SMOOTH",
"900 675 OFFCURVE",
"898 667 OFFCURVE",
"895 658 CURVE",
"875 661 OFFCURVE",
"847 662 OFFCURVE",
"812 662 CURVE SMOOTH",
"729 662 OFFCURVE",
"654 658 OFFCURVE",
"588 649 CURVE",
"589 646 OFFCURVE",
"589 639 OFFCURVE",
"589 630 CURVE SMOOTH",
"589 431 LINE",
"665 441 OFFCURVE",
"751 447 OFFCURVE",
"846 448 CURVE",
"850 440 OFFCURVE",
"852 430 OFFCURVE",
"852 419 CURVE SMOOTH",
"852 412 OFFCURVE",
"850 405 OFFCURVE",
"847 396 CURVE",
"788 396 OFFCURVE",
"702 390 OFFCURVE",
"589 378 CURVE",
"589 105 LINE SMOOTH",
"589 52 OFFCURVE",
"606 40 OFFCURVE",
"667 40 CURVE SMOOTH",
"739 40 OFFCURVE",
"899 57 OFFCURVE",
"928 65 CURVE",
"931 56 OFFCURVE",
"932 47 OFFCURVE",
"932 39 CURVE SMOOTH",
"932 32 OFFCURVE",
"931 24 OFFCURVE",
"928 15 CURVE",
"869 -4 OFFCURVE",
"766 -14 OFFCURVE",
"621 -13 CURVE SMOOTH",
"577 -13 LINE SMOOTH",
"502 -13 OFFCURVE",
"469 10 OFFCURVE",
"469 63 CURVE SMOOTH",
"469 393 LINE",
"387 380 OFFCURVE",
"298 373 OFFCURVE",
"201 371 CURVE",
"201 95 LINE SMOOTH",
"201 58 OFFCURVE",
"205 40 OFFCURVE",
"212 40 CURVE SMOOTH",
"275 42 LINE",
"278 37 OFFCURVE",
"279 30 OFFCURVE",
"279 23 CURVE SMOOTH",
"279 18 OFFCURVE",
"278 12 OFFCURVE",
"276 6 CURVE",
"231 -7 OFFCURVE",
"189 -13 OFFCURVE",
"148 -13 CURVE SMOOTH",
"87 -13 OFFCURVE",
"80 -9 OFFCURVE",
"81 30 CURVE SMOOTH",
"81 562 LINE SMOOTH",
"81 572 OFFCURVE",
"87 579 OFFCURVE",
"98 583 CURVE SMOOTH",
"122 591 OFFCURVE",
"150 595 OFFCURVE",
"183 595 CURVE SMOOTH",
"195 595 OFFCURVE",
"201 589 OFFCURVE",
"201 577 CURVE SMOOTH",
"201 423 LINE",
"261 424 OFFCURVE",
"350 432 OFFCURVE",
"469 445 CURVE",
"469 564 LINE SMOOTH",
"469 639 OFFCURVE",
"448 660 OFFCURVE",
"373 660 CURVE SMOOTH",
"252 660 OFFCURVE",
"97 633 OFFCURVE",
"46 616 CURVE",
"42 623 OFFCURVE",
"40 631 OFFCURVE",
"40 642 CURVE SMOOTH",
"40 651 OFFCURVE",
"41 659 OFFCURVE",
"44 666 CURVE",
"153 697 OFFCURVE",
"280 713 OFFCURVE",
"425 713 CURVE SMOOTH",
"476 713 OFFCURVE",
"513 707 OFFCURVE",
"536 696 CURVE"
);
}
);
width = 948;
}
);
leftKerningGroup = A;
note = AE;
rightKerningGroup = E;
unicode = 00C6;
},
{
glyphname = B;
layers = (
{
layerId = "818F4BA1-BEA0-4BCA-BD8D-F69F95152157";
paths = (
{
closed = 1;
nodes = (
"37 623 OFFCURVE",
"35 631 OFFCURVE",
"35 642 CURVE SMOOTH",
"35 651 OFFCURVE",
"36 659 OFFCURVE",
"39 666 CURVE",
"150 697 OFFCURVE",
"273 713 OFFCURVE",
"408 713 CURVE SMOOTH",
"531 713 OFFCURVE",
"572 682 OFFCURVE",
"572 578 CURVE SMOOTH",
"572 495 LINE SMOOTH",
"572 462 OFFCURVE",
"541 437 OFFCURVE",
"478 422 CURVE",
"478 420 LINE",
"571 408 OFFCURVE",
"593 369 OFFCURVE",
"593 292 CURVE SMOOTH",
"593 125 LINE SMOOTH",
"593 82 OFFCURVE",
"576 51 OFFCURVE",
"539 32 CURVE SMOOTH",
"502 12 OFFCURVE",
"465 -1 OFFCURVE",
"397 -6 CURVE SMOOTH",
"328 -11 OFFCURVE",
"280 -13 OFFCURVE",
"189 -13 CURVE SMOOTH",
"114 -13 OFFCURVE",
"81 10 OFFCURVE",
"81 63 CURVE SMOOTH",
"81 562 LINE SMOOTH",
"81 572 OFFCURVE",
"87 579 OFFCURVE",
"98 583 CURVE SMOOTH",
"122 591 OFFCURVE",
"150 595 OFFCURVE",
"183 595 CURVE SMOOTH",
"195 595 OFFCURVE",
"201 589 OFFCURVE",
"201 577 CURVE SMOOTH",
"201 421 LINE",
"311 430 LINE SMOOTH",
"420 439 OFFCURVE",
"452 459 OFFCURVE",
"452 520 CURVE SMOOTH",
"452 564 LINE SMOOTH",
"452 639 OFFCURVE",
"430 660 OFFCURVE",
"351 660 CURVE SMOOTH",
"230 660 OFFCURVE",
"96 635 OFFCURVE",
"41 616 CURVE"
);
},
{
closed = 1;
nodes = (
"356 40 OFFCURVE",
"407 46 OFFCURVE",
"434 58 CURVE SMOOTH",
"460 70 OFFCURVE",
"473 94 OFFCURVE",
"473 130 CURVE SMOOTH",
"473 278 LINE SMOOTH",
"473 354 OFFCURVE",
"462 387 OFFCURVE",
"403 387 CURVE SMOOTH",
"398 387 OFFCURVE",
"330 382 OFFCURVE",
"201 371 CURVE",
"201 105 LINE SMOOTH",
"201 52 OFFCURVE",
"218 40 OFFCURVE",
"279 40 CURVE SMOOTH"
);
}
);
width = 648;
}
);
leftKerningGroup = A;
note = B;
rightKerningGroup = quotesingle;
unicode = 0042;
},
{
glyphname = C;
layers = (
{
layerId = "818F4BA1-BEA0-4BCA-BD8D-F69F95152157";
paths = (
{
closed = 1;
nodes = (
"495 666 OFFCURVE",
"321 668 OFFCURVE",
"240 645 CURVE SMOOTH",
"206 636 OFFCURVE",
"189 612 OFFCURVE",
"190 571 CURVE SMOOTH",
"190 136 LINE SMOOTH",
"190 63 OFFCURVE",
"211 44 OFFCURVE",
"286 44 CURVE SMOOTH",
"385 44 OFFCURVE",
"509 63 OFFCURVE",
"548 74 CURVE",
"552 61 OFFCURVE",
"554 51 OFFCURVE",
"554 46 CURVE SMOOTH",
"554 39 OFFCURVE",
"552 32 OFFCURVE",
"549 24 CURVE",
"462 -3 OFFCURVE",
"357 -16 OFFCURVE",
"234 -15 CURVE SMOOTH",
"111 -15 OFFCURVE",
"70 17 OFFCURVE",
"70 122 CURVE SMOOTH",
"70 576 LINE SMOOTH",
"70 620 OFFCURVE",
"94 653 OFFCURVE",
"133 673 CURVE SMOOTH",
"172 692 OFFCURVE",
"212 703 OFFCURVE",
"269 708 CURVE SMOOTH",
"326 713 OFFCURVE",
"363 714 OFFCURVE",
"422 714 CURVE SMOOTH",
"457 714 OFFCURVE",
"497 712 OFFCURVE",
"540 707 CURVE",
"544 699 OFFCURVE",
"546 690 OFFCURVE",
"546 680 CURVE SMOOTH",
"546 673 OFFCURVE",
"545 665 OFFCURVE",
"542 657 CURVE"
);
}
);
width = 575;
}
);
leftKerningGroup = C;
note = C;
rightKerningGroup = C;
unicode = 0043;
},
{
glyphname = Ccedilla;
layers = (
{
layerId = "818F4BA1-BEA0-4BCA-BD8D-F69F95152157";
paths = (
{
closed = 1;
nodes = (
"338 -41 LINE",
"394 -45 OFFCURVE",
"426 -73 OFFCURVE",
"426 -110 CURVE SMOOTH",
"426 -162 OFFCURVE",
"365 -224 OFFCURVE",
"297 -227 CURVE",
"278 -213 OFFCURVE",
"269 -198 OFFCURVE",
"269 -181 CURVE SMOOTH",
"269 -175 OFFCURVE",
"274 -172 OFFCURVE",
"283 -171 CURVE SMOOTH",
"328 -166 OFFCURVE",
"355 -141 OFFCURVE",
"355 -118 CURVE SMOOTH",
"355 -94 OFFCURVE",
"337 -82 OFFCURVE",
"300 -81 CURVE SMOOTH",
"289 -81 OFFCURVE",
"285 -76 OFFCURVE",
"287 -66 CURVE",
"301 -14 LINE",
"279 -15 OFFCURVE",
"257 -15 OFFCURVE",
"234 -15 CURVE SMOOTH",
"111 -15 OFFCURVE",
"70 17 OFFCURVE",
"70 122 CURVE SMOOTH",
"70 576 LINE SMOOTH",
"70 620 OFFCURVE",
"94 653 OFFCURVE",
"133 673 CURVE SMOOTH",
"172 692 OFFCURVE",
"212 703 OFFCURVE",
"269 708 CURVE SMOOTH",
"326 713 OFFCURVE",
"363 714 OFFCURVE",
"422 714 CURVE SMOOTH",
"457 714 OFFCURVE",
"497 712 OFFCURVE",
"540 707 CURVE",
"544 699 OFFCURVE",
"546 690 OFFCURVE",
"546 680 CURVE SMOOTH",
"546 673 OFFCURVE",
"545 665 OFFCURVE",
"542 657 CURVE",
"495 666 OFFCURVE",
"321 668 OFFCURVE",
"240 645 CURVE SMOOTH",
"206 636 OFFCURVE",
"189 612 OFFCURVE",
"190 571 CURVE SMOOTH",
"190 136 LINE SMOOTH",
"190 63 OFFCURVE",
"211 44 OFFCURVE",
"286 44 CURVE SMOOTH",
"385 44 OFFCURVE",
"509 63 OFFCURVE",
"548 74 CURVE",
"552 61 OFFCURVE",
"554 51 OFFCURVE",
"554 46 CURVE SMOOTH",
"554 39 OFFCURVE",
"552 32 OFFCURVE",
"549 24 CURVE",
"490 6 OFFCURVE",
"422 -6 OFFCURVE",
"346 -11 CURVE"
);
}
);
width = 575;
}
);
leftKerningGroup = C;
note = Ccedilla;
rightKerningGroup = C;
unicode = 00C7;
},
{
glyphname = D;
layers = (
{
layerId = "818F4BA1-BEA0-4BCA-BD8D-F69F95152157";
paths = (
{
closed = 1;
nodes = (
"610 125 LINE SMOOTH",
"610 89 OFFCURVE",
"594 60 OFFCURVE",
"570 41 CURVE SMOOTH",
"546 21 OFFCURVE",
"498 8 OFFCURVE",
"457 1 CURVE SMOOTH",
"416 -7 OFFCURVE",
"343 -11 OFFCURVE",
"289 -12 CURVE SMOOTH",
"262 -13 OFFCURVE",
"228 -13 OFFCURVE",
"188 -13 CURVE SMOOTH",
"104 -13 OFFCURVE",
"80 -8 OFFCURVE",
"80 43 CURVE SMOOTH",
"80 562 LINE SMOOTH",
"80 572 OFFCURVE",
"86 579 OFFCURVE",
"97 583 CURVE SMOOTH",
"121 591 OFFCURVE",
"149 595 OFFCURVE",
"182 595 CURVE SMOOTH",
"194 595 OFFCURVE",
"200 589 OFFCURVE",
"200 577 CURVE SMOOTH",
"200 105 LINE SMOOTH",
"200 52 OFFCURVE",
"217 40 OFFCURVE",
"278 40 CURVE SMOOTH",
"362 40 OFFCURVE",
"418 46 OFFCURVE",
"447 58 CURVE SMOOTH",
"476 70 OFFCURVE",
"490 94 OFFCURVE",
"490 130 CURVE SMOOTH",
"490 564 LINE SMOOTH",
"490 639 OFFCURVE",
"469 660 OFFCURVE",
"394 660 CURVE SMOOTH",
"273 660 OFFCURVE",
"118 633 OFFCURVE",
"67 616 CURVE",
"63 623 OFFCURVE",
"61 631 OFFCURVE",
"61 642 CURVE SMOOTH",
"61 651 OFFCURVE",
"62 659 OFFCURVE",
"65 666 CURVE",
"174 697 OFFCURVE",
"301 713 OFFCURVE",
"446 713 CURVE SMOOTH",
"569 713 OFFCURVE",
"610 682 OFFCURVE",
"610 578 CURVE SMOOTH"
);
}
);
width = 680;
}
);
leftKerningGroup = A;
note = D;
rightKerningGroup = quotesingle;
unicode = 0044;
},
{
glyphname = Eth;
layers = (
{
layerId = "818F4BA1-BEA0-4BCA-BD8D-F69F95152157";
paths = (
{
closed = 1;
nodes = (
"28 418 OFFCURVE",
"62 419 OFFCURVE",
"97 421 CURVE",
"97 562 LINE SMOOTH",
"97 572 OFFCURVE",
"103 579 OFFCURVE",
"114 583 CURVE SMOOTH",
"138 591 OFFCURVE",
"166 595 OFFCURVE",
"199 595 CURVE SMOOTH",
"211 595 OFFCURVE",
"217 589 OFFCURVE",
"217 577 CURVE SMOOTH",
"217 431 LINE",
"323 443 LINE",
"327 435 OFFCURVE",
"329 426 OFFCURVE",
"329 417 CURVE SMOOTH",
"329 410 OFFCURVE",
"327 402 OFFCURVE",
"324 393 CURVE",
"288 387 OFFCURVE",
"252 382 OFFCURVE",
"217 378 CURVE",
"217 105 LINE SMOOTH",
"217 52 OFFCURVE",
"234 40 OFFCURVE",
"295 40 CURVE SMOOTH",
"379 40 OFFCURVE",
"436 46 OFFCURVE",
"465 58 CURVE SMOOTH",
"494 70 OFFCURVE",
"508 94 OFFCURVE",
"507 130 CURVE",
"507 564 LINE SMOOTH",
"507 625 OFFCURVE",
"472 650 OFFCURVE",
"380 650 CURVE SMOOTH",
"248 650 OFFCURVE",
"116 633 OFFCURVE",
"71 618 CURVE",
"67 625 OFFCURVE",
"65 633 OFFCURVE",
"65 644 CURVE SMOOTH",
"65 653 OFFCURVE",
"66 661 OFFCURVE",
"69 668 CURVE",
"178 699 OFFCURVE",
"310 714 OFFCURVE",
"463 713 CURVE SMOOTH",
"586 713 OFFCURVE",
"627 682 OFFCURVE",
"627 578 CURVE SMOOTH",
"627 125 LINE SMOOTH",
"627 89 OFFCURVE",
"611 60 OFFCURVE",
"588 42 CURVE SMOOTH",
"564 24 OFFCURVE",
"515 7 OFFCURVE",
"474 0 CURVE SMOOTH",
"433 -7 OFFCURVE",
"360 -11 OFFCURVE",
"306 -12 CURVE SMOOTH",
"252 -13 OFFCURVE",
"150 -17 OFFCURVE",
"120 -3 CURVE SMOOTH",
"105 4 OFFCURVE",
"97 19 OFFCURVE",
"97 43 CURVE SMOOTH",
"97 369 LINE",
"63 367 OFFCURVE",
"30 366 OFFCURVE",
"-3 366 CURVE",
"-7 374 OFFCURVE",
"-9 384 OFFCURVE",
"-9 395 CURVE SMOOTH",
"-9 402 OFFCURVE",
"-7 409 OFFCURVE",
"-4 418 CURVE"
);
}
);
width = 697;
}
);
leftKerningGroup = A;
note = Eth;
rightKerningGroup = quotesingle;
unicode = 00D0;
},
{
glyphname = E;
layers = (
{
layerId = "818F4BA1-BEA0-4BCA-BD8D-F69F95152157";
paths = (
{
closed = 1;
nodes = (
"403 396 OFFCURVE",
"317 390 OFFCURVE",
"204 378 CURVE",
"204 105 LINE SMOOTH",
"204 52 OFFCURVE",
"221 40 OFFCURVE",
"282 40 CURVE SMOOTH",
"354 40 OFFCURVE",
"514 57 OFFCURVE",
"543 65 CURVE",
"546 52 OFFCURVE",
"547 43 OFFCURVE",
"547 39 CURVE SMOOTH",
"547 34 OFFCURVE",
"546 26 OFFCURVE",
"543 15 CURVE",
"464 -4 OFFCURVE",
"361 -13 OFFCURVE",
"236 -13 CURVE SMOOTH",
"192 -13 LINE SMOOTH",
"117 -13 OFFCURVE",
"84 10 OFFCURVE",
"84 63 CURVE SMOOTH",
"84 565 LINE SMOOTH",
"84 602 OFFCURVE",
"80 620 OFFCURVE",
"73 620 CURVE",
"38 618 LINE",
"34 625 OFFCURVE",
"32 633 OFFCURVE",
"32 644 CURVE SMOOTH",
"32 653 OFFCURVE",
"33 661 OFFCURVE",
"36 668 CURVE",
"143 700 OFFCURVE",
"259 715 OFFCURVE",
"384 714 CURVE SMOOTH",
"427 715 OFFCURVE",
"468 713 OFFCURVE",
"509 708 CURVE",
"513 700 OFFCURVE",
"515 691 OFFCURVE",
"515 682 CURVE SMOOTH",
"515 675 OFFCURVE",
"513 667 OFFCURVE",
"510 658 CURVE",
"490 661 OFFCURVE",
"462 662 OFFCURVE",
"427 662 CURVE SMOOTH",
"344 662 OFFCURVE",
"269 658 OFFCURVE",
"203 649 CURVE",
"204 646 OFFCURVE",
"204 639 OFFCURVE",
"204 630 CURVE SMOOTH",
"204 431 LINE",
"280 441 OFFCURVE",
"366 447 OFFCURVE",
"461 448 CURVE",
"465 440 OFFCURVE",
"467 430 OFFCURVE",
"467 419 CURVE SMOOTH",
"467 412 OFFCURVE",
"465 405 OFFCURVE",
"462 396 CURVE"
);
}
);
width = 563;
}
);
leftKerningGroup = E;
note = E;
rightKerningGroup = E;
unicode = 0045;
},
{
glyphname = F;
layers = (
{
layerId = "818F4BA1-BEA0-4BCA-BD8D-F69F95152157";
paths = (
{
closed = 1;
nodes = (
"358 396 OFFCURVE",
"287 392 OFFCURVE",
"205 383 CURVE",
"205 -114 LINE SMOOTH",
"205 -178 OFFCURVE",
"184 -207 OFFCURVE",
"123 -220 CURVE SMOOTH",
"96 -226 OFFCURVE",
"62 -229 OFFCURVE",
"20 -228 CURVE",
"17 -221 OFFCURVE",
"15 -213 OFFCURVE",
"15 -202 CURVE SMOOTH",
"15 -195 OFFCURVE",
"16 -187 OFFCURVE",
"19 -180 CURVE",
"68 -177 OFFCURVE",
"85 -161 OFFCURVE",
"85 -110 CURVE SMOOTH",
"85 565 LINE SMOOTH",
"85 602 OFFCURVE",
"81 620 OFFCURVE",
"74 620 CURVE",
"39 618 LINE",
"35 625 OFFCURVE",
"33 633 OFFCURVE",
"33 644 CURVE SMOOTH",
"33 653 OFFCURVE",
"34 661 OFFCURVE",
"37 668 CURVE",
"141 700 OFFCURVE",
"257 715 OFFCURVE",
"385 714 CURVE SMOOTH",
"428 715 OFFCURVE",
"469 713 OFFCURVE",
"510 708 CURVE",
"514 700 OFFCURVE",
"516 691 OFFCURVE",
"516 682 CURVE SMOOTH",
"516 675 OFFCURVE",
"514 667 OFFCURVE",
"511 658 CURVE",
"495 661 OFFCURVE",
"467 662 OFFCURVE",
"428 662 CURVE SMOOTH",
"345 662 OFFCURVE",
"270 658 OFFCURVE",
"204 649 CURVE",
"205 646 OFFCURVE",
"205 639 OFFCURVE",
"205 630 CURVE SMOOTH",
"205 437 LINE",
"266 443 OFFCURVE",
"337 447 OFFCURVE",
"417 448 CURVE",
"421 440 OFFCURVE",
"423 430 OFFCURVE",
"423 419 CURVE SMOOTH",
"423 412 OFFCURVE",
"421 405 OFFCURVE",
"418 396 CURVE"
);
}
);
width = 513;
}
);
leftKerningGroup = F;
note = F;
rightKerningGroup = F;
unicode = 0046;
},
{
glyphname = G;
layers = (
{
layerId = "818F4BA1-BEA0-4BCA-BD8D-F69F95152157";
paths = (
{
closed = 1;
nodes = (
"593 464 OFFCURVE",
"602 460 OFFCURVE",
"601 421 CURVE SMOOTH",
"601 125 LINE SMOOTH",
"601 74 OFFCURVE",
"572 39 OFFCURVE",
"515 18 CURVE SMOOTH",
"457 -3 OFFCURVE",
"364 -14 OFFCURVE",
"235 -13 CURVE SMOOTH",
"111 -14 OFFCURVE",
"70 21 OFFCURVE",
"71 122 CURVE SMOOTH",
"71 576 LINE SMOOTH",
"71 617 OFFCURVE",
"93 653 OFFCURVE",
"137 674 CURVE SMOOTH",
"180 695 OFFCURVE",
"223 704 OFFCURVE",
"279 709 CURVE SMOOTH",
"335 714 OFFCURVE",
"364 714 OFFCURVE",
"423 714 CURVE SMOOTH",
"465 714 OFFCURVE",
"508 712 OFFCURVE",
"551 707 CURVE",
"555 699 OFFCURVE",
"557 690 OFFCURVE",
"557 680 CURVE SMOOTH",
"557 673 OFFCURVE",
"556 665 OFFCURVE",
"553 657 CURVE",
"530 661 OFFCURVE",
"488 663 OFFCURVE",
"429 664 CURVE SMOOTH",
"344 663 OFFCURVE",
"282 657 OFFCURVE",
"241 645 CURVE SMOOTH",
"207 636 OFFCURVE",
"190 612 OFFCURVE",
"191 571 CURVE SMOOTH",
"191 136 LINE SMOOTH",
"191 61 OFFCURVE",
"212 40 OFFCURVE",
"287 40 CURVE SMOOTH",
"346 40 OFFCURVE",
"389 44 OFFCURVE",
"416 51 CURVE SMOOTH",
"468 65 OFFCURVE",
"481 86 OFFCURVE",
"481 130 CURVE SMOOTH",
"481 356 LINE SMOOTH",
"481 393 OFFCURVE",
"477 411 OFFCURVE",
"470 411 CURVE SMOOTH",
"288 409 LINE",
"285 414 OFFCURVE",
"284 421 OFFCURVE",
"284 428 CURVE SMOOTH",
"284 433 OFFCURVE",
"285 439 OFFCURVE",
"287 445 CURVE",
"322 454 OFFCURVE",
"470 464 OFFCURVE",
"541 464 CURVE SMOOTH"
);
}
);
width = 648;
}
);
leftKerningGroup = C;
note = G;
rightKerningGroup = quotesingle;
unicode = 0047;
},
{
glyphname = H;
layers = (
{
layerId = "818F4BA1-BEA0-4BCA-BD8D-F69F95152157";
paths = (
{
closed = 1;
nodes = (
"211 95 LINE SMOOTH",
"211 58 OFFCURVE",
"215 40 OFFCURVE",
"222 40 CURVE SMOOTH",
"285 42 LINE",
"288 37 OFFCURVE",
"289 30 OFFCURVE",
"289 23 CURVE SMOOTH",
"289 18 OFFCURVE",
"288 12 OFFCURVE",
"286 6 CURVE",
"241 -7 OFFCURVE",
"199 -13 OFFCURVE",
"158 -13 CURVE SMOOTH",
"97 -13 OFFCURVE",
"90 -9 OFFCURVE",
"91 30 CURVE SMOOTH",
"91 605 LINE SMOOTH",
"91 642 OFFCURVE",
"87 660 OFFCURVE",
"80 660 CURVE SMOOTH",
"17 658 LINE",
"14 663 OFFCURVE",
"13 670 OFFCURVE",
"13 677 CURVE SMOOTH",
"13 682 OFFCURVE",
"14 688 OFFCURVE",
"16 694 CURVE",
"61 707 OFFCURVE",
"103 713 OFFCURVE",
"144 713 CURVE SMOOTH",
"205 713 OFFCURVE",
"212 709 OFFCURVE",
"211 670 CURVE SMOOTH",
"211 418 LINE",
"272 419 OFFCURVE",
"369 426 OFFCURVE",
"501 441 CURVE",
"501 605 LINE SMOOTH",
"501 642 OFFCURVE",
"497 660 OFFCURVE",
"490 660 CURVE SMOOTH",
"427 658 LINE",
"424 663 OFFCURVE",
"423 670 OFFCURVE",
"423 677 CURVE SMOOTH",
"423 682 OFFCURVE",
"424 688 OFFCURVE",
"426 694 CURVE",
"471 707 OFFCURVE",
"513 713 OFFCURVE",
"554 713 CURVE SMOOTH",
"615 713 OFFCURVE",
"622 709 OFFCURVE",
"621 670 CURVE SMOOTH",
"621 95 LINE SMOOTH",
"621 58 OFFCURVE",
"625 40 OFFCURVE",
"632 40 CURVE SMOOTH",
"695 42 LINE",
"698 37 OFFCURVE",
"699 30 OFFCURVE",
"699 23 CURVE SMOOTH",
"699 18 OFFCURVE",
"698 12 OFFCURVE",
"696 6 CURVE",
"651 -7 OFFCURVE",
"609 -13 OFFCURVE",
"568 -13 CURVE SMOOTH",
"507 -13 OFFCURVE",
"500 -9 OFFCURVE",
"501 30 CURVE SMOOTH",
"501 389 LINE",
"414 375 OFFCURVE",
"318 367 OFFCURVE",
"211 366 CURVE"
);
}
);
width = 713;
}
);
leftKerningGroup = E;
note = H;
rightKerningGroup = quotesingle;
unicode = 0048;
},
{
glyphname = I;
layers = (
{
layerId = "818F4BA1-BEA0-4BCA-BD8D-F69F95152157";
paths = (
{
closed = 1;
nodes = (
"211 95 LINE SMOOTH",
"211 58 OFFCURVE",
"215 40 OFFCURVE",
"222 40 CURVE SMOOTH",
"285 42 LINE",
"288 37 OFFCURVE",
"289 30 OFFCURVE",
"289 23 CURVE SMOOTH",
"289 18 OFFCURVE",
"288 12 OFFCURVE",
"286 6 CURVE",
"241 -7 OFFCURVE",
"199 -13 OFFCURVE",
"158 -13 CURVE SMOOTH",
"97 -13 OFFCURVE",
"90 -9 OFFCURVE",
"91 30 CURVE SMOOTH",
"91 605 LINE SMOOTH",
"91 642 OFFCURVE",
"87 660 OFFCURVE",
"80 660 CURVE SMOOTH",
"17 658 LINE",
"14 663 OFFCURVE",
"13 670 OFFCURVE",
"13 677 CURVE SMOOTH",
"13 682 OFFCURVE",
"14 688 OFFCURVE",
"16 694 CURVE",
"61 707 OFFCURVE",
"103 713 OFFCURVE",
"144 713 CURVE SMOOTH",
"205 713 OFFCURVE",
"212 709 OFFCURVE",
"211 670 CURVE SMOOTH"
);
}
);
width = 303;
}
);
leftKerningGroup = E;
note = I;
rightKerningGroup = quotesingle;
unicode = 0049;
},
{
glyphname = J;
layers = (
{
layerId = "818F4BA1-BEA0-4BCA-BD8D-F69F95152157";
paths = (
{
closed = 1;
nodes = (
"-10 -228 OFFCURVE",
"-11 -225 OFFCURVE",
"-13 -218 CURVE SMOOTH",
"-15 -211 OFFCURVE",
"-16 -206 OFFCURVE",
"-16 -203 CURVE SMOOTH",
"-16 -194 OFFCURVE",
"-14 -187 OFFCURVE",
"-11 -182 CURVE",
"-5 -182 OFFCURVE",
"5 -181 OFFCURVE",
"20 -180 CURVE",
"75 -173 OFFCURVE",
"91 -159 OFFCURVE",
"91 -110 CURVE SMOOTH",
"91 605 LINE SMOOTH",
"91 642 OFFCURVE",
"87 660 OFFCURVE",
"80 660 CURVE SMOOTH",
"17 658 LINE",
"14 663 OFFCURVE",
"13 670 OFFCURVE",
"13 677 CURVE SMOOTH",
"13 682 OFFCURVE",
"14 688 OFFCURVE",
"16 694 CURVE",
"61 707 OFFCURVE",
"103 713 OFFCURVE",
"144 713 CURVE SMOOTH",
"205 713 OFFCURVE",
"212 709 OFFCURVE",
"211 670 CURVE SMOOTH",
"211 -114 LINE SMOOTH",
"211 -174 OFFCURVE",
"182 -204 OFFCURVE",
"118 -219 CURVE",
"75 -226 OFFCURVE",
"33 -229 OFFCURVE",
"-10 -229 CURVE"
);
}
);
width = 285;
}
);
leftKerningGroup = J;
note = J;
rightKerningGroup = quotesingle;
unicode = 004A;
},
{
glyphname = K;
layers = (
{
layerId = "818F4BA1-BEA0-4BCA-BD8D-F69F95152157";
paths = (
{
closed = 1;
nodes = (
"632 -7 OFFCURVE",
"590 -13 OFFCURVE",
"549 -13 CURVE SMOOTH",
"492 -13 OFFCURVE",
"491 -13 OFFCURVE",
"472 30 CURVE SMOOTH",
"316 378 LINE",
"269 374 OFFCURVE",
"234 372 OFFCURVE",
"211 371 CURVE",
"211 95 LINE SMOOTH",
"211 58 OFFCURVE",
"215 40 OFFCURVE",
"222 40 CURVE SMOOTH",
"285 42 LINE",
"288 37 OFFCURVE",
"289 30 OFFCURVE",
"289 23 CURVE SMOOTH",
"289 18 OFFCURVE",
"288 12 OFFCURVE",
"286 6 CURVE",
"241 -7 OFFCURVE",
"199 -13 OFFCURVE",
"158 -13 CURVE SMOOTH",
"97 -13 OFFCURVE",
"90 -9 OFFCURVE",
"91 30 CURVE SMOOTH",
"91 605 LINE SMOOTH",
"91 642 OFFCURVE",
"87 660 OFFCURVE",
"80 660 CURVE SMOOTH",
"17 658 LINE",
"14 663 OFFCURVE",
"13 670 OFFCURVE",
"13 677 CURVE SMOOTH",
"13 682 OFFCURVE",
"14 688 OFFCURVE",
"16 694 CURVE",
"61 707 OFFCURVE",
"103 713 OFFCURVE",
"144 713 CURVE SMOOTH",
"205 713 OFFCURVE",
"212 709 OFFCURVE",
"211 670 CURVE SMOOTH",
"211 419 LINE",
"274 422 OFFCURVE",
"327 427 OFFCURVE",
"368 436 CURVE SMOOTH",
"425 447 OFFCURVE",
"439 457 OFFCURVE",
"439 505 CURVE SMOOTH",
"439 603 LINE SMOOTH",
"439 666 OFFCURVE",
"449 698 OFFCURVE",
"490 706 CURVE SMOOTH",
"517 711 OFFCURVE",
"565 713 OFFCURVE",
"634 713 CURVE",
"636 708 OFFCURVE",
"637 703 OFFCURVE",
"637 697 CURVE SMOOTH",
"637 693 OFFCURVE",
"636 686 OFFCURVE",
"633 677 CURVE",
"562 669 LINE",
"555 661 OFFCURVE",
"551 641 OFFCURVE",
"551 608 CURVE SMOOTH",
"551 501 LINE SMOOTH",
"551 437 OFFCURVE",
"515 401 OFFCURVE",
"442 392 CURVE",
"586 70 LINE SMOOTH",
"592 57 OFFCURVE",
"597 49 OFFCURVE",
"600 46 CURVE",
"603 42 OFFCURVE",
"608 40 OFFCURVE",
"613 40 CURVE SMOOTH",
"676 42 LINE",
"679 37 OFFCURVE",
"680 30 OFFCURVE",
"680 23 CURVE SMOOTH",
"680 18 OFFCURVE",
"679 12 OFFCURVE",
"677 6 CURVE"
);
}
);
width = 677;
}
);
leftKerningGroup = E;
note = K;
rightKerningGroup = K;
unicode = 004B;
},
{
glyphname = L;
layers = (
{
layerId = "818F4BA1-BEA0-4BCA-BD8D-F69F95152157";
paths = (
{
closed = 1;
nodes = (
"430 1 OFFCURVE",
"321 -13 OFFCURVE",
"199 -13 CURVE SMOOTH",
"124 -13 OFFCURVE",
"91 10 OFFCURVE",
"91 63 CURVE SMOOTH",
"91 605 LINE SMOOTH",
"91 642 OFFCURVE",
"87 660 OFFCURVE",
"80 660 CURVE SMOOTH",
"17 658 LINE",
"14 663 OFFCURVE",
"13 670 OFFCURVE",
"13 677 CURVE SMOOTH",
"13 682 OFFCURVE",
"14 688 OFFCURVE",
"16 694 CURVE",
"61 707 OFFCURVE",
"103 713 OFFCURVE",
"144 713 CURVE SMOOTH",
"205 713 OFFCURVE",
"212 709 OFFCURVE",
"211 670 CURVE SMOOTH",
"211 75 LINE SMOOTH",
"211 63 OFFCURVE",
"215 56 OFFCURVE",
"223 53 CURVE SMOOTH",
"231 50 OFFCURVE",
"253 48 OFFCURVE",
"289 48 CURVE SMOOTH",
"368 49 OFFCURVE",
"446 62 OFFCURVE",
"524 85 CURVE",
"529 78 OFFCURVE",
"531 68 OFFCURVE",
"531 56 CURVE SMOOTH",
"531 45 OFFCURVE",
"529 36 OFFCURVE",
"526 29 CURVE"
);
}
);
width = 529;
}
);
leftKerningGroup = E;
note = L;
rightKerningGroup = L;
unicode = 004C;
},
{
glyphname = M;
layers = (
{
layerId = "818F4BA1-BEA0-4BCA-BD8D-F69F95152157";
paths = (
{
closed = 1;
nodes = (
"571 95 LINE SMOOTH",
"571 58 OFFCURVE",
"575 40 OFFCURVE",
"582 40 CURVE SMOOTH",
"645 42 LINE",
"648 37 OFFCURVE",
"649 30 OFFCURVE",
"649 23 CURVE SMOOTH",
"649 18 OFFCURVE",
"648 12 OFFCURVE",
"646 6 CURVE",
"601 -7 OFFCURVE",
"559 -13 OFFCURVE",
"518 -13 CURVE SMOOTH",
"457 -13 OFFCURVE",
"450 -9 OFFCURVE",
"451 30 CURVE SMOOTH",
"451 582 LINE SMOOTH",
"451 635 OFFCURVE",
"434 647 OFFCURVE",
"373 647 CURVE SMOOTH",
"335 648 OFFCURVE",
"281 637 OFFCURVE",
"211 614 CURVE",
"211 95 LINE SMOOTH",
"211 58 OFFCURVE",
"215 40 OFFCURVE",
"222 40 CURVE SMOOTH",
"285 42 LINE",
"288 37 OFFCURVE",
"289 30 OFFCURVE",
"289 23 CURVE SMOOTH",
"289 18 OFFCURVE",
"288 12 OFFCURVE",
"286 6 CURVE",
"241 -7 OFFCURVE",
"199 -13 OFFCURVE",
"158 -13 CURVE SMOOTH",
"97 -13 OFFCURVE",
"90 -9 OFFCURVE",
"91 30 CURVE SMOOTH",
"91 605 LINE SMOOTH",
"91 642 OFFCURVE",
"87 660 OFFCURVE",
"80 660 CURVE SMOOTH",
"17 658 LINE",
"14 663 OFFCURVE",
"13 670 OFFCURVE",
"13 677 CURVE SMOOTH",
"13 682 OFFCURVE",
"14 688 OFFCURVE",
"16 694 CURVE",
"61 707 OFFCURVE",
"103 713 OFFCURVE",
"144 713 CURVE SMOOTH",
"205 713 OFFCURVE",
"212 709 OFFCURVE",
"211 670 CURVE SMOOTH",
"211 664 LINE",
"295 696 OFFCURVE",
"379 712 OFFCURVE",
"463 713 CURVE SMOOTH",
"524 714 OFFCURVE",
"559 697 OFFCURVE",
"568 662 CURVE",
"655 695 OFFCURVE",
"740 712 OFFCURVE",
"823 713 CURVE SMOOTH",
"898 713 OFFCURVE",
"931 690 OFFCURVE",
"931 637 CURVE SMOOTH",
"931 95 LINE SMOOTH",
"931 58 OFFCURVE",
"935 40 OFFCURVE",
"942 40 CURVE SMOOTH",
"1005 42 LINE",
"1008 37 OFFCURVE",
"1009 30 OFFCURVE",
"1009 23 CURVE SMOOTH",
"1009 18 OFFCURVE",
"1008 12 OFFCURVE",
"1006 6 CURVE",
"961 -7 OFFCURVE",
"919 -13 OFFCURVE",
"878 -13 CURVE SMOOTH",
"817 -13 OFFCURVE",
"810 -9 OFFCURVE",
"811 30 CURVE SMOOTH",
"811 582 LINE SMOOTH",
"811 635 OFFCURVE",
"794 647 OFFCURVE",
"733 647 CURVE SMOOTH",
"695 648 OFFCURVE",
"641 637 OFFCURVE",
"571 614 CURVE"
);
}
);
width = 1022;
}
);
leftKerningGroup = E;
note = M;
rightKerningGroup = quotesingle;
unicode = 004D;
},
{
glyphname = N;
layers = (
{
layerId = "818F4BA1-BEA0-4BCA-BD8D-F69F95152157";
paths = (
{
closed = 1;
nodes = (
"603 95 LINE SMOOTH",
"603 58 OFFCURVE",
"607 40 OFFCURVE",
"614 40 CURVE SMOOTH",
"677 42 LINE",
"680 37 OFFCURVE",
"681 30 OFFCURVE",
"681 23 CURVE SMOOTH",
"681 18 OFFCURVE",
"680 12 OFFCURVE",
"678 6 CURVE",
"633 -7 OFFCURVE",
"591 -13 OFFCURVE",
"550 -13 CURVE SMOOTH",
"489 -13 OFFCURVE",
"482 -9 OFFCURVE",
"483 30 CURVE SMOOTH",
"483 582 LINE SMOOTH",
"483 635 OFFCURVE",
"466 647 OFFCURVE",
"405 647 CURVE SMOOTH",
"357 647 OFFCURVE",
"292 636 OFFCURVE",
"211 614 CURVE",
"211 95 LINE SMOOTH",
"211 58 OFFCURVE",
"215 40 OFFCURVE",
"222 40 CURVE SMOOTH",
"285 42 LINE",
"288 37 OFFCURVE",
"289 30 OFFCURVE",
"289 23 CURVE SMOOTH",
"289 18 OFFCURVE",
"288 12 OFFCURVE",
"286 6 CURVE",
"241 -7 OFFCURVE",
"199 -13 OFFCURVE",
"158 -13 CURVE SMOOTH",
"97 -13 OFFCURVE",
"90 -9 OFFCURVE",
"91 30 CURVE SMOOTH",
"91 605 LINE SMOOTH",
"91 642 OFFCURVE",
"87 660 OFFCURVE",
"80 660 CURVE SMOOTH",
"17 658 LINE",
"14 663 OFFCURVE",
"13 670 OFFCURVE",
"13 677 CURVE SMOOTH",
"13 682 OFFCURVE",
"14 688 OFFCURVE",
"16 694 CURVE",
"61 707 OFFCURVE",
"103 713 OFFCURVE",
"144 713 CURVE SMOOTH",
"205 713 OFFCURVE",
"212 709 OFFCURVE",
"211 670 CURVE SMOOTH",
"211 664 LINE",
"304 697 OFFCURVE",
"398 713 OFFCURVE",
"495 713 CURVE SMOOTH",
"570 713 OFFCURVE",
"603 690 OFFCURVE",
"603 637 CURVE SMOOTH"
);
}
);
width = 694;
}
);
leftKerningGroup = E;
note = N;
rightKerningGroup = quotesingle;
unicode = 004E;
},
{
glyphname = O;
layers = (
{
layerId = "818F4BA1-BEA0-4BCA-BD8D-F69F95152157";
paths = (
{
closed = 1;
nodes = (
"70 576 LINE SMOOTH",
"70 627 OFFCURVE",
"99 663 OFFCURVE",
"157 684 CURVE SMOOTH",
"215 704 OFFCURVE",
"308 714 OFFCURVE",
"436 714 CURVE SMOOTH",
"561 714 OFFCURVE",
"600 683 OFFCURVE",
"600 579 CURVE SMOOTH",
"600 125 LINE SMOOTH",
"600 74 OFFCURVE",
"571 38 OFFCURVE",
"513 18 CURVE SMOOTH",
"455 -3 OFFCURVE",
"362 -13 OFFCURVE",
"234 -13 CURVE SMOOTH",
"110 -13 OFFCURVE",
"70 18 OFFCURVE",
"70 122 CURVE SMOOTH"
);
},
{
closed = 1;
nodes = (
"480 565 LINE SMOOTH",
"480 640 OFFCURVE",
"459 661 OFFCURVE",
"384 661 CURVE SMOOTH",
"329 661 OFFCURVE",
"287 658 OFFCURVE",
"260 652 CURVE SMOOTH",
"205 639 OFFCURVE",
"189 615 OFFCURVE",
"190 571 CURVE SMOOTH",
"190 136 LINE SMOOTH",
"190 61 OFFCURVE",
"211 40 OFFCURVE",
"286 40 CURVE SMOOTH",
"341 40 OFFCURVE",
"383 43 OFFCURVE",
"411 50 CURVE SMOOTH",
"467 63 OFFCURVE",
"480 86 OFFCURVE",
"480 130 CURVE SMOOTH"
);
}
);
width = 670;
}
);
leftKerningGroup = C;
note = O;
rightKerningGroup = quotesingle;
unicode = 004F;
},
{
glyphname = Oslash;
layers = (
{
layerId = "818F4BA1-BEA0-4BCA-BD8D-F69F95152157";
paths = (
{
closed = 1;
nodes = (
"70 576 LINE SMOOTH",
"70 627 OFFCURVE",
"99 663 OFFCURVE",
"157 684 CURVE SMOOTH",
"215 704 OFFCURVE",
"308 714 OFFCURVE",
"436 714 CURVE SMOOTH",
"499 714 OFFCURVE",
"542 704 OFFCURVE",
"565 684 CURVE",
"589 713 LINE",
"610 713 OFFCURVE",
"628 705 OFFCURVE",
"642 689 CURVE",
"595 632 LINE",
"598 615 OFFCURVE",
"600 598 OFFCURVE",
"600 579 CURVE SMOOTH",
"600 125 LINE SMOOTH",
"600 74 OFFCURVE",
"571 38 OFFCURVE",
"513 18 CURVE SMOOTH",
"455 -3 OFFCURVE",
"362 -13 OFFCURVE",
"234 -13 CURVE SMOOTH",
"169 -13 OFFCURVE",
"125 -3 OFFCURVE",
"102 18 CURVE",
"75 -15 LINE",
"49 -15 OFFCURVE",
"31 -7 OFFCURVE",
"22 9 CURVE",
"74 72 LINE",
"71 85 OFFCURVE",
"70 101 OFFCURVE",
"70 122 CURVE SMOOTH"
);
},
{
closed = 1;
nodes = (
"190 219 LINE",
"480 568 LINE",
"479 640 OFFCURVE",
"457 661 OFFCURVE",
"384 661 CURVE SMOOTH",
"329 661 OFFCURVE",
"287 657 OFFCURVE",
"258 650 CURVE SMOOTH",
"200 635 OFFCURVE",
"190 615 OFFCURVE",
"190 571 CURVE SMOOTH"
);
},
{
closed = 1;
nodes = (
"480 482 LINE",
"190 131 LINE",
"191 60 OFFCURVE",
"213 40 OFFCURVE",
"286 40 CURVE SMOOTH",
"341 40 OFFCURVE",
"384 44 OFFCURVE",
"413 51 CURVE SMOOTH",
"471 66 OFFCURVE",
"480 86 OFFCURVE",
"480 130 CURVE SMOOTH"
);
}
);
width = 670;
}
);
leftKerningGroup = C;
note = Oslash;
rightKerningGroup = quotesingle;
unicode = 00D8;
},
{
glyphname = OE;
layers = (
{
layerId = "818F4BA1-BEA0-4BCA-BD8D-F69F95152157";
paths = (
{
closed = 1;
nodes = (
"70 576 LINE SMOOTH",
"70 627 OFFCURVE",
"99 663 OFFCURVE",
"157 684 CURVE SMOOTH",
"215 704 OFFCURVE",
"308 714 OFFCURVE",
"436 714 CURVE SMOOTH",
"487 714 OFFCURVE",
"524 708 OFFCURVE",
"548 696 CURVE",
"616 708 OFFCURVE",
"693 714 OFFCURVE",
"780 714 CURVE SMOOTH",
"823 714 OFFCURVE",
"864 712 OFFCURVE",
"905 708 CURVE",
"909 700 OFFCURVE",
"911 691 OFFCURVE",
"911 682 CURVE SMOOTH",
"911 675 OFFCURVE",
"909 667 OFFCURVE",
"906 658 CURVE",
"886 661 OFFCURVE",
"858 662 OFFCURVE",
"823 662 CURVE SMOOTH",
"740 662 OFFCURVE",
"665 658 OFFCURVE",
"599 649 CURVE",
"600 646 OFFCURVE",
"600 639 OFFCURVE",
"600 630 CURVE SMOOTH",
"600 431 LINE",
"676 441 OFFCURVE",
"762 447 OFFCURVE",
"857 448 CURVE",
"861 440 OFFCURVE",
"863 430 OFFCURVE",
"863 419 CURVE SMOOTH",
"863 412 OFFCURVE",
"861 405 OFFCURVE",
"858 396 CURVE",
"799 396 OFFCURVE",
"713 390 OFFCURVE",
"600 378 CURVE",
"600 105 LINE SMOOTH",
"600 52 OFFCURVE",
"617 40 OFFCURVE",
"678 40 CURVE SMOOTH",
"750 40 OFFCURVE",
"910 57 OFFCURVE",
"939 65 CURVE",
"942 55 OFFCURVE",
"943 46 OFFCURVE",
"943 39 CURVE SMOOTH",
"943 32 OFFCURVE",
"942 24 OFFCURVE",
"939 15 CURVE",
"875 -4 OFFCURVE",
"773 -13 OFFCURVE",
"632 -13 CURVE SMOOTH",
"588 -13 LINE SMOOTH",
"543 -13 OFFCURVE",
"513 -5 OFFCURVE",
"496 12 CURVE",
"436 -5 OFFCURVE",
"349 -13 OFFCURVE",
"234 -13 CURVE SMOOTH",
"111 -13 OFFCURVE",
"70 18 OFFCURVE",
"70 122 CURVE SMOOTH"
);
},
{
closed = 1;
nodes = (
"480 565 LINE SMOOTH",
"480 640 OFFCURVE",
"459 661 OFFCURVE",
"384 661 CURVE SMOOTH",
"329 661 OFFCURVE",
"287 657 OFFCURVE",
"258 650 CURVE SMOOTH",
"200 635 OFFCURVE",
"190 615 OFFCURVE",
"190 571 CURVE SMOOTH",
"190 136 LINE SMOOTH",
"190 61 OFFCURVE",
"211 40 OFFCURVE",
"286 40 CURVE SMOOTH",
"341 40 OFFCURVE",
"384 44 OFFCURVE",
"413 51 CURVE SMOOTH",
"471 66 OFFCURVE",
"480 86 OFFCURVE",
"480 130 CURVE SMOOTH"
);
}
);
width = 959;
}
);
leftKerningGroup = C;
note = OE;
rightKerningGroup = E;
unicode = 0152;
},
{
glyphname = P;
layers = (
{
layerId = "818F4BA1-BEA0-4BCA-BD8D-F69F95152157";
paths = (
{
closed = 1;
nodes = (
"199 595 OFFCURVE",
"205 589 OFFCURVE",
"205 577 CURVE SMOOTH",
"205 353 LINE",
"267 357 OFFCURVE",
"316 363 OFFCURVE",
"353 370 CURVE SMOOTH",
"410 381 OFFCURVE",
"424 391 OFFCURVE",
"424 439 CURVE SMOOTH",
"424 564 LINE SMOOTH",
"424 639 OFFCURVE",
"403 660 OFFCURVE",
"328 660 CURVE SMOOTH",
"223 659 OFFCURVE",
"125 644 OFFCURVE",
"34 616 CURVE",
"30 623 OFFCURVE",
"28 631 OFFCURVE",
"28 642 CURVE SMOOTH",
"28 651 OFFCURVE",
"29 659 OFFCURVE",
"32 666 CURVE",
"140 699 OFFCURVE",
"256 714 OFFCURVE",
"380 713 CURVE SMOOTH",
"503 713 OFFCURVE",
"544 682 OFFCURVE",
"544 578 CURVE SMOOTH",
"544 435 LINE SMOOTH",
"544 375 OFFCURVE",
"515 345 OFFCURVE",
"451 330 CURVE",
"369 317 OFFCURVE",
"287 309 OFFCURVE",
"205 306 CURVE",
"205 95 LINE SMOOTH",
"205 58 OFFCURVE",
"209 40 OFFCURVE",
"216 40 CURVE SMOOTH",
"279 42 LINE",
"282 37 OFFCURVE",
"283 30 OFFCURVE",
"283 23 CURVE SMOOTH",
"283 18 OFFCURVE",
"282 12 OFFCURVE",
"280 6 CURVE",
"235 -7 OFFCURVE",
"193 -13 OFFCURVE",
"152 -13 CURVE SMOOTH",
"91 -13 OFFCURVE",
"84 -9 OFFCURVE",
"85 30 CURVE SMOOTH",
"85 562 LINE SMOOTH",
"85 572 OFFCURVE",
"91 579 OFFCURVE",
"102 583 CURVE SMOOTH",
"126 591 OFFCURVE",
"154 595 OFFCURVE",
"187 595 CURVE SMOOTH"
);
}
);
width = 574;
}
);
leftKerningGroup = A;
note = P;
rightKerningGroup = P;
unicode = 0050;
},
{
glyphname = Thorn;
layers = (
{
layerId = "818F4BA1-BEA0-4BCA-BD8D-F69F95152157";
paths = (
{
closed = 1;
nodes = (
"550 285 LINE SMOOTH",
"550 225 OFFCURVE",
"521 195 OFFCURVE",
"457 180 CURVE",
"375 167 OFFCURVE",
"293 159 OFFCURVE",
"211 156 CURVE",
"211 95 LINE SMOOTH",
"211 58 OFFCURVE",
"215 40 OFFCURVE",
"222 40 CURVE SMOOTH",
"285 42 LINE",
"288 37 OFFCURVE",
"289 30 OFFCURVE",
"289 23 CURVE SMOOTH",
"289 18 OFFCURVE",
"288 12 OFFCURVE",
"286 6 CURVE",
"241 -7 OFFCURVE",
"199 -13 OFFCURVE",
"158 -13 CURVE SMOOTH",
"97 -13 OFFCURVE",
"90 -9 OFFCURVE",
"91 30 CURVE SMOOTH",
"91 605 LINE SMOOTH",
"91 642 OFFCURVE",
"87 660 OFFCURVE",
"80 660 CURVE SMOOTH",
"17 658 LINE",
"14 663 OFFCURVE",
"13 670 OFFCURVE",
"13 677 CURVE SMOOTH",
"13 682 OFFCURVE",
"14 688 OFFCURVE",
"16 694 CURVE",
"61 707 OFFCURVE",
"103 713 OFFCURVE",
"144 713 CURVE SMOOTH",
"205 713 OFFCURVE",
"212 709 OFFCURVE",
"211 670 CURVE SMOOTH",
"211 555 LINE",
"272 560 OFFCURVE",
"330 563 OFFCURVE",
"386 563 CURVE SMOOTH",
"509 563 OFFCURVE",
"550 532 OFFCURVE",
"550 428 CURVE SMOOTH"
);
},
{
closed = 1;
nodes = (
"211 203 LINE",
"278 207 OFFCURVE",
"327 212 OFFCURVE",
"359 219 CURVE SMOOTH",
"416 231 OFFCURVE",
"430 241 OFFCURVE",
"430 289 CURVE SMOOTH",
"430 414 LINE SMOOTH",
"430 489 OFFCURVE",
"409 510 OFFCURVE",
"334 510 CURVE SMOOTH",
"295 510 OFFCURVE",
"254 507 OFFCURVE",
"211 502 CURVE"
);
}
);
width = 591;
}
);
leftKerningGroup = E;
note = Thorn;
rightKerningGroup = Thorn;
unicode = 00DE;
},
{
glyphname = Q;
layers = (
{
layerId = "818F4BA1-BEA0-4BCA-BD8D-F69F95152157";
paths = (
{
closed = 1;
nodes = (
"601 -195 LINE SMOOTH",
"601 -205 OFFCURVE",
"595 -212 OFFCURVE",
"584 -216 CURVE SMOOTH",
"560 -224 OFFCURVE",
"532 -228 OFFCURVE",
"499 -228 CURVE SMOOTH",
"487 -228 OFFCURVE",
"481 -222 OFFCURVE",
"481 -210 CURVE SMOOTH",
"481 36 LINE",
"382 3 OFFCURVE",
"281 -13 OFFCURVE",
"179 -13 CURVE SMOOTH",
"104 -13 OFFCURVE",
"71 10 OFFCURVE",
"71 63 CURVE SMOOTH",
"71 576 LINE SMOOTH",
"71 627 OFFCURVE",
"100 663 OFFCURVE",
"158 684 CURVE SMOOTH",
"216 704 OFFCURVE",
"309 714 OFFCURVE",
"437 714 CURVE SMOOTH",
"560 714 OFFCURVE",
"601 683 OFFCURVE",
"601 579 CURVE SMOOTH"
);
},
{
closed = 1;
nodes = (
"191 118 LINE SMOOTH",
"191 65 OFFCURVE",
"208 53 OFFCURVE",
"269 53 CURVE SMOOTH",
"322 53 OFFCURVE",
"392 64 OFFCURVE",
"481 86 CURVE",
"481 565 LINE SMOOTH",
"481 640 OFFCURVE",
"460 661 OFFCURVE",
"385 661 CURVE SMOOTH",
"330 661 OFFCURVE",
"288 657 OFFCURVE",
"259 650 CURVE SMOOTH",
"201 635 OFFCURVE",
"191 615 OFFCURVE",
"191 571 CURVE SMOOTH"
);
}
);
width = 674;
}
);
leftKerningGroup = C;
note = Q;
rightKerningGroup = quotesingle;
unicode = 0051;
},
{
glyphname = R;
layers = (
{
layerId = "818F4BA1-BEA0-4BCA-BD8D-F69F95152157";
paths = (
{
closed = 1;
nodes = (
"29 623 OFFCURVE",
"27 631 OFFCURVE",
"27 642 CURVE SMOOTH",
"27 651 OFFCURVE",
"28 659 OFFCURVE",
"31 666 CURVE",
"140 697 OFFCURVE",
"267 713 OFFCURVE",
"412 713 CURVE SMOOTH",
"535 713 OFFCURVE",
"576 682 OFFCURVE",
"576 578 CURVE SMOOTH",
"576 472 LINE SMOOTH",
"576 412 OFFCURVE",
"547 382 OFFCURVE",
"483 367 CURVE",
"466 364 OFFCURVE",
"455 363 OFFCURVE",
"448 362 CURVE",
"568 95 LINE SMOOTH",
"571 88 OFFCURVE",
"577 74 OFFCURVE",
"580 69 CURVE",
"581 66 OFFCURVE",
"583 63 OFFCURVE",
"585 59 CURVE SMOOTH",
"589 51 OFFCURVE",
"591 49 OFFCURVE",
"595 45 CURVE SMOOTH",
"599 41 OFFCURVE",
"603 40 OFFCURVE",
"607 40 CURVE SMOOTH",
"676 42 LINE",
"679 33 OFFCURVE",
"680 26 OFFCURVE",
"680 22 CURVE SMOOTH",
"680 17 OFFCURVE",
"679 11 OFFCURVE",
"677 6 CURVE",
"632 -7 OFFCURVE",
"588 -13 OFFCURVE",
"543 -13 CURVE SMOOTH",
"487 -13 OFFCURVE",
"483 -10 OFFCURVE",
"466 30 CURVE SMOOTH",
"323 348 LINE",
"271 344 OFFCURVE",
"232 342 OFFCURVE",
"206 342 CURVE",
"206 95 LINE SMOOTH",
"206 58 OFFCURVE",
"210 40 OFFCURVE",
"217 40 CURVE SMOOTH",
"280 42 LINE",
"283 37 OFFCURVE",
"284 30 OFFCURVE",
"284 23 CURVE SMOOTH",
"284 18 OFFCURVE",
"283 12 OFFCURVE",
"281 6 CURVE",
"236 -7 OFFCURVE",
"194 -13 OFFCURVE",
"153 -13 CURVE SMOOTH",
"92 -13 OFFCURVE",
"85 -9 OFFCURVE",
"86 30 CURVE SMOOTH",
"86 562 LINE SMOOTH",
"86 572 OFFCURVE",
"92 579 OFFCURVE",
"103 583 CURVE SMOOTH",
"127 591 OFFCURVE",
"155 595 OFFCURVE",
"188 595 CURVE SMOOTH",
"200 595 OFFCURVE",
"206 589 OFFCURVE",
"206 577 CURVE SMOOTH",
"206 389 LINE",
"280 392 OFFCURVE",
"340 398 OFFCURVE",
"385 407 CURVE SMOOTH",
"442 418 OFFCURVE",
"456 428 OFFCURVE",
"456 476 CURVE SMOOTH",
"456 564 LINE SMOOTH",
"456 639 OFFCURVE",
"435 660 OFFCURVE",
"360 660 CURVE SMOOTH",
"239 660 OFFCURVE",
"84 633 OFFCURVE",
"33 616 CURVE"
);
}
);
width = 660;
}
);
leftKerningGroup = A;
note = R;
rightKerningGroup = R;
unicode = 0052;
},
{
glyphname = S;
layers = (
{
layerId = "818F4BA1-BEA0-4BCA-BD8D-F69F95152157";
paths = (
{
closed = 1;
nodes = (
"165 590 OFFCURVE",
"181 555 OFFCURVE",
"214 506 CURVE SMOOTH",
"355 300 LINE",
"356 299 OFFCURVE",
"421 203 OFFCURVE",
"430 187 CURVE",
"438 170 OFFCURVE",
"452 144 OFFCURVE",
"457 125 CURVE",
"459 115 OFFCURVE",
"460 106 OFFCURVE",
"460 97 CURVE",
"457 22 OFFCURVE",
"375 -16 OFFCURVE",
"214 -16 CURVE SMOOTH",
"177 -16 OFFCURVE",
"116 -13 OFFCURVE",
"30 -7 CURVE",
"26 2 OFFCURVE",
"24 12 OFFCURVE",
"24 22 CURVE SMOOTH",
"24 30 OFFCURVE",
"26 39 OFFCURVE",
"29 48 CURVE",
"79 41 OFFCURVE",
"126 38 OFFCURVE",
"169 38 CURVE SMOOTH",
"234 38 OFFCURVE",
"278 42 OFFCURVE",
"299 49 CURVE SMOOTH",
"320 56 OFFCURVE",
"330 72 OFFCURVE",
"330 95 CURVE SMOOTH",
"330 114 OFFCURVE",
"314 148 OFFCURVE",
"283 196 CURVE SMOOTH",
"75 506 LINE SMOOTH",
"51 543 OFFCURVE",
"40 577 OFFCURVE",
"41 610 CURVE SMOOTH",
"41 679 OFFCURVE",
"127 714 OFFCURVE",
"298 714 CURVE SMOOTH",
"337 714 OFFCURVE",
"381 711 OFFCURVE",
"430 706 CURVE",
"435 687 OFFCURVE",
"434 667 OFFCURVE",
"427 650 CURVE",
"393 658 OFFCURVE",
"352 662 OFFCURVE",
"304 662 CURVE SMOOTH",
"253 662 OFFCURVE",
"217 658 OFFCURVE",
"196 649 CURVE SMOOTH",
"175 640 OFFCURVE",
"165 627 OFFCURVE",
"165 610 CURVE SMOOTH"
);
}
);
width = 487;
}
);
leftKerningGroup = S;
note = S;
rightKerningGroup = S;
unicode = 0053;
},
{
glyphname = T;
lastChange = "2016-01-20 21:05:39 +0000";
layers = (
{
layerId = "818F4BA1-BEA0-4BCA-BD8D-F69F95152157";
paths = (
{
closed = 1;
nodes = (
"520 699 OFFCURVE",
"522 690 OFFCURVE",
"522 677 CURVE SMOOTH",
"522 668 OFFCURVE",
"521 659 OFFCURVE",
"518 651 CURVE",
"467 657 OFFCURVE",
"402 660 OFFCURVE",
"325 659 CURVE",
"325 95 LINE SMOOTH",
"325 58 OFFCURVE",
"329 40 OFFCURVE",
"336 40 CURVE SMOOTH",
"399 42 LINE",
"402 37 OFFCURVE",
"403 30 OFFCURVE",
"403 23 CURVE SMOOTH",
"403 18 OFFCURVE",
"402 12 OFFCURVE",
"400 6 CURVE",
"355 -7 OFFCURVE",
"313 -13 OFFCURVE",
"272 -13 CURVE SMOOTH",
"211 -13 OFFCURVE",
"204 -9 OFFCURVE",
"205 30 CURVE SMOOTH",
"205 651 LINE",
"124 645 OFFCURVE",
"57 635 OFFCURVE",
"2 622 CURVE",
"-5 638 OFFCURVE",
"-5 657 OFFCURVE",
"0 676 CURVE",
"95 701 OFFCURVE",
"206 714 OFFCURVE",
"335 714 CURVE SMOOTH",
"402 714 OFFCURVE",
"462 711 OFFCURVE",
"516 706 CURVE"
);
}
);
width = 540;
}
);
leftKerningGroup = T;
note = T;
rightKerningGroup = T;
unicode = 0054;
},
{
glyphname = U;
layers = (
{
layerId = "818F4BA1-BEA0-4BCA-BD8D-F69F95152157";
paths = (
{
closed = 1;
nodes = (
"597 713 OFFCURVE",
"603 707 OFFCURVE",
"603 695 CURVE SMOOTH",
"603 95 LINE SMOOTH",
"603 58 OFFCURVE",
"607 40 OFFCURVE",
"614 40 CURVE SMOOTH",
"677 42 LINE",
"680 37 OFFCURVE",
"681 30 OFFCURVE",
"681 23 CURVE SMOOTH",
"681 18 OFFCURVE",
"680 12 OFFCURVE",
"678 6 CURVE",
"633 -7 OFFCURVE",
"591 -13 OFFCURVE",
"550 -13 CURVE SMOOTH",
"489 -13 OFFCURVE",
"482 -9 OFFCURVE",
"483 30 CURVE SMOOTH",
"483 36 LINE",
"390 3 OFFCURVE",
"296 -13 OFFCURVE",
"199 -13 CURVE SMOOTH",
"124 -13 OFFCURVE",
"91 10 OFFCURVE",
"91 63 CURVE SMOOTH",
"91 605 LINE SMOOTH",
"91 642 OFFCURVE",
"87 660 OFFCURVE",
"80 660 CURVE SMOOTH",
"17 658 LINE",
"14 663 OFFCURVE",
"13 670 OFFCURVE",
"13 677 CURVE SMOOTH",
"13 682 OFFCURVE",
"14 688 OFFCURVE",
"16 694 CURVE",
"61 707 OFFCURVE",
"103 713 OFFCURVE",
"144 713 CURVE SMOOTH",
"205 713 OFFCURVE",
"212 709 OFFCURVE",
"211 670 CURVE SMOOTH",
"211 118 LINE SMOOTH",
"211 65 OFFCURVE",
"228 53 OFFCURVE",
"289 53 CURVE SMOOTH",
"337 53 OFFCURVE",
"402 64 OFFCURVE",
"483 86 CURVE",
"483 680 LINE SMOOTH",
"483 690 OFFCURVE",
"489 697 OFFCURVE",
"500 701 CURVE SMOOTH",
"524 709 OFFCURVE",
"552 713 OFFCURVE",
"585 713 CURVE SMOOTH"
);
}
);
width = 695;
}
);
leftKerningGroup = E;
note = U;
rightKerningGroup = quotesingle;
unicode = 0055;
},
{
glyphname = V;
layers = (
{
layerId = "818F4BA1-BEA0-4BCA-BD8D-F69F95152157";
paths = (
{
closed = 1;
nodes = (
"603 125 LINE SMOOTH",
"603 89 OFFCURVE",
"588 60 OFFCURVE",
"565 41 CURVE SMOOTH",
"541 21 OFFCURVE",
"497 8 OFFCURVE",
"457 1 CURVE SMOOTH",
"417 -7 OFFCURVE",
"347 -11 OFFCURVE",
"296 -12 CURVE SMOOTH",
"244 -13 OFFCURVE",
"146 -17 OFFCURVE",
"115 -4 CURVE SMOOTH",
"99 3 OFFCURVE",
"91 18 OFFCURVE",
"91 43 CURVE SMOOTH",
"91 605 LINE SMOOTH",
"91 642 OFFCURVE",
"87 660 OFFCURVE",
"80 660 CURVE SMOOTH",
"17 658 LINE",
"14 663 OFFCURVE",
"13 670 OFFCURVE",
"13 677 CURVE SMOOTH",
"13 682 OFFCURVE",
"14 688 OFFCURVE",
"16 694 CURVE",
"61 707 OFFCURVE",
"103 713 OFFCURVE",
"144 713 CURVE SMOOTH",
"205 713 OFFCURVE",
"212 709 OFFCURVE",
"211 670 CURVE SMOOTH",
"211 105 LINE SMOOTH",
"211 52 OFFCURVE",
"228 40 OFFCURVE",
"289 40 CURVE SMOOTH",
"366 40 OFFCURVE",
"417 46 OFFCURVE",
"444 58 CURVE SMOOTH",
"470 70 OFFCURVE",
"483 94 OFFCURVE",
"483 130 CURVE SMOOTH",
"483 605 LINE SMOOTH",
"483 627 OFFCURVE",
"482 642 OFFCURVE",
"480 649 CURVE SMOOTH",
"478 656 OFFCURVE",
"475 660 OFFCURVE",
"472 660 CURVE SMOOTH",
"409 658 LINE",
"406 663 OFFCURVE",
"405 670 OFFCURVE",
"405 677 CURVE SMOOTH",
"405 682 OFFCURVE",
"406 688 OFFCURVE",
"408 694 CURVE",
"447 705 OFFCURVE",
"487 713 OFFCURVE",
"536 713 CURVE SMOOTH",
"552 713 OFFCURVE",
"564 713 OFFCURVE",
"573 712 CURVE SMOOTH",
"590 710 OFFCURVE",
"600 704 OFFCURVE",
"602 693 CURVE SMOOTH",
"603 687 OFFCURVE",
"603 679 OFFCURVE",
"603 670 CURVE SMOOTH"
);
}
);
width = 674;
}
);
leftKerningGroup = E;
note = V;
rightKerningGroup = quotesingle;
unicode = 0056;
},
{
glyphname = W;
layers = (
{
layerId = "818F4BA1-BEA0-4BCA-BD8D-F69F95152157";
paths = (
{
closed = 1;
nodes = (
"884 125 LINE SMOOTH",
"884 64 OFFCURVE",
"852 30 OFFCURVE",
"794 11 CURVE SMOOTH",
"736 -9 OFFCURVE",
"651 -13 OFFCURVE",
"547 -13 CURVE SMOOTH",
"496 -13 OFFCURVE",
"455 0 OFFCURVE",
"434 31 CURVE",
"382 7 OFFCURVE",
"309 -12 OFFCURVE",
"234 -12 CURVE SMOOTH",
"178 -12 OFFCURVE",
"143 -6 OFFCURVE",
"121 11 CURVE SMOOTH",
"99 27 OFFCURVE",
"90 54 OFFCURVE",
"90 97 CURVE SMOOTH",
"90 605 LINE SMOOTH",
"90 627 OFFCURVE",
"89 642 OFFCURVE",
"87 649 CURVE SMOOTH",
"85 656 OFFCURVE",
"82 660 OFFCURVE",
"79 660 CURVE SMOOTH",
"16 658 LINE",
"13 663 OFFCURVE",
"12 670 OFFCURVE",
"12 677 CURVE SMOOTH",
"12 682 OFFCURVE",
"13 688 OFFCURVE",
"15 694 CURVE",
"54 705 OFFCURVE",
"94 713 OFFCURVE",
"143 713 CURVE SMOOTH",
"159 713 OFFCURVE",
"171 713 OFFCURVE",
"180 712 CURVE SMOOTH",
"197 710 OFFCURVE",
"207 704 OFFCURVE",
"209 693 CURVE SMOOTH",
"210 687 OFFCURVE",
"210 679 OFFCURVE",
"210 670 CURVE SMOOTH",
"210 124 LINE SMOOTH",
"210 68 OFFCURVE",
"220 47 OFFCURVE",
"267 47 CURVE SMOOTH",
"334 47 OFFCURVE",
"381 59 OFFCURVE",
"420 78 CURVE",
"420 605 LINE SMOOTH",
"420 627 OFFCURVE",
"419 642 OFFCURVE",
"417 649 CURVE SMOOTH",
"415 656 OFFCURVE",
"412 660 OFFCURVE",
"409 660 CURVE SMOOTH",
"346 658 LINE",
"343 663 OFFCURVE",
"342 670 OFFCURVE",
"342 677 CURVE SMOOTH",
"342 682 OFFCURVE",
"343 688 OFFCURVE",
"345 694 CURVE",
"384 705 OFFCURVE",
"424 713 OFFCURVE",
"473 713 CURVE SMOOTH",
"489 713 OFFCURVE",
"501 713 OFFCURVE",
"510 712 CURVE SMOOTH",
"527 710 OFFCURVE",
"537 704 OFFCURVE",
"539 693 CURVE SMOOTH",
"540 687 OFFCURVE",
"540 679 OFFCURVE",
"540 670 CURVE SMOOTH",
"540 105 LINE SMOOTH",
"540 78 OFFCURVE",
"544 61 OFFCURVE",
"556 52 CURVE SMOOTH",
"568 43 OFFCURVE",
"587 40 OFFCURVE",
"618 40 CURVE SMOOTH",
"681 40 OFFCURVE",
"718 45 OFFCURVE",
"739 58 CURVE SMOOTH",
"759 71 OFFCURVE",
"764 94 OFFCURVE",
"764 130 CURVE SMOOTH",
"764 605 LINE SMOOTH",
"764 627 OFFCURVE",
"763 642 OFFCURVE",
"761 649 CURVE SMOOTH",
"759 656 OFFCURVE",
"756 660 OFFCURVE",
"753 660 CURVE SMOOTH",
"690 658 LINE",
"687 663 OFFCURVE",
"686 670 OFFCURVE",
"686 677 CURVE SMOOTH",
"686 682 OFFCURVE",
"687 688 OFFCURVE",
"689 694 CURVE",
"728 705 OFFCURVE",
"768 713 OFFCURVE",
"817 713 CURVE SMOOTH",
"833 713 OFFCURVE",
"845 713 OFFCURVE",
"854 712 CURVE SMOOTH",
"871 710 OFFCURVE",
"881 704 OFFCURVE",
"883 693 CURVE SMOOTH",
"884 687 OFFCURVE",
"884 679 OFFCURVE",
"884 670 CURVE SMOOTH"
);
}
);
width = 956;
}
);
leftKerningGroup = E;
note = W;
rightKerningGroup = quotesingle;
unicode = 0057;
},
{
glyphname = X;
layers = (
{
layerId = "818F4BA1-BEA0-4BCA-BD8D-F69F95152157";
paths = (
{
closed = 1;
nodes = (
"332 430 LINE",
"491 706 LINE",
"504 711 OFFCURVE",
"515 713 OFFCURVE",
"526 713 CURVE SMOOTH",
"541 713 OFFCURVE",
"552 710 OFFCURVE",
"561 705 CURVE",
"365 363 LINE",
"497 95 LINE",
"508 75 OFFCURVE",
"517 61 OFFCURVE",
"524 53 CURVE",
"531 44 OFFCURVE",
"538 40 OFFCURVE",
"546 40 CURVE SMOOTH",
"615 42 LINE",
"618 33 OFFCURVE",
"619 26 OFFCURVE",
"619 22 CURVE SMOOTH",
"619 17 OFFCURVE",
"618 11 OFFCURVE",
"616 6 CURVE",
"571 -7 OFFCURVE",
"527 -13 OFFCURVE",
"482 -13 CURVE SMOOTH",
"421 -13 OFFCURVE",
"412 -9 OFFCURVE",
"395 30 CURVE",
"273 277 LINE",
"109 -8 LINE",
"96 -13 OFFCURVE",
"85 -15 OFFCURVE",
"74 -15 CURVE SMOOTH",
"59 -15 OFFCURVE",
"48 -12 OFFCURVE",
"39 -7 CURVE",
"240 344 LINE",
"112 605 LINE SMOOTH",
"95 642 OFFCURVE",
"79 660 OFFCURVE",
"65 660 CURVE SMOOTH",
"-4 658 LINE",
"-7 667 OFFCURVE",
"-8 674 OFFCURVE",
"-8 678 CURVE SMOOTH",
"-8 683 OFFCURVE",
"-7 689 OFFCURVE",
"-5 694 CURVE",
"40 707 OFFCURVE",
"84 713 OFFCURVE",
"129 713 CURVE SMOOTH",
"186 713 OFFCURVE",
"194 709 OFFCURVE",
"214 670 CURVE SMOOTH"
);
}
);
width = 609;
}
);
leftKerningGroup = X;
note = X;
rightKerningGroup = X;
unicode = 0058;
},
{
glyphname = Y;
layers = (
{
layerId = "818F4BA1-BEA0-4BCA-BD8D-F69F95152157";
paths = (
{
closed = 1;
nodes = (
"159 -187 OFFCURVE",
"196 -189 OFFCURVE",
"233 -189 CURVE SMOOTH",
"298 -189 OFFCURVE",
"364 -182 OFFCURVE",
"433 -167 CURVE SMOOTH",
"467 -160 OFFCURVE",
"484 -137 OFFCURVE",
"483 -97 CURVE",
"483 36 LINE",
"390 3 OFFCURVE",
"296 -13 OFFCURVE",
"199 -13 CURVE SMOOTH",
"124 -13 OFFCURVE",
"91 10 OFFCURVE",
"91 63 CURVE SMOOTH",
"91 605 LINE SMOOTH",
"91 642 OFFCURVE",
"87 660 OFFCURVE",
"80 660 CURVE SMOOTH",
"17 658 LINE",
"14 663 OFFCURVE",
"13 670 OFFCURVE",
"13 677 CURVE SMOOTH",
"13 682 OFFCURVE",
"14 688 OFFCURVE",
"16 694 CURVE",
"61 707 OFFCURVE",
"103 713 OFFCURVE",
"144 713 CURVE SMOOTH",
"205 713 OFFCURVE",
"212 709 OFFCURVE",
"211 670 CURVE SMOOTH",
"211 118 LINE SMOOTH",
"211 65 OFFCURVE",
"228 53 OFFCURVE",
"289 53 CURVE SMOOTH",
"337 53 OFFCURVE",
"402 64 OFFCURVE",
"483 86 CURVE",
"483 680 LINE SMOOTH",
"483 690 OFFCURVE",
"489 697 OFFCURVE",
"500 701 CURVE SMOOTH",
"524 709 OFFCURVE",
"552 713 OFFCURVE",
"585 713 CURVE SMOOTH",
"597 713 OFFCURVE",
"603 707 OFFCURVE",
"603 695 CURVE SMOOTH",
"603 -102 LINE SMOOTH",
"603 -223 OFFCURVE",
"430 -240 OFFCURVE",
"241 -240 CURVE SMOOTH",
"193 -240 OFFCURVE",
"154 -238 OFFCURVE",
"123 -235 CURVE",
"119 -228 OFFCURVE",
"117 -219 OFFCURVE",
"117 -210 CURVE SMOOTH",
"117 -202 OFFCURVE",
"118 -193 OFFCURVE",
"121 -183 CURVE"
);
}
);
width = 677;
}
);
leftKerningGroup = E;
note = Y;
rightKerningGroup = quotesingle;
unicode = 0059;
},
{
glyphname = Z;
layers = (
{
layerId = "818F4BA1-BEA0-4BCA-BD8D-F69F95152157";
paths = (
{
closed = 1;
nodes = (
"543 77 OFFCURVE",
"545 67 OFFCURVE",
"545 58 CURVE SMOOTH",
"545 49 OFFCURVE",
"544 40 OFFCURVE",
"541 33 CURVE",
"429 3 OFFCURVE",
"320 -12 OFFCURVE",
"213 -12 CURVE SMOOTH",
"138 -12 OFFCURVE",
"78 -10 OFFCURVE",
"31 -5 CURVE",
"27 9 OFFCURVE",
"25 19 OFFCURVE",
"25 26 CURVE SMOOTH",
"25 33 OFFCURVE",
"27 40 OFFCURVE",
"30 47 CURVE",
"383 655 LINE",
"356 657 OFFCURVE",
"331 658 OFFCURVE",
"309 658 CURVE SMOOTH",
"242 659 OFFCURVE",
"159 645 OFFCURVE",
"61 617 CURVE",
"56 626 OFFCURVE",
"54 636 OFFCURVE",
"54 647 CURVE SMOOTH",
"54 654 OFFCURVE",
"55 661 OFFCURVE",
"57 668 CURVE",
"137 699 OFFCURVE",
"226 714 OFFCURVE",
"324 714 CURVE SMOOTH",
"385 714 OFFCURVE",
"449 707 OFFCURVE",
"516 694 CURVE",
"519 686 OFFCURVE",
"521 676 OFFCURVE",
"521 665 CURVE SMOOTH",
"521 657 OFFCURVE",
"519 650 OFFCURVE",
"515 643 CURVE SMOOTH",
"177 44 LINE",
"185 44 LINE SMOOTH",
"324 45 OFFCURVE",
"442 59 OFFCURVE",
"539 87 CURVE"
);
}
);
width = 570;
}
);
leftKerningGroup = Z;
note = Z;
rightKerningGroup = Z;
unicode = 005A;
},
{
glyphname = V.001;
layers = (
{
layerId = "818F4BA1-BEA0-4BCA-BD8D-F69F95152157";
paths = (
{
closed = 1;
nodes = (
"239 624 OFFCURVE",
"237 632 OFFCURVE",
"237 640 CURVE SMOOTH",
"237 649 OFFCURVE",
"238 657 OFFCURVE",
"241 664 CURVE",
"325 697 OFFCURVE",
"410 713 OFFCURVE",
"495 713 CURVE SMOOTH",
"570 713 OFFCURVE",
"603 690 OFFCURVE",
"603 637 CURVE SMOOTH",
"603 125 LINE SMOOTH",
"603 89 OFFCURVE",
"588 60 OFFCURVE",
"565 41 CURVE SMOOTH",
"541 21 OFFCURVE",
"497 8 OFFCURVE",
"457 1 CURVE SMOOTH",
"417 -7 OFFCURVE",
"347 -11 OFFCURVE",
"296 -12 CURVE SMOOTH",
"244 -13 OFFCURVE",
"146 -17 OFFCURVE",
"115 -4 CURVE SMOOTH",
"99 3 OFFCURVE",
"91 18 OFFCURVE",
"91 43 CURVE SMOOTH",
"91 605 LINE SMOOTH",
"91 642 OFFCURVE",
"87 660 OFFCURVE",
"80 660 CURVE SMOOTH",
"17 658 LINE",
"14 663 OFFCURVE",
"13 670 OFFCURVE",
"13 677 CURVE SMOOTH",
"13 682 OFFCURVE",
"14 688 OFFCURVE",
"16 694 CURVE",
"61 707 OFFCURVE",
"103 713 OFFCURVE",
"144 713 CURVE SMOOTH",
"205 713 OFFCURVE",
"212 709 OFFCURVE",
"211 670 CURVE SMOOTH",
"211 105 LINE SMOOTH",
"211 52 OFFCURVE",
"228 40 OFFCURVE",
"289 40 CURVE SMOOTH",
"366 40 OFFCURVE",
"417 46 OFFCURVE",
"444 58 CURVE SMOOTH",
"470 70 OFFCURVE",
"483 94 OFFCURVE",
"483 130 CURVE SMOOTH",
"483 584 LINE SMOOTH",
"483 637 OFFCURVE",
"466 649 OFFCURVE",
"405 649 CURVE SMOOTH",
"363 649 OFFCURVE",
"309 638 OFFCURVE",
"243 616 CURVE"
);
}
);
width = 674;
}
);
note = V.001;
},
{
glyphname = W.001;
layers = (
{
layerId = "818F4BA1-BEA0-4BCA-BD8D-F69F95152157";
paths = (
{
closed = 1;
nodes = (
"548 629 OFFCURVE",
"548 648 OFFCURVE",
"553 664 CURVE",
"628 697 OFFCURVE",
"702 713 OFFCURVE",
"777 713 CURVE SMOOTH",
"852 713 OFFCURVE",
"885 690 OFFCURVE",
"885 637 CURVE SMOOTH",
"885 125 LINE SMOOTH",
"885 82 OFFCURVE",
"869 53 OFFCURVE",
"838 33 CURVE SMOOTH",
"806 12 OFFCURVE",
"767 1 OFFCURVE",
"704 -6 CURVE SMOOTH",
"641 -13 OFFCURVE",
"597 -13 OFFCURVE",
"514 -13 CURVE SMOOTH",
"439 -13 OFFCURVE",
"406 10 OFFCURVE",
"406 63 CURVE SMOOTH",
"406 582 LINE SMOOTH",
"406 637 OFFCURVE",
"394 647 OFFCURVE",
"334 647 CURVE SMOOTH",
"302 647 OFFCURVE",
"261 637 OFFCURVE",
"211 616 CURVE",
"211 95 LINE SMOOTH",
"211 58 OFFCURVE",
"215 40 OFFCURVE",
"222 40 CURVE SMOOTH",
"285 42 LINE",
"288 37 OFFCURVE",
"289 30 OFFCURVE",
"289 23 CURVE SMOOTH",
"289 18 OFFCURVE",
"288 12 OFFCURVE",
"286 6 CURVE",
"241 -7 OFFCURVE",
"199 -13 OFFCURVE",
"158 -13 CURVE SMOOTH",
"97 -13 OFFCURVE",
"90 -9 OFFCURVE",
"91 30 CURVE SMOOTH",
"91 605 LINE SMOOTH",
"91 642 OFFCURVE",
"87 660 OFFCURVE",
"80 660 CURVE SMOOTH",
"17 658 LINE",
"14 663 OFFCURVE",
"13 670 OFFCURVE",
"13 677 CURVE SMOOTH",
"13 682 OFFCURVE",
"14 688 OFFCURVE",
"16 694 CURVE",
"61 707 OFFCURVE",
"103 713 OFFCURVE",
"144 713 CURVE SMOOTH",
"205 713 OFFCURVE",
"212 709 OFFCURVE",
"211 670 CURVE SMOOTH",
"211 666 LINE",
"284 698 OFFCURVE",
"353 714 OFFCURVE",
"418 713 CURVE SMOOTH",
"493 713 OFFCURVE",
"526 690 OFFCURVE",
"526 637 CURVE SMOOTH",
"526 105 LINE SMOOTH",
"526 52 OFFCURVE",
"543 40 OFFCURVE",
"604 40 CURVE SMOOTH",
"731 40 OFFCURVE",
"765 58 OFFCURVE",
"765 130 CURVE SMOOTH",
"765 582 LINE SMOOTH",
"765 637 OFFCURVE",
"755 647 OFFCURVE",
"696 647 CURVE SMOOTH",
"659 647 OFFCURVE",
"612 637 OFFCURVE",
"555 616 CURVE"
);
}
);
width = 956;
}
);
note = W.001;
},
{
glyphname = a;
layers = (
{
layerId = "818F4BA1-BEA0-4BCA-BD8D-F69F95152157";
paths = (
{
closed = 1;
nodes = (
"496 -7 OFFCURVE",
"451 -13 OFFCURVE",
"405 -13 CURVE SMOOTH",
"353 -13 OFFCURVE",
"345 -9 OFFCURVE",
"345 20 CURVE",
"268 -2 OFFCURVE",
"202 -13 OFFCURVE",
"147 -13 CURVE SMOOTH",
"74 -13 OFFCURVE",
"46 7 OFFCURVE",
"46 63 CURVE SMOOTH",
"46 203 LINE SMOOTH",
"46 260 OFFCURVE",
"74 289 OFFCURVE",
"134 302 CURVE",
"211 314 OFFCURVE",
"281 321 OFFCURVE",
"345 324 CURVE",
"345 402 LINE SMOOTH",
"345 453 OFFCURVE",
"330 464 OFFCURVE",
"271 464 CURVE SMOOTH",
"246 464 OFFCURVE",
"201 457 OFFCURVE",
"159 450 CURVE SMOOTH",
"117 442 OFFCURVE",
"76 433 OFFCURVE",
"63 429 CURVE",
"60 436 OFFCURVE",
"58 444 OFFCURVE",
"58 454 CURVE SMOOTH",
"58 463 OFFCURVE",
"59 469 OFFCURVE",
"62 474 CURVE",
"148 501 OFFCURVE",
"246 514 OFFCURVE",
"356 514 CURVE SMOOTH",
"428 514 OFFCURVE",
"459 493 OFFCURVE",
"459 441 CURVE SMOOTH",
"459 95 LINE SMOOTH",
"459 58 OFFCURVE",
"463 40 OFFCURVE",
"470 40 CURVE SMOOTH",
"539 42 LINE",
"542 37 OFFCURVE",
"543 31 OFFCURVE",
"543 23 CURVE SMOOTH",
"543 18 OFFCURVE",
"542 12 OFFCURVE",
"540 6 CURVE"
);
},
{
closed = 1;
nodes = (
"345 279 LINE",
"309 278 OFFCURVE",
"272 274 OFFCURVE",
"241 268 CURVE SMOOTH",
"209 262 OFFCURVE",
"184 253 OFFCURVE",
"173 244 CURVE SMOOTH",
"164 237 OFFCURVE",
"160 222 OFFCURVE",
"160 199 CURVE SMOOTH",
"160 88 LINE SMOOTH",
"160 58 OFFCURVE",
"181 43 OFFCURVE",
"223 43 CURVE SMOOTH",
"254 43 OFFCURVE",
"294 50 OFFCURVE",
"345 65 CURVE"
);
}
);
width = 546;
}
);
leftKerningGroup = a;
note = a;
rightKerningGroup = a;
unicode = 0061;
},
{
glyphname = ae;
layers = (
{
layerId = "818F4BA1-BEA0-4BCA-BD8D-F69F95152157";
paths = (
{
closed = 1;
nodes = (
"593 37 OFFCURVE",
"708 58 OFFCURVE",
"741 67 CURVE",
"744 61 OFFCURVE",
"746 53 OFFCURVE",
"746 42 CURVE SMOOTH",
"746 34 OFFCURVE",
"745 27 OFFCURVE",
"742 22 CURVE",
"654 -1 OFFCURVE",
"556 -13 OFFCURVE",
"448 -13 CURVE SMOOTH",
"397 -13 OFFCURVE",
"366 -1 OFFCURVE",
"353 22 CURVE",
"271 -1 OFFCURVE",
"202 -13 OFFCURVE",
"147 -13 CURVE SMOOTH",
"74 -13 OFFCURVE",
"46 8 OFFCURVE",
"46 63 CURVE SMOOTH",
"46 203 LINE SMOOTH",
"46 260 OFFCURVE",
"74 289 OFFCURVE",
"134 302 CURVE",
"211 314 OFFCURVE",
"282 321 OFFCURVE",
"345 324 CURVE",
"345 402 LINE SMOOTH",
"345 453 OFFCURVE",
"330 464 OFFCURVE",
"271 464 CURVE SMOOTH",
"212 464 OFFCURVE",
"96 440 OFFCURVE",
"63 429 CURVE",
"60 435 OFFCURVE",
"58 443 OFFCURVE",
"58 454 CURVE SMOOTH",
"58 462 OFFCURVE",
"59 469 OFFCURVE",
"62 474 CURVE",
"149 501 OFFCURVE",
"247 514 OFFCURVE",
"356 514 CURVE SMOOTH",
"390 514 OFFCURVE",
"416 508 OFFCURVE",
"433 497 CURVE",
"476 508 OFFCURVE",
"538 514 OFFCURVE",
"619 514 CURVE SMOOTH",
"718 514 OFFCURVE",
"749 490 OFFCURVE",
"749 406 CURVE SMOOTH",
"749 335 LINE SMOOTH",
"749 278 OFFCURVE",
"721 249 OFFCURVE",
"661 236 CURVE",
"590 225 OFFCURVE",
"522 217 OFFCURVE",
"459 213 CURVE",
"459 99 LINE SMOOTH",
"459 48 OFFCURVE",
"475 37 OFFCURVE",
"530 37 CURVE SMOOTH"
);
},
{
closed = 1;
nodes = (
"345 279 LINE",
"302 277 OFFCURVE",
"263 272 OFFCURVE",
"227 265 CURVE SMOOTH",
"172 253 OFFCURVE",
"160 244 OFFCURVE",
"160 199 CURVE SMOOTH",
"160 88 LINE SMOOTH",
"160 58 OFFCURVE",
"181 43 OFFCURVE",
"223 43 CURVE SMOOTH",
"252 43 OFFCURVE",
"293 50 OFFCURVE",
"345 65 CURVE"
);
},
{
closed = 1;
nodes = (
"459 259 LINE",
"507 263 OFFCURVE",
"543 268 OFFCURVE",
"568 273 CURVE SMOOTH",
"621 284 OFFCURVE",
"635 294 OFFCURVE",
"635 338 CURVE SMOOTH",
"635 399 LINE SMOOTH",
"635 455 OFFCURVE",
"620 472 OFFCURVE",
"577 472 CURVE SMOOTH",
"478 472 OFFCURVE",
"459 452 OFFCURVE",
"459 399 CURVE SMOOTH"
);
}
);
width = 795;
}
);
leftKerningGroup = a;
note = ae;
rightKerningGroup = e;
unicode = 00E6;
},
{
glyphname = b;
layers = (
{
layerId = "818F4BA1-BEA0-4BCA-BD8D-F69F95152157";
paths = (
{
closed = 1;
nodes = (
"-10 658 LINE",
"-13 663 OFFCURVE",
"-14 670 OFFCURVE",
"-14 677 CURVE SMOOTH",
"-14 682 OFFCURVE",
"-13 688 OFFCURVE",
"-11 694 CURVE",
"34 707 OFFCURVE",
"79 713 OFFCURVE",
"124 713 CURVE SMOOTH",
"180 713 OFFCURVE",
"185 709 OFFCURVE",
"184 670 CURVE SMOOTH",
"184 471 LINE",
"199 475 OFFCURVE",
"319 509 OFFCURVE",
"351 512 CURVE SMOOTH",
"366 513 OFFCURVE",
"380 514 OFFCURVE",
"393 514 CURVE SMOOTH",
"466 514 OFFCURVE",
"494 493 OFFCURVE",
"494 438 CURVE SMOOTH",
"494 99 LINE SMOOTH",
"494 58 OFFCURVE",
"471 30 OFFCURVE",
"425 13 CURVE SMOOTH",
"378 -4 OFFCURVE",
"304 -12 OFFCURVE",
"202 -12 CURVE SMOOTH",
"103 -12 OFFCURVE",
"70 13 OFFCURVE",
"70 97 CURVE SMOOTH",
"70 605 LINE SMOOTH",
"70 642 OFFCURVE",
"66 660 OFFCURVE",
"59 660 CURVE SMOOTH"
);
},
{
closed = 1;
nodes = (
"184 108 LINE SMOOTH",
"184 48 OFFCURVE",
"196 31 OFFCURVE",
"244 31 CURVE SMOOTH",
"349 31 OFFCURVE",
"381 47 OFFCURVE",
"380 103 CURVE",
"380 413 LINE SMOOTH",
"380 440 OFFCURVE",
"361 454 OFFCURVE",
"324 454 CURVE SMOOTH",
"295 454 OFFCURVE",
"249 445 OFFCURVE",
"184 426 CURVE"
);
}
);
width = 560;
}
);
leftKerningGroup = b;
note = b;
rightKerningGroup = b;
unicode = 0062;
},
{
glyphname = c;
layers = (
{
layerId = "818F4BA1-BEA0-4BCA-BD8D-F69F95152157";
paths = (
{
closed = 1;
nodes = (
"431 480 OFFCURVE",
"429 472 OFFCURVE",
"424 463 CURVE",
"399 466 OFFCURVE",
"374 468 OFFCURVE",
"349 468 CURVE SMOOTH",
"300 468 OFFCURVE",
"255 461 OFFCURVE",
"216 446 CURVE SMOOTH",
"185 434 OFFCURVE",
"179 421 OFFCURVE",
"179 378 CURVE SMOOTH",
"179 99 LINE SMOOTH",
"179 48 OFFCURVE",
"194 37 OFFCURVE",
"253 37 CURVE SMOOTH",
"305 37 OFFCURVE",
"408 61 OFFCURVE",
"436 72 CURVE",
"439 67 OFFCURVE",
"441 58 OFFCURVE",
"441 47 CURVE SMOOTH",
"441 39 OFFCURVE",
"440 32 OFFCURVE",
"437 27 CURVE",
"357 0 OFFCURVE",
"267 -14 OFFCURVE",
"168 -13 CURVE SMOOTH",
"96 -13 OFFCURVE",
"65 8 OFFCURVE",
"65 60 CURVE SMOOTH",
"65 382 LINE SMOOTH",
"65 442 OFFCURVE",
"80 465 OFFCURVE",
"148 489 CURVE",
"251 520 OFFCURVE",
"379 515 OFFCURVE",
"423 510 CURVE",
"428 501 OFFCURVE",
"431 493 OFFCURVE",
"431 486 CURVE SMOOTH"
);
}
);
width = 464;
}
);
leftKerningGroup = c;
note = c;
rightKerningGroup = c;
unicode = 0063;
},
{
glyphname = ccedilla;
layers = (
{
layerId = "818F4BA1-BEA0-4BCA-BD8D-F69F95152157";
paths = (
{
closed = 1;
nodes = (
"282 -36 LINE",
"337 -39 OFFCURVE",
"367 -66 OFFCURVE",
"367 -102 CURVE SMOOTH",
"367 -151 OFFCURVE",
"308 -211 OFFCURVE",
"243 -214 CURVE",
"225 -201 OFFCURVE",
"216 -186 OFFCURVE",
"216 -170 CURVE SMOOTH",
"216 -164 OFFCURVE",
"220 -161 OFFCURVE",
"229 -160 CURVE SMOOTH",
"273 -156 OFFCURVE",
"299 -132 OFFCURVE",
"299 -109 CURVE SMOOTH",
"299 -86 OFFCURVE",
"281 -75 OFFCURVE",
"246 -74 CURVE SMOOTH",
"235 -74 OFFCURVE",
"231 -69 OFFCURVE",
"233 -60 CURVE",
"247 -10 LINE",
"221 -12 OFFCURVE",
"195 -13 OFFCURVE",
"168 -13 CURVE SMOOTH",
"96 -13 OFFCURVE",
"65 8 OFFCURVE",
"65 60 CURVE SMOOTH",
"65 382 LINE SMOOTH",
"65 442 OFFCURVE",
"80 465 OFFCURVE",
"148 489 CURVE",
"251 520 OFFCURVE",
"379 515 OFFCURVE",
"423 510 CURVE",
"428 501 OFFCURVE",
"431 493 OFFCURVE",
"431 486 CURVE SMOOTH",
"431 480 OFFCURVE",
"429 472 OFFCURVE",
"424 463 CURVE",
"399 466 OFFCURVE",
"374 468 OFFCURVE",
"349 468 CURVE SMOOTH",
"300 468 OFFCURVE",
"255 461 OFFCURVE",
"216 446 CURVE SMOOTH",
"185 434 OFFCURVE",
"179 421 OFFCURVE",
"179 378 CURVE SMOOTH",
"179 99 LINE SMOOTH",
"179 48 OFFCURVE",
"194 37 OFFCURVE",
"253 37 CURVE SMOOTH",
"305 37 OFFCURVE",
"408 61 OFFCURVE",
"436 72 CURVE",
"439 67 OFFCURVE",
"441 58 OFFCURVE",
"441 47 CURVE SMOOTH",
"441 39 OFFCURVE",
"440 32 OFFCURVE",
"437 27 CURVE",
"391 11 OFFCURVE",
"342 0 OFFCURVE",
"291 -6 CURVE"
);
}
);
width = 464;
}
);
leftKerningGroup = c;
note = ccedilla;
rightKerningGroup = c;
unicode = 00E7;
},
{
glyphname = d;
layers = (
{
layerId = "818F4BA1-BEA0-4BCA-BD8D-F69F95152157";
paths = (
{
closed = 1;
nodes = (
"528 -7 OFFCURVE",
"483 -13 OFFCURVE",
"438 -13 CURVE SMOOTH",
"382 -13 OFFCURVE",
"377 -9 OFFCURVE",
"378 30 CURVE",
"371 28 OFFCURVE",
"358 25 OFFCURVE",
"341 20 CURVE SMOOTH",
"306 10 OFFCURVE",
"298 8 OFFCURVE",
"270 1 CURVE SMOOTH",
"241 -6 OFFCURVE",
"225 -8 OFFCURVE",
"201 -11 CURVE",
"189 -12 OFFCURVE",
"178 -13 OFFCURVE",
"167 -13 CURVE SMOOTH",
"94 -13 OFFCURVE",
"66 8 OFFCURVE",
"66 63 CURVE SMOOTH",
"66 397 LINE SMOOTH",
"66 450 OFFCURVE",
"95 481 OFFCURVE",
"154 492 CURVE SMOOTH",
"213 503 OFFCURVE",
"288 511 OFFCURVE",
"378 514 CURVE",
"378 605 LINE SMOOTH",
"378 642 OFFCURVE",
"374 660 OFFCURVE",
"367 660 CURVE SMOOTH",
"298 658 LINE",
"295 663 OFFCURVE",
"294 670 OFFCURVE",
"294 677 CURVE SMOOTH",
"294 682 OFFCURVE",
"295 688 OFFCURVE",
"297 694 CURVE",
"342 707 OFFCURVE",
"387 713 OFFCURVE",
"432 713 CURVE SMOOTH",
"488 713 OFFCURVE",
"493 709 OFFCURVE",
"492 670 CURVE SMOOTH",
"492 95 LINE SMOOTH",
"492 60 OFFCURVE",
"495 42 OFFCURVE",
"502 42 CURVE SMOOTH",
"572 42 LINE",
"575 37 OFFCURVE",
"576 30 OFFCURVE",
"576 23 CURVE SMOOTH",
"576 18 OFFCURVE",
"575 12 OFFCURVE",
"573 6 CURVE"
);
},
{
closed = 1;
nodes = (
"378 468 LINE",
"319 465 OFFCURVE",
"275 461 OFFCURVE",
"247 455 CURVE SMOOTH",
"194 444 OFFCURVE",
"180 433 OFFCURVE",
"180 396 CURVE SMOOTH",
"180 88 LINE SMOOTH",
"180 61 OFFCURVE",
"199 47 OFFCURVE",
"236 47 CURVE SMOOTH",
"263 47 OFFCURVE",
"311 56 OFFCURVE",
"378 75 CURVE"
);
}
);
width = 581;
}
);
leftKerningGroup = c;
note = d;
rightKerningGroup = quotesingle;
unicode = 0064;
},
{
glyphname = eth;
layers = (
{
layerId = "818F4BA1-BEA0-4BCA-BD8D-F69F95152157";
paths = (
{
closed = 1;
nodes = (
"277 654 LINE",
"252 659 OFFCURVE",
"222 662 OFFCURVE",
"187 662 CURVE SMOOTH",
"159 662 OFFCURVE",
"139 661 OFFCURVE",
"128 660 CURVE",
"125 667 OFFCURVE",
"123 674 OFFCURVE",
"123 682 CURVE SMOOTH",
"123 691 OFFCURVE",
"125 700 OFFCURVE",
"129 710 CURVE",
"154 713 OFFCURVE",
"181 714 OFFCURVE",
"212 714 CURVE SMOOTH",
"253 714 OFFCURVE",
"292 711 OFFCURVE",
"329 705 CURVE",
"383 758 LINE",
"408 758 OFFCURVE",
"425 749 OFFCURVE",
"435 730 CURVE",
"393 688 LINE",
"457 665 OFFCURVE",
"489 629 OFFCURVE",
"489 579 CURVE SMOOTH",
"489 99 LINE SMOOTH",
"489 58 OFFCURVE",
"466 30 OFFCURVE",
"420 13 CURVE SMOOTH",
"373 -4 OFFCURVE",
"299 -12 OFFCURVE",
"197 -12 CURVE SMOOTH",
"98 -12 OFFCURVE",
"65 13 OFFCURVE",
"65 97 CURVE SMOOTH",
"65 397 LINE SMOOTH",
"65 450 OFFCURVE",
"93 479 OFFCURVE",
"153 492 CURVE",
"230 505 OFFCURVE",
"304 512 OFFCURVE",
"375 515 CURVE",
"375 574 LINE SMOOTH",
"375 603 OFFCURVE",
"363 624 OFFCURVE",
"340 637 CURVE",
"276 574 LINE",
"251 574 OFFCURVE",
"234 583 OFFCURVE",
"224 602 CURVE"
);
},
{
closed = 1;
nodes = (
"193 443 OFFCURVE",
"179 435 OFFCURVE",
"179 396 CURVE SMOOTH",
"179 108 LINE SMOOTH",
"179 48 OFFCURVE",
"191 31 OFFCURVE",
"239 31 CURVE SMOOTH",
"296 31 OFFCURVE",
"333 37 OFFCURVE",
"350 48 CURVE SMOOTH",
"367 59 OFFCURVE",
"376 77 OFFCURVE",
"375 103 CURVE",
"375 470 LINE",
"324 467 OFFCURVE",
"281 462 OFFCURVE",
"246 455 CURVE SMOOTH"
);
}
);
width = 558;
}
);
leftKerningGroup = c;
note = eth;
rightKerningGroup = quotesingle;
unicode = 00F0;
},
{
glyphname = e;
layers = (
{
layerId = "818F4BA1-BEA0-4BCA-BD8D-F69F95152157";
paths = (
{
closed = 1;
nodes = (
"465 61 OFFCURVE",
"467 53 OFFCURVE",
"467 42 CURVE SMOOTH",
"467 34 OFFCURVE",
"466 27 OFFCURVE",
"463 22 CURVE",
"375 -1 OFFCURVE",
"277 -13 OFFCURVE",
"169 -13 CURVE SMOOTH",
"97 -13 OFFCURVE",
"66 8 OFFCURVE",
"66 60 CURVE SMOOTH",
"66 403 LINE SMOOTH",
"66 444 OFFCURVE",
"88 473 OFFCURVE",
"132 490 CURVE SMOOTH",
"175 506 OFFCURVE",
"245 514 OFFCURVE",
"340 514 CURVE SMOOTH",
"439 514 OFFCURVE",
"470 490 OFFCURVE",
"470 406 CURVE SMOOTH",
"470 335 LINE SMOOTH",
"470 278 OFFCURVE",
"442 249 OFFCURVE",
"382 236 CURVE",
"311 225 OFFCURVE",
"243 217 OFFCURVE",
"180 213 CURVE",
"180 99 LINE SMOOTH",
"180 48 OFFCURVE",
"195 37 OFFCURVE",
"254 37 CURVE SMOOTH",
"313 37 OFFCURVE",
"429 58 OFFCURVE",
"462 67 CURVE"
);
},
{
closed = 1;
nodes = (
"180 259 LINE",
"228 263 OFFCURVE",
"264 268 OFFCURVE",
"289 273 CURVE SMOOTH",
"342 285 OFFCURVE",
"356 294 OFFCURVE",
"356 338 CURVE SMOOTH",
"356 399 LINE SMOOTH",
"356 455 OFFCURVE",
"341 472 OFFCURVE",
"298 472 CURVE SMOOTH",
"202 472 OFFCURVE",
"177 451 OFFCURVE",
"180 399 CURVE"
);
}
);
width = 516;
}
);
leftKerningGroup = c;
note = e;
rightKerningGroup = e;
unicode = 0065;
},
{
glyphname = f;
layers = (
{
layerId = "818F4BA1-BEA0-4BCA-BD8D-F69F95152157";
paths = (
{
closed = 1;
nodes = (
"237 668 OFFCURVE",
"212 649 OFFCURVE",
"213 598 CURVE SMOOTH",
"213 507 LINE",
"291 513 LINE",
"294 503 OFFCURVE",
"296 495 OFFCURVE",
"296 488 CURVE SMOOTH",
"296 480 OFFCURVE",
"295 473 OFFCURVE",
"292 468 CURVE",
"213 462 LINE",
"213 -130 LINE SMOOTH",
"213 -161 OFFCURVE",
"206 -184 OFFCURVE",
"197 -199 CURVE SMOOTH",
"188 -214 OFFCURVE",
"170 -225 OFFCURVE",
"151 -231 CURVE SMOOTH",
"131 -237 OFFCURVE",
"98 -240 OFFCURVE",
"77 -240 CURVE",
"66 -241 OFFCURVE",
"51 -241 OFFCURVE",
"31 -241 CURVE",
"28 -231 OFFCURVE",
"26 -223 OFFCURVE",
"26 -216 CURVE SMOOTH",
"26 -208 OFFCURVE",
"27 -201 OFFCURVE",
"30 -196 CURVE",
"85 -196 OFFCURVE",
"100 -177 OFFCURVE",
"99 -126 CURVE",
"99 455 LINE",
"25 450 LINE",
"22 460 OFFCURVE",
"20 468 OFFCURVE",
"20 475 CURVE SMOOTH",
"20 483 OFFCURVE",
"21 490 OFFCURVE",
"24 495 CURVE",
"99 500 LINE",
"99 602 LINE SMOOTH",
"99 647 OFFCURVE",
"131 678 OFFCURVE",
"179 694 CURVE SMOOTH",
"226 709 OFFCURVE",
"269 713 OFFCURVE",
"321 713 CURVE",
"324 703 OFFCURVE",
"326 695 OFFCURVE",
"326 688 CURVE SMOOTH",
"326 680 OFFCURVE",
"325 673 OFFCURVE",
"322 668 CURVE"
);
}
);
width = 313;
}
);
leftKerningGroup = f;
note = f;
rightKerningGroup = f;
unicode = 0066;
},
{
glyphname = g;
layers = (
{
layerId = "818F4BA1-BEA0-4BCA-BD8D-F69F95152157";
paths = (
{
closed = 1;
nodes = (
"92 -219 OFFCURVE",
"89 -211 OFFCURVE",
"89 -204 CURVE SMOOTH",
"89 -194 OFFCURVE",
"90 -185 OFFCURVE",
"93 -178 CURVE",
"204 -178 OFFCURVE",
"267 -174 OFFCURVE",
"311 -165 CURVE SMOOTH",
"333 -161 OFFCURVE",
"348 -155 OFFCURVE",
"357 -148 CURVE SMOOTH",
"374 -134 OFFCURVE",
"376 -124 OFFCURVE",
"376 -97 CURVE SMOOTH",
"376 30 LINE",
"369 28 OFFCURVE",
"354 24 OFFCURVE",
"333 18 CURVE SMOOTH",
"289 6 OFFCURVE",
"281 4 OFFCURVE",
"249 -3 CURVE SMOOTH",
"217 -11 OFFCURVE",
"192 -13 OFFCURVE",
"167 -13 CURVE SMOOTH",
"94 -13 OFFCURVE",
"66 8 OFFCURVE",
"66 63 CURVE SMOOTH",
"66 403 LINE SMOOTH",
"66 444 OFFCURVE",
"89 473 OFFCURVE",
"136 490 CURVE SMOOTH",
"183 506 OFFCURVE",
"257 514 OFFCURVE",
"360 514 CURVE SMOOTH",
"459 514 OFFCURVE",
"490 490 OFFCURVE",
"490 406 CURVE SMOOTH",
"490 -105 LINE SMOOTH",
"490 -162 OFFCURVE",
"462 -192 OFFCURVE",
"402 -204 CURVE SMOOTH",
"320 -222 OFFCURVE",
"219 -231 OFFCURVE",
"98 -230 CURVE"
);
},
{
closed = 1;
nodes = (
"180 88 LINE SMOOTH",
"180 61 OFFCURVE",
"199 47 OFFCURVE",
"236 47 CURVE SMOOTH",
"265 47 OFFCURVE",
"311 56 OFFCURVE",
"376 75 CURVE",
"376 394 LINE SMOOTH",
"376 454 OFFCURVE",
"362 472 OFFCURVE",
"318 472 CURVE SMOOTH",
"261 472 OFFCURVE",
"223 467 OFFCURVE",
"206 456 CURVE SMOOTH",
"188 445 OFFCURVE",
"179 426 OFFCURVE",
"180 399 CURVE"
);
}
);
width = 560;
}
);
leftKerningGroup = c;
note = g;
rightKerningGroup = g;
unicode = 0067;
},
{
glyphname = h;
layers = (
{
layerId = "818F4BA1-BEA0-4BCA-BD8D-F69F95152157";
paths = (
{
closed = 1;
nodes = (
"527 -7 OFFCURVE",
"482 -13 OFFCURVE",
"437 -13 CURVE SMOOTH",
"381 -13 OFFCURVE",
"376 -9 OFFCURVE",
"377 30 CURVE SMOOTH",
"377 413 LINE SMOOTH",
"377 440 OFFCURVE",
"358 454 OFFCURVE",
"321 454 CURVE SMOOTH",
"294 454 OFFCURVE",
"249 444 OFFCURVE",
"186 425 CURVE",
"186 18 LINE SMOOTH",
"186 9 OFFCURVE",
"181 2 OFFCURVE",
"170 -2 CURVE",
"146 -9 OFFCURVE",
"119 -13 OFFCURVE",
"89 -13 CURVE SMOOTH",
"78 -13 OFFCURVE",
"72 -7 OFFCURVE",
"72 4 CURVE SMOOTH",
"72 605 LINE SMOOTH",
"72 642 OFFCURVE",
"68 660 OFFCURVE",
"61 660 CURVE SMOOTH",
"-8 658 LINE",
"-11 663 OFFCURVE",
"-12 670 OFFCURVE",
"-12 677 CURVE SMOOTH",
"-12 682 OFFCURVE",
"-11 688 OFFCURVE",
"-9 694 CURVE",
"36 707 OFFCURVE",
"81 713 OFFCURVE",
"126 713 CURVE SMOOTH",
"182 713 OFFCURVE",
"187 709 OFFCURVE",
"186 670 CURVE SMOOTH",
"186 471 LINE",
"199 475 OFFCURVE",
"243 488 OFFCURVE",
"258 492 CURVE SMOOTH",
"273 496 OFFCURVE",
"308 504 OFFCURVE",
"326 508 CURVE",
"344 511 OFFCURVE",
"369 514 OFFCURVE",
"390 514 CURVE SMOOTH",
"463 514 OFFCURVE",
"491 493 OFFCURVE",
"491 438 CURVE SMOOTH",
"491 95 LINE SMOOTH",
"491 58 OFFCURVE",
"495 40 OFFCURVE",
"502 40 CURVE SMOOTH",
"571 42 LINE",
"574 37 OFFCURVE",
"575 30 OFFCURVE",
"575 23 CURVE SMOOTH",
"575 18 OFFCURVE",
"574 12 OFFCURVE",
"572 6 CURVE"
);
}
);
width = 582;
}
);
leftKerningGroup = h;
note = h;
rightKerningGroup = h;
unicode = 0068;
},
{
glyphname = i;
layers = (
{
layerId = "818F4BA1-BEA0-4BCA-BD8D-F69F95152157";
paths = (
{
closed = 1;
nodes = (
"244 -7 OFFCURVE",
"199 -13 OFFCURVE",
"154 -13 CURVE SMOOTH",
"98 -13 OFFCURVE",
"93 -9 OFFCURVE",
"94 30 CURVE SMOOTH",
"94 406 LINE SMOOTH",
"94 443 OFFCURVE",
"90 461 OFFCURVE",
"83 461 CURVE SMOOTH",
"14 459 LINE",
"11 464 OFFCURVE",
"10 471 OFFCURVE",
"10 478 CURVE SMOOTH",
"10 483 OFFCURVE",
"11 489 OFFCURVE",
"13 495 CURVE",
"58 508 OFFCURVE",
"103 514 OFFCURVE",
"148 514 CURVE SMOOTH",
"204 514 OFFCURVE",
"209 510 OFFCURVE",
"208 471 CURVE SMOOTH",
"208 95 LINE SMOOTH",
"208 60 OFFCURVE",
"211 42 OFFCURVE",
"218 42 CURVE SMOOTH",
"288 42 LINE",
"291 37 OFFCURVE",
"292 30 OFFCURVE",
"292 23 CURVE SMOOTH",
"292 18 OFFCURVE",
"291 12 OFFCURVE",
"289 6 CURVE"
);
},
{
closed = 1;
nodes = (
"74 679 LINE SMOOTH",
"74 702 OFFCURVE",
"77 707 OFFCURVE",
"94 710 CURVE",
"172 713 LINE",
"183 714 OFFCURVE",
"189 703 OFFCURVE",
"188 681 CURVE",
"188 630 LINE SMOOTH",
"188 607 OFFCURVE",
"185 602 OFFCURVE",
"168 599 CURVE",
"90 596 LINE",
"79 595 OFFCURVE",
"73 606 OFFCURVE",
"74 628 CURVE"
);
}
);
width = 302;
}
);
leftKerningGroup = i;
note = i;
rightKerningGroup = i;
unicode = 0069;
},
{
glyphname = idotless;
layers = (
{
layerId = "818F4BA1-BEA0-4BCA-BD8D-F69F95152157";
paths = (
{
closed = 1;
nodes = (
"244 -7 OFFCURVE",
"199 -13 OFFCURVE",
"154 -13 CURVE SMOOTH",
"98 -13 OFFCURVE",
"93 -9 OFFCURVE",
"94 30 CURVE SMOOTH",
"94 406 LINE SMOOTH",
"94 443 OFFCURVE",
"90 461 OFFCURVE",
"83 461 CURVE SMOOTH",
"14 459 LINE",
"11 464 OFFCURVE",
"10 471 OFFCURVE",
"10 478 CURVE SMOOTH",
"10 483 OFFCURVE",
"11 489 OFFCURVE",
"13 495 CURVE",
"58 508 OFFCURVE",
"103 514 OFFCURVE",
"148 514 CURVE SMOOTH",
"204 514 OFFCURVE",
"209 510 OFFCURVE",
"208 471 CURVE SMOOTH",
"208 95 LINE SMOOTH",
"208 58 OFFCURVE",
"212 40 OFFCURVE",
"219 40 CURVE SMOOTH",
"288 42 LINE",
"291 37 OFFCURVE",
"292 30 OFFCURVE",
"292 23 CURVE SMOOTH",
"292 18 OFFCURVE",
"291 12 OFFCURVE",
"289 6 CURVE"
);
}
);
width = 302;
}
);
leftKerningGroup = i;
note = idotless;
rightKerningGroup = i;
unicode = 0131;
},
{
glyphname = j;
layers = (
{
layerId = "818F4BA1-BEA0-4BCA-BD8D-F69F95152157";
paths = (
{
closed = 1;
nodes = (
"19 459 LINE",
"16 464 OFFCURVE",
"15 471 OFFCURVE",
"15 478 CURVE SMOOTH",
"15 483 OFFCURVE",
"16 489 OFFCURVE",
"18 495 CURVE",
"63 508 OFFCURVE",
"108 514 OFFCURVE",
"153 514 CURVE SMOOTH",
"209 514 OFFCURVE",
"214 510 OFFCURVE",
"213 471 CURVE SMOOTH",
"213 -130 LINE SMOOTH",
"213 -174 OFFCURVE",
"183 -205 OFFCURVE",
"135 -221 CURVE SMOOTH",
"87 -237 OFFCURVE",
"43 -241 OFFCURVE",
"-9 -241 CURVE",
"-12 -231 OFFCURVE",
"-14 -223 OFFCURVE",
"-14 -216 CURVE SMOOTH",
"-14 -208 OFFCURVE",
"-13 -201 OFFCURVE",
"-10 -196 CURVE",
"75 -196 OFFCURVE",
"100 -177 OFFCURVE",
"99 -126 CURVE",
"99 406 LINE SMOOTH",
"99 443 OFFCURVE",
"95 461 OFFCURVE",
"88 461 CURVE SMOOTH"
);
},
{
closed = 1;
nodes = (
"74 679 LINE SMOOTH",
"74 702 OFFCURVE",
"77 707 OFFCURVE",
"94 710 CURVE",
"172 713 LINE",
"183 714 OFFCURVE",
"189 703 OFFCURVE",
"188 681 CURVE",
"188 630 LINE SMOOTH",
"188 607 OFFCURVE",
"185 602 OFFCURVE",
"168 599 CURVE",
"90 596 LINE",
"79 595 OFFCURVE",
"73 606 OFFCURVE",
"74 628 CURVE"
);
}
);
width = 285;
}
);
leftKerningGroup = j;
note = j;
rightKerningGroup = quotesingle;
unicode = 006A;
},
{
glyphname = k;
layers = (
{
layerId = "818F4BA1-BEA0-4BCA-BD8D-F69F95152157";
paths = (
{
closed = 1;
nodes = (
"-8 658 LINE",
"-11 663 OFFCURVE",
"-12 670 OFFCURVE",
"-12 677 CURVE SMOOTH",
"-12 682 OFFCURVE",
"-11 688 OFFCURVE",
"-9 694 CURVE",
"36 707 OFFCURVE",
"81 713 OFFCURVE",
"126 713 CURVE SMOOTH",
"182 713 OFFCURVE",
"187 709 OFFCURVE",
"186 670 CURVE SMOOTH",
"186 476 LINE",
"198 480 OFFCURVE",
"285 505 OFFCURVE",
"322 510 CURVE SMOOTH",
"340 513 OFFCURVE",
"359 514 OFFCURVE",
"378 514 CURVE SMOOTH",
"451 514 OFFCURVE",
"479 493 OFFCURVE",
"479 438 CURVE SMOOTH",
"479 335 LINE SMOOTH",
"479 278 OFFCURVE",
"451 249 OFFCURVE",
"391 236 CURVE SMOOTH",
"371 232 LINE",
"425 95 LINE SMOOTH",
"434 73 OFFCURVE",
"440 58 OFFCURVE",
"445 51 CURVE SMOOTH",
"450 44 OFFCURVE",
"455 40 OFFCURVE",
"460 40 CURVE SMOOTH",
"529 42 LINE",
"532 33 OFFCURVE",
"533 26 OFFCURVE",
"533 22 CURVE SMOOTH",
"533 17 OFFCURVE",
"532 11 OFFCURVE",
"530 6 CURVE",
"485 -7 OFFCURVE",
"440 -13 OFFCURVE",
"395 -13 CURVE SMOOTH",
"371 -13 OFFCURVE",
"357 -13 OFFCURVE",
"350 -5 CURVE",
"343 2 OFFCURVE",
"338 15 OFFCURVE",
"333 30 CURVE",
"260 218 LINE",
"247 216 OFFCURVE",
"222 214 OFFCURVE",
"186 213 CURVE",
"186 18 LINE SMOOTH",
"186 9 OFFCURVE",
"181 2 OFFCURVE",
"170 -2 CURVE",
"146 -9 OFFCURVE",
"119 -13 OFFCURVE",
"89 -13 CURVE SMOOTH",
"78 -13 OFFCURVE",
"72 -7 OFFCURVE",
"72 4 CURVE SMOOTH",
"72 605 LINE SMOOTH",
"72 642 OFFCURVE",
"68 660 OFFCURVE",
"61 660 CURVE SMOOTH"
);
},
{
closed = 1;
nodes = (
"186 259 LINE",
"227 261 OFFCURVE",
"264 266 OFFCURVE",
"298 273 CURVE SMOOTH",
"353 285 OFFCURVE",
"365 294 OFFCURVE",
"365 339 CURVE SMOOTH",
"365 413 LINE SMOOTH",
"365 440 OFFCURVE",
"346 454 OFFCURVE",
"309 454 CURVE SMOOTH",
"280 454 OFFCURVE",
"239 446 OFFCURVE",
"186 430 CURVE"
);
}
);
width = 545;
}
);
leftKerningGroup = h;
note = k;
rightKerningGroup = quotesingle;
unicode = 006B;
},
{
glyphname = l;
layers = (
{
layerId = "818F4BA1-BEA0-4BCA-BD8D-F69F95152157";
paths = (
{
closed = 1;
nodes = (
"233 -7 OFFCURVE",
"188 -13 OFFCURVE",
"143 -13 CURVE SMOOTH",
"87 -13 OFFCURVE",
"82 -9 OFFCURVE",
"83 30 CURVE SMOOTH",
"83 605 LINE SMOOTH",
"83 642 OFFCURVE",
"79 660 OFFCURVE",
"72 660 CURVE SMOOTH",
"3 658 LINE",
"0 663 OFFCURVE",
"-1 670 OFFCURVE",
"-1 677 CURVE SMOOTH",
"-1 682 OFFCURVE",
"0 688 OFFCURVE",
"2 694 CURVE",
"47 707 OFFCURVE",
"92 713 OFFCURVE",
"137 713 CURVE SMOOTH",
"193 713 OFFCURVE",
"198 709 OFFCURVE",
"197 670 CURVE SMOOTH",
"197 95 LINE SMOOTH",
"197 58 OFFCURVE",
"201 40 OFFCURVE",
"208 40 CURVE SMOOTH",
"277 42 LINE",
"280 37 OFFCURVE",
"281 30 OFFCURVE",
"281 23 CURVE SMOOTH",
"281 18 OFFCURVE",
"280 12 OFFCURVE",
"278 6 CURVE"
);
}
);
width = 291;
}
);
note = l;
rightKerningGroup = l;
unicode = 006C;
},
{
glyphname = m;
layers = (
{
layerId = "818F4BA1-BEA0-4BCA-BD8D-F69F95152157";
paths = (
{
closed = 1;
nodes = (
"208 18 LINE SMOOTH",
"208 9 OFFCURVE",
"203 2 OFFCURVE",
"192 -2 CURVE",
"168 -9 OFFCURVE",
"141 -13 OFFCURVE",
"111 -13 CURVE SMOOTH",
"100 -13 OFFCURVE",
"94 -7 OFFCURVE",
"94 4 CURVE SMOOTH",
"94 406 LINE SMOOTH",
"94 443 OFFCURVE",
"90 461 OFFCURVE",
"83 461 CURVE SMOOTH",
"14 459 LINE",
"11 464 OFFCURVE",
"10 471 OFFCURVE",
"10 478 CURVE SMOOTH",
"10 483 OFFCURVE",
"11 489 OFFCURVE",
"13 495 CURVE",
"58 508 OFFCURVE",
"103 514 OFFCURVE",
"148 514 CURVE SMOOTH",
"204 514 OFFCURVE",
"209 510 OFFCURVE",
"208 471 CURVE",
"265 488 OFFCURVE",
"304 498 OFFCURVE",
"326 503 CURVE SMOOTH",
"369 512 OFFCURVE",
"391 514 OFFCURVE",
"412 514 CURVE SMOOTH",
"466 515 OFFCURVE",
"498 500 OFFCURVE",
"508 469 CURVE",
"520 473 OFFCURVE",
"566 486 OFFCURVE",
"581 490 CURVE SMOOTH",
"596 494 OFFCURVE",
"632 504 OFFCURVE",
"651 508 CURVE",
"670 511 OFFCURVE",
"696 514 OFFCURVE",
"717 514 CURVE SMOOTH",
"790 514 OFFCURVE",
"818 493 OFFCURVE",
"818 438 CURVE SMOOTH",
"818 95 LINE SMOOTH",
"818 71 OFFCURVE",
"819 56 OFFCURVE",
"820 50 CURVE SMOOTH",
"821 43 OFFCURVE",
"824 40 OFFCURVE",
"829 40 CURVE SMOOTH",
"898 42 LINE",
"901 34 OFFCURVE",
"902 28 OFFCURVE",
"902 23 CURVE SMOOTH",
"902 19 OFFCURVE",
"901 16 OFFCURVE",
"900 12 CURVE",
"899 9 OFFCURVE",
"899 7 OFFCURVE",
"899 6 CURVE",
"854 -7 OFFCURVE",
"809 -13 OFFCURVE",
"764 -13 CURVE SMOOTH",
"708 -13 OFFCURVE",
"703 -9 OFFCURVE",
"704 30 CURVE SMOOTH",
"704 413 LINE SMOOTH",
"704 440 OFFCURVE",
"685 454 OFFCURVE",
"648 454 CURVE SMOOTH",
"622 454 OFFCURVE",
"577 444 OFFCURVE",
"513 425 CURVE",
"513 18 LINE SMOOTH",
"513 9 OFFCURVE",
"508 2 OFFCURVE",
"497 -2 CURVE",
"473 -9 OFFCURVE",
"446 -13 OFFCURVE",
"416 -13 CURVE SMOOTH",
"405 -13 OFFCURVE",
"399 -7 OFFCURVE",
"399 4 CURVE SMOOTH",
"399 413 LINE SMOOTH",
"399 440 OFFCURVE",
"380 454 OFFCURVE",
"343 454 CURVE SMOOTH",
"316 454 OFFCURVE",
"271 444 OFFCURVE",
"208 425 CURVE"
);
}
);
width = 909;
}
);
leftKerningGroup = m;
note = m;
rightKerningGroup = h;
unicode = 006D;
},
{
glyphname = n;
layers = (
{
layerId = "818F4BA1-BEA0-4BCA-BD8D-F69F95152157";
paths = (
{
closed = 1;
nodes = (
"208 18 LINE SMOOTH",
"208 9 OFFCURVE",
"203 2 OFFCURVE",
"192 -2 CURVE",
"168 -9 OFFCURVE",
"141 -13 OFFCURVE",
"111 -13 CURVE SMOOTH",
"100 -13 OFFCURVE",
"94 -7 OFFCURVE",
"94 4 CURVE SMOOTH",
"94 406 LINE SMOOTH",
"94 443 OFFCURVE",
"90 461 OFFCURVE",
"83 461 CURVE SMOOTH",
"14 459 LINE",
"11 464 OFFCURVE",
"10 471 OFFCURVE",
"10 478 CURVE SMOOTH",
"10 483 OFFCURVE",
"11 489 OFFCURVE",
"13 495 CURVE",
"58 508 OFFCURVE",
"103 514 OFFCURVE",
"148 514 CURVE SMOOTH",
"204 514 OFFCURVE",
"209 510 OFFCURVE",
"208 471 CURVE",
"215 473 OFFCURVE",
"228 477 OFFCURVE",
"245 482 CURVE SMOOTH",
"280 492 OFFCURVE",
"288 493 OFFCURVE",
"317 500 CURVE SMOOTH",
"345 507 OFFCURVE",
"361 509 OFFCURVE",
"385 512 CURVE",
"397 513 OFFCURVE",
"408 514 OFFCURVE",
"419 514 CURVE SMOOTH",
"492 514 OFFCURVE",
"520 493 OFFCURVE",
"520 438 CURVE SMOOTH",
"520 95 LINE SMOOTH",
"520 58 OFFCURVE",
"524 40 OFFCURVE",
"531 40 CURVE SMOOTH",
"600 42 LINE",
"603 37 OFFCURVE",
"604 30 OFFCURVE",
"604 23 CURVE SMOOTH",
"604 18 OFFCURVE",
"603 12 OFFCURVE",
"601 6 CURVE",
"556 -7 OFFCURVE",
"511 -13 OFFCURVE",
"466 -13 CURVE SMOOTH",
"410 -13 OFFCURVE",
"405 -9 OFFCURVE",
"406 30 CURVE SMOOTH",
"406 413 LINE SMOOTH",
"406 440 OFFCURVE",
"387 454 OFFCURVE",
"350 454 CURVE SMOOTH",
"321 454 OFFCURVE",
"274 445 OFFCURVE",
"208 426 CURVE"
);
}
);
width = 611;
}
);
leftKerningGroup = m;
note = n;
rightKerningGroup = h;
unicode = 006E;
},
{
glyphname = o;
layers = (
{
layerId = "818F4BA1-BEA0-4BCA-BD8D-F69F95152157";
paths = (
{
closed = 1;
nodes = (
"489 99 LINE SMOOTH",
"489 58 OFFCURVE",
"466 30 OFFCURVE",
"420 13 CURVE SMOOTH",
"373 -4 OFFCURVE",
"299 -12 OFFCURVE",
"197 -12 CURVE SMOOTH",
"98 -12 OFFCURVE",
"65 13 OFFCURVE",
"65 97 CURVE SMOOTH",
"65 403 LINE SMOOTH",
"65 444 OFFCURVE",
"88 473 OFFCURVE",
"135 490 CURVE SMOOTH",
"182 506 OFFCURVE",
"256 514 OFFCURVE",
"359 514 CURVE SMOOTH",
"458 514 OFFCURVE",
"489 490 OFFCURVE",
"489 406 CURVE SMOOTH"
);
},
{
closed = 1;
nodes = (
"375 394 LINE SMOOTH",
"375 454 OFFCURVE",
"361 472 OFFCURVE",
"317 472 CURVE SMOOTH",
"260 472 OFFCURVE",
"222 467 OFFCURVE",
"205 456 CURVE SMOOTH",
"187 445 OFFCURVE",
"178 426 OFFCURVE",
"179 399 CURVE",
"179 108 LINE SMOOTH",
"179 48 OFFCURVE",
"191 31 OFFCURVE",
"239 31 CURVE SMOOTH",
"297 32 OFFCURVE",
"334 37 OFFCURVE",
"351 48 CURVE SMOOTH",
"368 59 OFFCURVE",
"376 77 OFFCURVE",
"375 103 CURVE"
);
}
);
width = 554;
}
);
leftKerningGroup = c;
note = o;
rightKerningGroup = b;
unicode = 006F;
},
{
glyphname = oslash;
layers = (
{
layerId = "818F4BA1-BEA0-4BCA-BD8D-F69F95152157";
paths = (
{
closed = 1;
nodes = (
"72 75 LINE",
"71 80 OFFCURVE",
"71 87 OFFCURVE",
"71 97 CURVE SMOOTH",
"71 403 LINE SMOOTH",
"71 444 OFFCURVE",
"94 473 OFFCURVE",
"141 490 CURVE SMOOTH",
"188 506 OFFCURVE",
"262 514 OFFCURVE",
"365 514 CURVE SMOOTH",
"420 515 OFFCURVE",
"456 505 OFFCURVE",
"473 485 CURVE",
"505 517 LINE",
"530 517 OFFCURVE",
"547 508 OFFCURVE",
"557 489 CURVE",
"494 427 LINE",
"494 425 OFFCURVE",
"494 422 OFFCURVE",
"495 417 CURVE",
"495 412 OFFCURVE",
"495 409 OFFCURVE",
"495 406 CURVE SMOOTH",
"495 99 LINE SMOOTH",
"495 58 OFFCURVE",
"472 30 OFFCURVE",
"426 13 CURVE SMOOTH",
"379 -4 OFFCURVE",
"305 -12 OFFCURVE",
"203 -12 CURVE SMOOTH",
"148 -12 OFFCURVE",
"112 -2 OFFCURVE",
"93 17 CURVE",
"61 -15 LINE",
"36 -15 OFFCURVE",
"19 -6 OFFCURVE",
"9 13 CURVE"
);
},
{
closed = 1;
nodes = (
"381 307 LINE",
"185 116 LINE",
"185 108 LINE SMOOTH",
"185 48 OFFCURVE",
"197 31 OFFCURVE",
"245 31 CURVE SMOOTH",
"302 31 OFFCURVE",
"339 37 OFFCURVE",
"356 48 CURVE SMOOTH",
"373 59 OFFCURVE",
"382 77 OFFCURVE",
"381 103 CURVE"
);
},
{
closed = 1;
nodes = (
"185 195 LINE",
"381 387 LINE",
"381 394 LINE SMOOTH",
"381 454 OFFCURVE",
"367 472 OFFCURVE",
"323 472 CURVE SMOOTH",
"266 472 OFFCURVE",
"229 467 OFFCURVE",
"211 456 CURVE SMOOTH",
"193 445 OFFCURVE",
"184 426 OFFCURVE",
"185 399 CURVE"
);
}
);
width = 566;
}
);
leftKerningGroup = c;
note = oslash;
rightKerningGroup = b;
unicode = 00F8;
},
{
glyphname = oe;
layers = (
{
layerId = "818F4BA1-BEA0-4BCA-BD8D-F69F95152157";
paths = (
{
closed = 1;
nodes = (
"774 61 OFFCURVE",
"776 53 OFFCURVE",
"776 42 CURVE SMOOTH",
"776 34 OFFCURVE",
"775 27 OFFCURVE",
"772 22 CURVE",
"684 -1 OFFCURVE",
"586 -13 OFFCURVE",
"478 -13 CURVE SMOOTH",
"442 -13 OFFCURVE",
"415 -7 OFFCURVE",
"398 5 CURVE",
"353 -6 OFFCURVE",
"286 -12 OFFCURVE",
"197 -12 CURVE SMOOTH",
"98 -12 OFFCURVE",
"65 13 OFFCURVE",
"65 97 CURVE SMOOTH",
"65 403 LINE SMOOTH",
"65 444 OFFCURVE",
"88 473 OFFCURVE",
"135 490 CURVE SMOOTH",
"182 506 OFFCURVE",
"256 514 OFFCURVE",
"359 514 CURVE SMOOTH",
"406 514 OFFCURVE",
"438 507 OFFCURVE",
"457 494 CURVE",
"500 507 OFFCURVE",
"564 514 OFFCURVE",
"649 514 CURVE SMOOTH",
"748 514 OFFCURVE",
"779 490 OFFCURVE",
"779 406 CURVE SMOOTH",
"779 335 LINE SMOOTH",
"779 278 OFFCURVE",
"751 249 OFFCURVE",
"691 236 CURVE",
"620 225 OFFCURVE",
"552 217 OFFCURVE",
"489 213 CURVE",
"489 99 LINE SMOOTH",
"489 48 OFFCURVE",
"505 36 OFFCURVE",
"570 37 CURVE SMOOTH",
"626 38 OFFCURVE",
"738 58 OFFCURVE",
"771 67 CURVE"
);
},
{
closed = 1;
nodes = (
"375 394 LINE SMOOTH",
"375 454 OFFCURVE",
"361 472 OFFCURVE",
"317 472 CURVE SMOOTH",
"260 472 OFFCURVE",
"222 467 OFFCURVE",
"205 456 CURVE SMOOTH",
"188 445 OFFCURVE",
"179 426 OFFCURVE",
"179 399 CURVE SMOOTH",
"179 108 LINE SMOOTH",
"179 48 OFFCURVE",
"191 31 OFFCURVE",
"239 31 CURVE SMOOTH",
"296 31 OFFCURVE",
"333 37 OFFCURVE",
"350 48 CURVE SMOOTH",
"367 59 OFFCURVE",
"375 77 OFFCURVE",
"375 103 CURVE SMOOTH"
);
},
{
closed = 1;
nodes = (
"489 259 LINE",
"537 263 OFFCURVE",
"573 268 OFFCURVE",
"598 273 CURVE SMOOTH",
"651 285 OFFCURVE",
"665 294 OFFCURVE",
"665 338 CURVE SMOOTH",
"665 399 LINE SMOOTH",
"665 455 OFFCURVE",
"650 472 OFFCURVE",
"607 472 CURVE SMOOTH",
"508 472 OFFCURVE",
"489 452 OFFCURVE",
"489 399 CURVE SMOOTH"
);
}
);
width = 825;
}
);
leftKerningGroup = c;
note = oe;
rightKerningGroup = e;
unicode = 0153;
},
{
glyphname = p;
layers = (
{
layerId = "818F4BA1-BEA0-4BCA-BD8D-F69F95152157";
paths = (
{
closed = 1;
nodes = (
"14 459 LINE",
"11 464 OFFCURVE",
"10 471 OFFCURVE",
"10 478 CURVE SMOOTH",
"10 483 OFFCURVE",
"11 489 OFFCURVE",
"13 495 CURVE",
"58 508 OFFCURVE",
"103 514 OFFCURVE",
"148 514 CURVE SMOOTH",
"204 514 OFFCURVE",
"209 510 OFFCURVE",
"208 471 CURVE",
"215 473 OFFCURVE",
"228 477 OFFCURVE",
"245 482 CURVE SMOOTH",
"280 492 OFFCURVE",
"288 493 OFFCURVE",
"317 500 CURVE SMOOTH",
"345 507 OFFCURVE",
"361 509 OFFCURVE",
"385 512 CURVE",
"397 513 OFFCURVE",
"408 514 OFFCURVE",
"419 514 CURVE SMOOTH",
"492 514 OFFCURVE",
"520 493 OFFCURVE",
"520 438 CURVE SMOOTH",
"520 117 LINE SMOOTH",
"521 62 OFFCURVE",
"491 30 OFFCURVE",
"432 20 CURVE SMOOTH",
"364 7 OFFCURVE",
"289 -2 OFFCURVE",
"208 -5 CURVE",
"208 -210 LINE SMOOTH",
"208 -219 OFFCURVE",
"203 -226 OFFCURVE",
"192 -230 CURVE",
"168 -237 OFFCURVE",
"141 -241 OFFCURVE",
"111 -241 CURVE SMOOTH",
"100 -241 OFFCURVE",
"94 -235 OFFCURVE",
"94 -224 CURVE SMOOTH",
"94 406 LINE SMOOTH",
"94 443 OFFCURVE",
"90 461 OFFCURVE",
"83 461 CURVE SMOOTH"
);
},
{
closed = 1;
nodes = (
"208 40 LINE",
"263 43 OFFCURVE",
"307 48 OFFCURVE",
"339 55 CURVE SMOOTH",
"392 66 OFFCURVE",
"406 76 OFFCURVE",
"406 119 CURVE SMOOTH",
"406 413 LINE SMOOTH",
"406 440 OFFCURVE",
"387 454 OFFCURVE",
"350 454 CURVE SMOOTH",
"328 454 OFFCURVE",
"281 444 OFFCURVE",
"208 425 CURVE"
);
}
);
width = 586;
}
);
leftKerningGroup = m;
note = p;
rightKerningGroup = b;
unicode = 0070;
},
{
glyphname = thorn;
layers = (
{
layerId = "818F4BA1-BEA0-4BCA-BD8D-F69F95152157";
paths = (
{
closed = 1;
nodes = (
"-8 658 LINE",
"-11 663 OFFCURVE",
"-12 670 OFFCURVE",
"-12 677 CURVE SMOOTH",
"-12 682 OFFCURVE",
"-11 688 OFFCURVE",
"-9 694 CURVE",
"36 707 OFFCURVE",
"81 713 OFFCURVE",
"126 713 CURVE SMOOTH",
"182 713 OFFCURVE",
"187 709 OFFCURVE",
"186 670 CURVE SMOOTH",
"186 471 LINE",
"193 473 OFFCURVE",
"206 477 OFFCURVE",
"223 482 CURVE SMOOTH",
"258 492 OFFCURVE",
"266 493 OFFCURVE",
"295 500 CURVE SMOOTH",
"323 507 OFFCURVE",
"339 509 OFFCURVE",
"363 512 CURVE",
"375 513 OFFCURVE",
"386 514 OFFCURVE",
"397 514 CURVE SMOOTH",
"470 514 OFFCURVE",
"498 493 OFFCURVE",
"498 438 CURVE SMOOTH",
"498 117 LINE SMOOTH",
"498 60 OFFCURVE",
"470 30 OFFCURVE",
"410 18 CURVE SMOOTH",
"351 6 OFFCURVE",
"276 -2 OFFCURVE",
"186 -5 CURVE",
"186 -210 LINE SMOOTH",
"186 -219 OFFCURVE",
"181 -226 OFFCURVE",
"170 -230 CURVE",
"146 -237 OFFCURVE",
"119 -241 OFFCURVE",
"89 -241 CURVE SMOOTH",
"78 -241 OFFCURVE",
"72 -235 OFFCURVE",
"72 -224 CURVE SMOOTH",
"72 605 LINE SMOOTH",
"72 642 OFFCURVE",
"68 660 OFFCURVE",
"61 660 CURVE SMOOTH"
);
},
{
closed = 1;
nodes = (
"186 40 LINE",
"241 43 OFFCURVE",
"285 48 OFFCURVE",
"317 55 CURVE SMOOTH",
"372 67 OFFCURVE",
"384 76 OFFCURVE",
"384 121 CURVE SMOOTH",
"384 413 LINE SMOOTH",
"384 440 OFFCURVE",
"365 454 OFFCURVE",
"328 454 CURVE SMOOTH",
"306 454 OFFCURVE",
"259 444 OFFCURVE",
"186 425 CURVE"
);
}
);
width = 564;
}
);
leftKerningGroup = h;
note = thorn;
rightKerningGroup = b;
unicode = 00FE;
},
{
glyphname = q;
layers = (
{
layerId = "818F4BA1-BEA0-4BCA-BD8D-F69F95152157";
paths = (
{
closed = 1;
nodes = (
"490 -210 LINE SMOOTH",
"490 -219 OFFCURVE",
"485 -226 OFFCURVE",
"474 -230 CURVE",
"450 -237 OFFCURVE",
"423 -241 OFFCURVE",
"393 -241 CURVE SMOOTH",
"382 -241 OFFCURVE",
"376 -235 OFFCURVE",
"376 -224 CURVE SMOOTH",
"376 30 LINE",
"369 28 OFFCURVE",
"354 24 OFFCURVE",
"333 18 CURVE SMOOTH",
"289 6 OFFCURVE",
"281 4 OFFCURVE",
"249 -3 CURVE SMOOTH",
"217 -11 OFFCURVE",
"192 -13 OFFCURVE",
"167 -13 CURVE SMOOTH",
"94 -13 OFFCURVE",
"66 8 OFFCURVE",
"66 63 CURVE SMOOTH",
"66 403 LINE SMOOTH",
"66 444 OFFCURVE",
"89 473 OFFCURVE",
"136 490 CURVE SMOOTH",
"183 506 OFFCURVE",
"257 514 OFFCURVE",
"360 514 CURVE SMOOTH",
"459 514 OFFCURVE",
"490 490 OFFCURVE",
"490 406 CURVE SMOOTH"
);
},
{
closed = 1;
nodes = (
"376 396 LINE SMOOTH",
"376 453 OFFCURVE",
"361 472 OFFCURVE",
"318 472 CURVE SMOOTH",
"261 472 OFFCURVE",
"223 467 OFFCURVE",
"206 456 CURVE SMOOTH",
"188 445 OFFCURVE",
"179 426 OFFCURVE",
"180 399 CURVE",
"180 88 LINE SMOOTH",
"180 61 OFFCURVE",
"199 47 OFFCURVE",
"236 47 CURVE SMOOTH",
"262 47 OFFCURVE",
"309 56 OFFCURVE",
"376 75 CURVE"
);
}
);
width = 560;
}
);
leftKerningGroup = c;
note = q;
rightKerningGroup = q;
unicode = 0071;
},
{
glyphname = r;
layers = (
{
layerId = "818F4BA1-BEA0-4BCA-BD8D-F69F95152157";
paths = (
{
closed = 1;
nodes = (
"14 459 LINE",
"11 464 OFFCURVE",
"10 471 OFFCURVE",
"10 478 CURVE SMOOTH",
"10 483 OFFCURVE",
"11 489 OFFCURVE",
"13 495 CURVE",
"58 508 OFFCURVE",
"103 514 OFFCURVE",
"148 514 CURVE SMOOTH",
"204 514 OFFCURVE",
"209 510 OFFCURVE",
"208 471 CURVE",
"275 500 OFFCURVE",
"322 514 OFFCURVE",
"349 514 CURVE SMOOTH",
"422 514 OFFCURVE",
"450 493 OFFCURVE",
"450 438 CURVE SMOOTH",
"450 344 LINE SMOOTH",
"450 335 OFFCURVE",
"445 328 OFFCURVE",
"434 324 CURVE",
"410 317 OFFCURVE",
"383 313 OFFCURVE",
"353 313 CURVE SMOOTH",
"342 313 OFFCURVE",
"336 319 OFFCURVE",
"336 330 CURVE SMOOTH",
"336 413 LINE SMOOTH",
"336 438 OFFCURVE",
"323 450 OFFCURVE",
"297 450 CURVE SMOOTH",
"276 450 OFFCURVE",
"247 442 OFFCURVE",
"208 426 CURVE",
"208 95 LINE SMOOTH",
"208 58 OFFCURVE",
"212 40 OFFCURVE",
"219 40 CURVE SMOOTH",
"288 42 LINE",
"291 37 OFFCURVE",
"292 30 OFFCURVE",
"292 23 CURVE SMOOTH",
"292 18 OFFCURVE",
"291 12 OFFCURVE",
"289 6 CURVE",
"244 -7 OFFCURVE",
"199 -13 OFFCURVE",
"154 -13 CURVE SMOOTH",
"98 -13 OFFCURVE",
"93 -9 OFFCURVE",
"94 30 CURVE SMOOTH",
"94 406 LINE SMOOTH",
"94 443 OFFCURVE",
"90 461 OFFCURVE",
"83 461 CURVE SMOOTH"
);
}
);
width = 471;
}
);
leftKerningGroup = m;
note = r;
rightKerningGroup = r;
unicode = 0072;
},
{
glyphname = s;
layers = (
{
layerId = "818F4BA1-BEA0-4BCA-BD8D-F69F95152157";
paths = (
{
closed = 1;
nodes = (
"28 -2 OFFCURVE",
"26 6 OFFCURVE",
"26 15 CURVE SMOOTH",
"26 22 OFFCURVE",
"27 30 OFFCURVE",
"30 37 CURVE",
"50 34 OFFCURVE",
"87 32 OFFCURVE",
"142 32 CURVE SMOOTH",
"176 32 OFFCURVE",
"200 35 OFFCURVE",
"214 41 CURVE",
"227 46 OFFCURVE",
"234 57 OFFCURVE",
"234 73 CURVE SMOOTH",
"234 80 OFFCURVE",
"229 92 OFFCURVE",
"220 109 CURVE",
"80 330 LINE SMOOTH",
"48 379 OFFCURVE",
"42 397 OFFCURVE",
"42 429 CURVE SMOOTH",
"42 486 OFFCURVE",
"108 515 OFFCURVE",
"239 514 CURVE SMOOTH",
"272 514 OFFCURVE",
"301 513 OFFCURVE",
"324 510 CURVE",
"328 502 OFFCURVE",
"330 494 OFFCURVE",
"330 487 CURVE SMOOTH",
"330 480 OFFCURVE",
"328 473 OFFCURVE",
"325 465 CURVE",
"304 468 OFFCURVE",
"276 469 OFFCURVE",
"239 469 CURVE SMOOTH",
"188 469 OFFCURVE",
"162 456 OFFCURVE",
"162 429 CURVE SMOOTH",
"162 418 OFFCURVE",
"167 405 OFFCURVE",
"178 389 CURVE",
"318 168 LINE SMOOTH",
"341 131 OFFCURVE",
"352 99 OFFCURVE",
"352 73 CURVE SMOOTH",
"352 13 OFFCURVE",
"275 -13 OFFCURVE",
"178 -13 CURVE SMOOTH",
"112 -13 OFFCURVE",
"63 -11 OFFCURVE",
"31 -8 CURVE"
);
}
);
width = 379;
}
);
leftKerningGroup = s;
note = s;
rightKerningGroup = s;
unicode = 0073;
},
{
glyphname = germandbls;
layers = (
{
layerId = "818F4BA1-BEA0-4BCA-BD8D-F69F95152157";
paths = (
{
closed = 1;
nodes = (
"186 -130 LINE SMOOTH",
"186 -161 OFFCURVE",
"179 -184 OFFCURVE",
"170 -199 CURVE SMOOTH",
"161 -215 OFFCURVE",
"140 -227 OFFCURVE",
"124 -232 CURVE SMOOTH",
"107 -237 OFFCURVE",
"71 -240 OFFCURVE",
"50 -240 CURVE",
"39 -241 OFFCURVE",
"24 -241 OFFCURVE",
"4 -241 CURVE",
"1 -231 OFFCURVE",
"-1 -223 OFFCURVE",
"-1 -216 CURVE SMOOTH",
"-1 -208 OFFCURVE",
"0 -201 OFFCURVE",
"3 -196 CURVE",
"58 -196 OFFCURVE",
"73 -177 OFFCURVE",
"72 -126 CURVE",
"72 602 LINE SMOOTH",
"72 677 OFFCURVE",
"153 715 OFFCURVE",
"316 715 CURVE SMOOTH",
"403 715 OFFCURVE",
"436 689 OFFCURVE",
"436 616 CURVE SMOOTH",
"436 535 LINE SMOOTH",
"436 484 OFFCURVE",
"387 439 OFFCURVE",
"318 423 CURVE",
"318 421 LINE",
"401 421 OFFCURVE",
"458 385 OFFCURVE",
"458 314 CURVE SMOOTH",
"458 100 LINE SMOOTH",
"458 21 OFFCURVE",
"410 -13 OFFCURVE",
"306 -13 CURVE SMOOTH",
"272 -13 OFFCURVE",
"240 -11 OFFCURVE",
"210 -7 CURVE",
"207 0 OFFCURVE",
"205 7 OFFCURVE",
"205 16 CURVE SMOOTH",
"205 21 OFFCURVE",
"206 29 OFFCURVE",
"209 38 CURVE",
"225 35 OFFCURVE",
"242 34 OFFCURVE",
"261 34 CURVE SMOOTH",
"329 34 OFFCURVE",
"345 53 OFFCURVE",
"344 102 CURVE",
"344 338 LINE SMOOTH",
"344 373 OFFCURVE",
"305 392 OFFCURVE",
"250 392 CURVE SMOOTH",
"234 392 LINE",
"230 399 OFFCURVE",
"228 407 OFFCURVE",
"228 416 CURVE SMOOTH",
"228 422 OFFCURVE",
"230 429 OFFCURVE",
"233 437 CURVE",
"292 442 OFFCURVE",
"322 474 OFFCURVE",
"322 531 CURVE SMOOTH",
"322 594 LINE SMOOTH",
"322 651 OFFCURVE",
"310 672 OFFCURVE",
"273 672 CURVE SMOOTH",
"218 672 OFFCURVE",
"189 647 OFFCURVE",
"186 598 CURVE"
);
}
);
width = 517;
}
);
leftKerningGroup = h;
note = germandbls;
rightKerningGroup = quotesingle;
unicode = 00DF;
},
{
glyphname = t;
layers = (
{
layerId = "818F4BA1-BEA0-4BCA-BD8D-F69F95152157";
paths = (
{
closed = 1;
nodes = (
"248 -7 OFFCURVE",
"203 -13 OFFCURVE",
"158 -13 CURVE SMOOTH",
"102 -13 OFFCURVE",
"97 -9 OFFCURVE",
"98 30 CURVE SMOOTH",
"98 455 LINE",
"25 450 LINE",
"22 460 OFFCURVE",
"20 468 OFFCURVE",
"20 475 CURVE SMOOTH",
"20 483 OFFCURVE",
"21 490 OFFCURVE",
"24 495 CURVE",
"98 500 LINE",
"98 651 LINE SMOOTH",
"98 660 OFFCURVE",
"103 667 OFFCURVE",
"114 671 CURVE",
"138 678 OFFCURVE",
"165 682 OFFCURVE",
"195 682 CURVE SMOOTH",
"206 682 OFFCURVE",
"212 676 OFFCURVE",
"212 665 CURVE SMOOTH",
"212 507 LINE",
"291 513 LINE",
"294 503 OFFCURVE",
"296 495 OFFCURVE",
"296 488 CURVE SMOOTH",
"296 480 OFFCURVE",
"295 473 OFFCURVE",
"292 468 CURVE",
"212 462 LINE",
"212 95 LINE SMOOTH",
"212 58 OFFCURVE",
"216 40 OFFCURVE",
"223 40 CURVE SMOOTH",
"292 42 LINE",
"295 37 OFFCURVE",
"296 30 OFFCURVE",
"296 23 CURVE SMOOTH",
"296 18 OFFCURVE",
"295 12 OFFCURVE",
"293 6 CURVE"
);
}
);
width = 323;
}
);
leftKerningGroup = t;
note = t;
rightKerningGroup = t;
unicode = 0074;
},
{
glyphname = u;
layers = (
{
layerId = "818F4BA1-BEA0-4BCA-BD8D-F69F95152157";
paths = (
{
closed = 1;
nodes = (
"541 -7 OFFCURVE",
"496 -13 OFFCURVE",
"451 -13 CURVE SMOOTH",
"395 -13 OFFCURVE",
"390 -9 OFFCURVE",
"391 30 CURVE",
"380 27 OFFCURVE",
"333 13 OFFCURVE",
"321 9 CURVE SMOOTH",
"308 5 OFFCURVE",
"272 -4 OFFCURVE",
"255 -7 CURVE SMOOTH",
"238 -10 OFFCURVE",
"212 -13 OFFCURVE",
"192 -13 CURVE SMOOTH",
"119 -13 OFFCURVE",
"91 8 OFFCURVE",
"91 63 CURVE SMOOTH",
"91 406 LINE SMOOTH",
"91 443 OFFCURVE",
"87 461 OFFCURVE",
"80 461 CURVE SMOOTH",
"11 459 LINE",
"8 464 OFFCURVE",
"7 471 OFFCURVE",
"7 478 CURVE SMOOTH",
"7 483 OFFCURVE",
"8 489 OFFCURVE",
"10 495 CURVE",
"55 508 OFFCURVE",
"100 514 OFFCURVE",
"145 514 CURVE SMOOTH",
"201 514 OFFCURVE",
"206 510 OFFCURVE",
"205 471 CURVE SMOOTH",
"205 88 LINE SMOOTH",
"205 61 OFFCURVE",
"224 47 OFFCURVE",
"261 47 CURVE SMOOTH",
"287 47 OFFCURVE",
"330 56 OFFCURVE",
"391 75 CURVE",
"391 406 LINE SMOOTH",
"391 443 OFFCURVE",
"387 461 OFFCURVE",
"380 461 CURVE SMOOTH",
"311 459 LINE",
"308 463 OFFCURVE",
"307 469 OFFCURVE",
"307 478 CURVE SMOOTH",
"307 483 OFFCURVE",
"308 489 OFFCURVE",
"310 495 CURVE",
"355 508 OFFCURVE",
"400 514 OFFCURVE",
"445 514 CURVE SMOOTH",
"500 514 OFFCURVE",
"506 510 OFFCURVE",
"505 471 CURVE SMOOTH",
"505 95 LINE SMOOTH",
"505 71 OFFCURVE",
"506 56 OFFCURVE",
"507 50 CURVE SMOOTH",
"508 43 OFFCURVE",
"511 40 OFFCURVE",
"516 40 CURVE SMOOTH",
"585 42 LINE",
"588 38 OFFCURVE",
"589 32 OFFCURVE",
"589 23 CURVE SMOOTH",
"589 18 OFFCURVE",
"588 13 OFFCURVE",
"586 6 CURVE"
);
}
);
width = 599;
}
);
leftKerningGroup = u;
note = u;
rightKerningGroup = u;
unicode = 0075;
},
{
glyphname = v;
layers = (
{
layerId = "818F4BA1-BEA0-4BCA-BD8D-F69F95152157";
paths = (
{
closed = 1;
nodes = (
"11 459 LINE",
"8 464 OFFCURVE",
"7 470 OFFCURVE",
"7 478 CURVE SMOOTH",
"7 483 OFFCURVE",
"8 489 OFFCURVE",
"10 495 CURVE",
"54 508 OFFCURVE",
"99 514 OFFCURVE",
"145 514 CURVE SMOOTH",
"159 514 OFFCURVE",
"170 514 OFFCURVE",
"178 513 CURVE SMOOTH",
"194 511 OFFCURVE",
"202 505 OFFCURVE",
"204 496 CURVE SMOOTH",
"205 491 OFFCURVE",
"205 483 OFFCURVE",
"205 471 CURVE SMOOTH",
"205 108 LINE SMOOTH",
"205 51 OFFCURVE",
"217 31 OFFCURVE",
"254 31 CURVE SMOOTH",
"354 31 OFFCURVE",
"396 42 OFFCURVE",
"396 133 CURVE SMOOTH",
"396 413 LINE SMOOTH",
"396 431 OFFCURVE",
"395 444 OFFCURVE",
"393 451 CURVE SMOOTH",
"391 458 OFFCURVE",
"386 461 OFFCURVE",
"379 461 CURVE SMOOTH",
"360 461 OFFCURVE",
"334 457 OFFCURVE",
"318 453 CURVE",
"314 462 OFFCURVE",
"312 472 OFFCURVE",
"312 481 CURVE SMOOTH",
"312 484 OFFCURVE",
"312 488 OFFCURVE",
"313 494 CURVE",
"364 509 OFFCURVE",
"403 513 OFFCURVE",
"432 513 CURVE SMOOTH",
"469 513 OFFCURVE",
"490 505 OFFCURVE",
"500 493 CURVE",
"510 480 OFFCURVE",
"510 461 OFFCURVE",
"510 438 CURVE SMOOTH",
"510 129 LINE SMOOTH",
"510 80 OFFCURVE",
"492 45 OFFCURVE",
"449 22 CURVE SMOOTH",
"405 -2 OFFCURVE",
"339 -12 OFFCURVE",
"243 -12 CURVE SMOOTH",
"184 -12 OFFCURVE",
"147 -5 OFFCURVE",
"124 12 CURVE",
"100 28 OFFCURVE",
"91 56 OFFCURVE",
"91 97 CURVE SMOOTH",
"91 406 LINE SMOOTH",
"91 443 OFFCURVE",
"87 461 OFFCURVE",
"80 461 CURVE SMOOTH"
);
}
);
width = 575;
}
);
leftKerningGroup = v;
note = v;
rightKerningGroup = b;
unicode = 0076;
},
{
glyphname = w;
layers = (
{
layerId = "818F4BA1-BEA0-4BCA-BD8D-F69F95152157";
paths = (
{
closed = 1;
nodes = (
"509 108 LINE SMOOTH",
"509 45 OFFCURVE",
"522 31 OFFCURVE",
"558 31 CURVE SMOOTH",
"609 31 OFFCURVE",
"642 36 OFFCURVE",
"663 52 CURVE SMOOTH",
"683 67 OFFCURVE",
"691 92 OFFCURVE",
"691 133 CURVE SMOOTH",
"691 413 LINE SMOOTH",
"691 431 OFFCURVE",
"690 444 OFFCURVE",
"688 451 CURVE SMOOTH",
"686 458 OFFCURVE",
"681 461 OFFCURVE",
"674 461 CURVE SMOOTH",
"655 461 OFFCURVE",
"629 457 OFFCURVE",
"613 453 CURVE",
"609 462 OFFCURVE",
"607 472 OFFCURVE",
"607 481 CURVE SMOOTH",
"607 484 OFFCURVE",
"607 488 OFFCURVE",
"608 494 CURVE",
"659 509 OFFCURVE",
"698 513 OFFCURVE",
"727 513 CURVE SMOOTH",
"764 513 OFFCURVE",
"785 505 OFFCURVE",
"795 493 CURVE",
"805 480 OFFCURVE",
"805 461 OFFCURVE",
"805 438 CURVE SMOOTH",
"805 129 LINE SMOOTH",
"805 80 OFFCURVE",
"789 45 OFFCURVE",
"749 22 CURVE SMOOTH",
"709 -2 OFFCURVE",
"644 -12 OFFCURVE",
"547 -12 CURVE SMOOTH",
"466 -12 OFFCURVE",
"426 -6 OFFCURVE",
"407 25 CURVE",
"375 5 OFFCURVE",
"328 -12 OFFCURVE",
"252 -12 CURVE SMOOTH",
"196 -12 OFFCURVE",
"158 -6 OFFCURVE",
"132 11 CURVE SMOOTH",
"106 27 OFFCURVE",
"94 54 OFFCURVE",
"94 97 CURVE SMOOTH",
"94 406 LINE SMOOTH",
"94 428 OFFCURVE",
"93 443 OFFCURVE",
"91 450 CURVE SMOOTH",
"89 457 OFFCURVE",
"86 461 OFFCURVE",
"83 461 CURVE SMOOTH",
"14 459 LINE",
"11 464 OFFCURVE",
"10 471 OFFCURVE",
"10 478 CURVE SMOOTH",
"10 483 OFFCURVE",
"11 489 OFFCURVE",
"13 495 CURVE",
"52 506 OFFCURVE",
"99 514 OFFCURVE",
"148 514 CURVE SMOOTH",
"162 514 OFFCURVE",
"173 514 OFFCURVE",
"181 513 CURVE SMOOTH",
"197 511 OFFCURVE",
"205 505 OFFCURVE",
"207 494 CURVE SMOOTH",
"208 488 OFFCURVE",
"208 480 OFFCURVE",
"208 471 CURVE SMOOTH",
"208 113 LINE SMOOTH",
"208 57 OFFCURVE",
"224 37 OFFCURVE",
"263 37 CURVE SMOOTH",
"327 37 OFFCURVE",
"368 53 OFFCURVE",
"395 72 CURVE",
"395 413 LINE SMOOTH",
"395 431 OFFCURVE",
"394 444 OFFCURVE",
"392 451 CURVE SMOOTH",
"390 458 OFFCURVE",
"385 461 OFFCURVE",
"378 461 CURVE SMOOTH",
"359 461 OFFCURVE",
"333 457 OFFCURVE",
"317 453 CURVE",
"313 462 OFFCURVE",
"311 472 OFFCURVE",
"311 481 CURVE SMOOTH",
"311 484 OFFCURVE",
"311 488 OFFCURVE",
"312 494 CURVE",
"363 509 OFFCURVE",
"402 513 OFFCURVE",
"431 513 CURVE SMOOTH",
"468 513 OFFCURVE",
"489 505 OFFCURVE",
"499 493 CURVE",
"509 480 OFFCURVE",
"509 461 OFFCURVE",
"509 438 CURVE SMOOTH"
);
}
);
width = 870;
}
);
leftKerningGroup = m;
note = w;
rightKerningGroup = b;
unicode = 0077;
},
{
glyphname = x;
layers = (
{
layerId = "818F4BA1-BEA0-4BCA-BD8D-F69F95152157";
paths = (
{
closed = 1;
nodes = (
"309 275 LINE",
"403 95 LINE",
"420 58 OFFCURVE",
"436 40 OFFCURVE",
"449 40 CURVE SMOOTH",
"518 42 LINE",
"521 33 OFFCURVE",
"522 26 OFFCURVE",
"522 22 CURVE SMOOTH",
"522 17 OFFCURVE",
"521 11 OFFCURVE",
"519 6 CURVE",
"474 -7 OFFCURVE",
"429 -13 OFFCURVE",
"384 -13 CURVE SMOOTH",
"329 -13 OFFCURVE",
"327 -10 OFFCURVE",
"308 30 CURVE",
"227 182 LINE",
"118 -6 LINE",
"107 -12 OFFCURVE",
"96 -15 OFFCURVE",
"86 -15 CURVE SMOOTH",
"75 -15 OFFCURVE",
"64 -12 OFFCURVE",
"53 -6 CURVE",
"196 240 LINE",
"108 408 LINE",
"91 445 OFFCURVE",
"75 463 OFFCURVE",
"62 463 CURVE SMOOTH",
"-7 461 LINE",
"-10 470 OFFCURVE",
"-11 477 OFFCURVE",
"-11 481 CURVE SMOOTH",
"-11 487 OFFCURVE",
"-10 492 OFFCURVE",
"-8 497 CURVE",
"37 510 OFFCURVE",
"82 516 OFFCURVE",
"127 516 CURVE SMOOTH",
"182 516 OFFCURVE",
"187 512 OFFCURVE",
"206 473 CURVE SMOOTH",
"278 334 LINE",
"383 515 LINE",
"396 520 OFFCURVE",
"407 523 OFFCURVE",
"417 523 CURVE SMOOTH",
"427 523 OFFCURVE",
"437 520 OFFCURVE",
"448 515 CURVE"
);
}
);
width = 509;
}
);
leftKerningGroup = x;
note = x;
rightKerningGroup = x;
unicode = 0078;
},
{
glyphname = y;
layers = (
{
layerId = "818F4BA1-BEA0-4BCA-BD8D-F69F95152157";
paths = (
{
closed = 1;
nodes = (
"403 30 LINE",
"396 28 OFFCURVE",
"383 25 OFFCURVE",
"366 20 CURVE SMOOTH",
"331 10 OFFCURVE",
"323 8 OFFCURVE",
"295 1 CURVE SMOOTH",
"266 -6 OFFCURVE",
"250 -8 OFFCURVE",
"226 -11 CURVE",
"214 -12 OFFCURVE",
"203 -13 OFFCURVE",
"192 -13 CURVE SMOOTH",
"119 -13 OFFCURVE",
"91 8 OFFCURVE",
"91 63 CURVE SMOOTH",
"91 406 LINE SMOOTH",
"91 443 OFFCURVE",
"87 461 OFFCURVE",
"80 461 CURVE SMOOTH",
"11 459 LINE",
"8 464 OFFCURVE",
"7 471 OFFCURVE",
"7 478 CURVE SMOOTH",
"7 483 OFFCURVE",
"8 489 OFFCURVE",
"10 495 CURVE",
"55 508 OFFCURVE",
"100 514 OFFCURVE",
"145 514 CURVE SMOOTH",
"201 514 OFFCURVE",
"206 510 OFFCURVE",
"205 471 CURVE SMOOTH",
"205 88 LINE SMOOTH",
"205 61 OFFCURVE",
"224 47 OFFCURVE",
"261 47 CURVE SMOOTH",
"288 47 OFFCURVE",
"336 56 OFFCURVE",
"403 75 CURVE",
"403 406 LINE SMOOTH",
"403 443 OFFCURVE",
"399 461 OFFCURVE",
"392 461 CURVE SMOOTH",
"323 459 LINE",
"320 464 OFFCURVE",
"319 471 OFFCURVE",
"319 478 CURVE SMOOTH",
"319 483 OFFCURVE",
"320 489 OFFCURVE",
"322 495 CURVE",
"367 508 OFFCURVE",
"412 514 OFFCURVE",
"457 514 CURVE SMOOTH",
"513 514 OFFCURVE",
"518 510 OFFCURVE",
"517 471 CURVE SMOOTH",
"517 -105 LINE SMOOTH",
"518 -160 OFFCURVE",
"488 -194 OFFCURVE",
"429 -205 CURVE SMOOTH",
"350 -222 OFFCURVE",
"249 -231 OFFCURVE",
"125 -230 CURVE",
"119 -219 OFFCURVE",
"116 -211 OFFCURVE",
"116 -204 CURVE SMOOTH",
"116 -194 OFFCURVE",
"117 -185 OFFCURVE",
"120 -178 CURVE",
"213 -177 OFFCURVE",
"279 -173 OFFCURVE",
"317 -166 CURVE SMOOTH",
"393 -152 OFFCURVE",
"403 -137 OFFCURVE",
"403 -97 CURVE SMOOTH"
);
}
);
width = 589;
}
);
leftKerningGroup = u;
note = y;
rightKerningGroup = y;
unicode = 0079;
},
{
glyphname = z;
layers = (
{
layerId = "818F4BA1-BEA0-4BCA-BD8D-F69F95152157";
paths = (
{
closed = 1;
nodes = (
"145 45 LINE",
"158 45 LINE SMOOTH",
"241 46 OFFCURVE",
"312 53 OFFCURVE",
"373 67 CURVE",
"378 56 OFFCURVE",
"381 45 OFFCURVE",
"381 34 CURVE SMOOTH",
"381 25 OFFCURVE",
"379 17 OFFCURVE",
"375 9 CURVE",
"308 -6 OFFCURVE",
"239 -14 OFFCURVE",
"167 -14 CURVE SMOOTH",
"118 -14 OFFCURVE",
"71 -9 OFFCURVE",
"28 -1 CURVE",
"23 8 OFFCURVE",
"20 17 OFFCURVE",
"20 26 CURVE SMOOTH",
"20 31 OFFCURVE",
"22 37 OFFCURVE",
"25 44 CURVE",
"231 458 LINE",
"197 459 LINE",
"144 458 OFFCURVE",
"92 453 OFFCURVE",
"41 442 CURVE",
"37 451 OFFCURVE",
"35 460 OFFCURVE",
"35 470 CURVE SMOOTH",
"35 478 OFFCURVE",
"37 487 OFFCURVE",
"41 496 CURVE",
"84 508 OFFCURVE",
"135 514 OFFCURVE",
"194 514 CURVE SMOOTH",
"251 514 OFFCURVE",
"297 510 OFFCURVE",
"352 501 CURVE",
"356 492 OFFCURVE",
"358 483 OFFCURVE",
"358 475 CURVE SMOOTH",
"358 469 OFFCURVE",
"356 463 OFFCURVE",
"353 456 CURVE"
);
}
);
width = 405;
}
);
leftKerningGroup = z;
note = z;
rightKerningGroup = z;
unicode = 007A;
},
{
glyphname = v.001;
layers = (
{
layerId = "818F4BA1-BEA0-4BCA-BD8D-F69F95152157";
paths = (
{
closed = 1;
nodes = (
"11 459 LINE",
"8 464 OFFCURVE",
"7 471 OFFCURVE",
"7 478 CURVE SMOOTH",
"7 483 OFFCURVE",
"8 489 OFFCURVE",
"10 495 CURVE",
"55 508 OFFCURVE",
"100 514 OFFCURVE",
"145 514 CURVE SMOOTH",
"201 514 OFFCURVE",
"206 510 OFFCURVE",
"205 471 CURVE SMOOTH",
"205 108 LINE SMOOTH",
"205 51 OFFCURVE",
"217 31 OFFCURVE",
"254 31 CURVE SMOOTH",
"354 31 OFFCURVE",
"396 54 OFFCURVE",
"396 133 CURVE SMOOTH",
"396 413 LINE SMOOTH",
"396 440 OFFCURVE",
"377 454 OFFCURVE",
"340 454 CURVE SMOOTH",
"310 454 OFFCURVE",
"271 445 OFFCURVE",
"223 426 CURVE",
"220 432 OFFCURVE",
"219 440 OFFCURVE",
"219 449 CURVE SMOOTH",
"219 456 OFFCURVE",
"220 464 OFFCURVE",
"223 471 CURVE",
"260 484 OFFCURVE",
"335 505 OFFCURVE",
"351 508 CURVE SMOOTH",
"366 511 OFFCURVE",
"390 514 OFFCURVE",
"409 514 CURVE SMOOTH",
"482 514 OFFCURVE",
"510 493 OFFCURVE",
"510 438 CURVE SMOOTH",
"510 129 LINE SMOOTH",
"510 30 OFFCURVE",
"435 -12 OFFCURVE",
"243 -12 CURVE SMOOTH",
"127 -12 OFFCURVE",
"91 14 OFFCURVE",
"91 97 CURVE SMOOTH",
"91 406 LINE SMOOTH",
"91 443 OFFCURVE",
"87 461 OFFCURVE",
"80 461 CURVE SMOOTH"
);
}
);
width = 575;
}
);
note = v.001;
},
{
glyphname = w.001;
layers = (
{
layerId = "818F4BA1-BEA0-4BCA-BD8D-F69F95152157";
paths = (
{
closed = 1;
nodes = (
"208 18 LINE SMOOTH",
"208 9 OFFCURVE",
"203 2 OFFCURVE",
"192 -2 CURVE",
"168 -9 OFFCURVE",
"141 -13 OFFCURVE",
"111 -13 CURVE SMOOTH",
"100 -13 OFFCURVE",
"94 -7 OFFCURVE",
"94 4 CURVE SMOOTH",
"94 406 LINE SMOOTH",
"94 443 OFFCURVE",
"90 461 OFFCURVE",
"83 461 CURVE SMOOTH",
"14 459 LINE",
"11 464 OFFCURVE",
"10 471 OFFCURVE",
"10 478 CURVE SMOOTH",
"10 483 OFFCURVE",
"11 489 OFFCURVE",
"13 495 CURVE",
"58 508 OFFCURVE",
"103 514 OFFCURVE",
"148 514 CURVE SMOOTH",
"204 514 OFFCURVE",
"209 510 OFFCURVE",
"208 471 CURVE",
"216 474 OFFCURVE",
"266 488 OFFCURVE",
"278 492 CURVE",
"290 495 OFFCURVE",
"327 505 OFFCURVE",
"343 508 CURVE SMOOTH",
"359 511 OFFCURVE",
"385 514 OFFCURVE",
"405 514 CURVE SMOOTH",
"478 514 OFFCURVE",
"506 493 OFFCURVE",
"506 438 CURVE SMOOTH",
"506 108 LINE SMOOTH",
"506 51 OFFCURVE",
"518 31 OFFCURVE",
"555 31 CURVE SMOOTH",
"662 31 OFFCURVE",
"691 53 OFFCURVE",
"691 133 CURVE SMOOTH",
"691 413 LINE SMOOTH",
"691 442 OFFCURVE",
"677 452 OFFCURVE",
"644 452 CURVE SMOOTH",
"620 452 OFFCURVE",
"555 439 OFFCURVE",
"524 426 CURVE",
"521 434 OFFCURVE",
"519 442 OFFCURVE",
"519 449 CURVE SMOOTH",
"519 456 OFFCURVE",
"521 464 OFFCURVE",
"524 471 CURVE",
"608 500 OFFCURVE",
"669 514 OFFCURVE",
"707 514 CURVE SMOOTH",
"780 514 OFFCURVE",
"805 493 OFFCURVE",
"805 438 CURVE SMOOTH",
"805 129 LINE SMOOTH",
"805 29 OFFCURVE",
"733 -12 OFFCURVE",
"544 -12 CURVE SMOOTH",
"487 -12 OFFCURVE",
"468 -12 OFFCURVE",
"440 -4 CURVE SMOOTH",
"412 3 OFFCURVE",
"400 23 OFFCURVE",
"396 47 CURVE",
"393 58 OFFCURVE",
"392 75 OFFCURVE",
"392 97 CURVE SMOOTH",
"392 413 LINE SMOOTH",
"392 440 OFFCURVE",
"373 454 OFFCURVE",
"336 454 CURVE SMOOTH",
"315 454 OFFCURVE",
"273 444 OFFCURVE",
"208 425 CURVE"
);
}
);
width = 870;
}
);
note = w.001;
},
{
glyphname = ordfeminine;
layers = (
{
layerId = "818F4BA1-BEA0-4BCA-BD8D-F69F95152157";
paths = (
{
closed = 1;
nodes = (
"57 662 OFFCURVE",
"56 669 OFFCURVE",
"56 676 CURVE SMOOTH",
"56 683 OFFCURVE",
"57 689 OFFCURVE",
"59 693 CURVE",
"120 710 OFFCURVE",
"187 719 OFFCURVE",
"258 719 CURVE SMOOTH",
"302 719 OFFCURVE",
"324 703 OFFCURVE",
"324 672 CURVE SMOOTH",
"324 459 LINE SMOOTH",
"324 436 OFFCURVE",
"326 424 OFFCURVE",
"331 424 CURVE SMOOTH",
"375 425 LINE",
"377 421 OFFCURVE",
"378 415 OFFCURVE",
"378 408 CURVE SMOOTH",
"378 401 OFFCURVE",
"377 396 OFFCURVE",
"376 392 CURVE",
"347 384 OFFCURVE",
"318 380 OFFCURVE",
"289 380 CURVE SMOOTH",
"256 380 OFFCURVE",
"251 382 OFFCURVE",
"251 401 CURVE",
"201 387 OFFCURVE",
"156 380 OFFCURVE",
"115 380 CURVE SMOOTH",
"67 380 OFFCURVE",
"50 393 OFFCURVE",
"50 428 CURVE SMOOTH",
"50 519 LINE SMOOTH",
"50 590 OFFCURVE",
"141 594 OFFCURVE",
"246 598 CURVE",
"246 637 LINE SMOOTH",
"246 669 OFFCURVE",
"237 676 OFFCURVE",
"198 676 CURVE SMOOTH",
"158 676 OFFCURVE",
"80 661 OFFCURVE",
"60 654 CURVE"
);
},
{
closed = 1;
nodes = (
"246 558 LINE",
"210 557 OFFCURVE",
"185 554 OFFCURVE",
"171 550 CURVE",
"138 542 OFFCURVE",
"128 536 OFFCURVE",
"128 507 CURVE SMOOTH",
"128 455 LINE SMOOTH",
"128 435 OFFCURVE",
"142 425 OFFCURVE",
"169 425 CURVE SMOOTH",
"186 425 OFFCURVE",
"212 430 OFFCURVE",
"246 440 CURVE"
);
}
);
width = 412;
}
);
note = ordfeminine;
rightKerningGroup = quotesingle;
unicode = 00AA;
},
{
glyphname = ordmasculine;
layers = (
{
layerId = "818F4BA1-BEA0-4BCA-BD8D-F69F95152157";
paths = (
{
closed = 1;
nodes = (
"327 452 LINE SMOOTH",
"327 425 OFFCURVE",
"312 407 OFFCURVE",
"283 396 CURVE SMOOTH",
"253 385 OFFCURVE",
"205 380 OFFCURVE",
"140 380 CURVE SMOOTH",
"76 380 OFFCURVE",
"54 396 OFFCURVE",
"54 451 CURVE SMOOTH",
"54 647 LINE SMOOTH",
"54 674 OFFCURVE",
"69 692 OFFCURVE",
"100 703 CURVE SMOOTH",
"130 714 OFFCURVE",
"178 719 OFFCURVE",
"244 719 CURVE SMOOTH",
"307 719 OFFCURVE",
"327 704 OFFCURVE",
"327 649 CURVE SMOOTH"
);
},
{
closed = 1;
nodes = (
"133 473 LINE SMOOTH",
"133 434 OFFCURVE",
"142 423 OFFCURVE",
"171 423 CURVE SMOOTH",
"236 423 OFFCURVE",
"249 436 OFFCURVE",
"249 469 CURVE SMOOTH",
"249 627 LINE SMOOTH",
"249 666 OFFCURVE",
"239 677 OFFCURVE",
"211 677 CURVE SMOOTH",
"146 677 OFFCURVE",
"133 665 OFFCURVE",
"133 630 CURVE SMOOTH"
);
}
);
width = 379;
}
);
note = ordmasculine;
rightKerningGroup = quotesingle;
unicode = 00BA;
},
{
glyphname = zero;
layers = (
{
layerId = "818F4BA1-BEA0-4BCA-BD8D-F69F95152157";
paths = (
{
closed = 1;
nodes = (
"76 576 LINE SMOOTH",
"76 676 OFFCURVE",
"177 712 OFFCURVE",
"370 715 CURVE SMOOTH",
"462 716 OFFCURVE",
"494 676 OFFCURVE",
"494 579 CURVE SMOOTH",
"494 125 LINE SMOOTH",
"494 74 OFFCURVE",
"471 39 OFFCURVE",
"426 18 CURVE SMOOTH",
"381 -3 OFFCURVE",
"308 -14 OFFCURVE",
"207 -14 CURVE SMOOTH",
"108 -14 OFFCURVE",
"76 22 OFFCURVE",
"76 122 CURVE SMOOTH"
);
},
{
closed = 1;
nodes = (
"380 565 LINE SMOOTH",
"380 634 OFFCURVE",
"361 664 OFFCURVE",
"309 663 CURVE SMOOTH",
"213 659 OFFCURVE",
"189 634 OFFCURVE",
"190 571 CURVE SMOOTH",
"190 126 LINE SMOOTH",
"190 58 OFFCURVE",
"208 37 OFFCURVE",
"263 38 CURVE SMOOTH",
"360 41 OFFCURVE",
"381 62 OFFCURVE",
"380 130 CURVE"
);
}
);
width = 570;
}
);
note = zero;
rightKerningGroup = quotesingle;
unicode = 0030;
},
{
glyphname = one;
layers = (
{
layerId = "818F4BA1-BEA0-4BCA-BD8D-F69F95152157";
paths = (
{
closed = 1;
nodes = (
"272 -7 OFFCURVE",
"227 -13 OFFCURVE",
"182 -13 CURVE SMOOTH",
"126 -13 OFFCURVE",
"121 -9 OFFCURVE",
"122 30 CURVE SMOOTH",
"122 605 LINE SMOOTH",
"122 642 OFFCURVE",
"118 660 OFFCURVE",
"111 660 CURVE SMOOTH",
"12 658 LINE",
"9 663 OFFCURVE",
"8 670 OFFCURVE",
"8 677 CURVE SMOOTH",
"8 682 OFFCURVE",
"9 688 OFFCURVE",
"11 694 CURVE",
"66 707 OFFCURVE",
"121 713 OFFCURVE",
"176 713 CURVE SMOOTH",
"232 713 OFFCURVE",
"237 709 OFFCURVE",
"236 670 CURVE SMOOTH",
"236 95 LINE SMOOTH",
"236 58 OFFCURVE",
"240 40 OFFCURVE",
"247 40 CURVE SMOOTH",
"316 42 LINE",
"319 37 OFFCURVE",
"320 30 OFFCURVE",
"320 23 CURVE SMOOTH",
"320 18 OFFCURVE",
"319 12 OFFCURVE",
"317 6 CURVE"
);
}
);
width = 336;
}
);
leftKerningGroup = one;
note = one;
rightKerningGroup = quotesingle;
unicode = 0031;
},
{
glyphname = two;
layers = (
{
layerId = "818F4BA1-BEA0-4BCA-BD8D-F69F95152157";
paths = (
{
closed = 1;
nodes = (
"138 47 LINE",
"235 51 OFFCURVE",
"300 57 OFFCURVE",
"331 65 CURVE SMOOTH",
"362 72 OFFCURVE",
"377 87 OFFCURVE",
"377 110 CURVE SMOOTH",
"377 183 LINE SMOOTH",
"377 193 OFFCURVE",
"383 200 OFFCURVE",
"394 204 CURVE SMOOTH",
"418 212 OFFCURVE",
"446 216 OFFCURVE",
"479 216 CURVE SMOOTH",
"491 216 OFFCURVE",
"497 210 OFFCURVE",
"497 198 CURVE SMOOTH",
"497 105 LINE SMOOTH",
"497 58 OFFCURVE",
"464 26 OFFCURVE",
"398 10 CURVE SMOOTH",
"331 -7 OFFCURVE",
"220 -14 OFFCURVE",
"65 -13 CURVE",
"50 -3 OFFCURVE",
"43 19 OFFCURVE",
"43 52 CURVE",
"58 71 OFFCURVE",
"81 100 OFFCURVE",
"114 141 CURVE SMOOTH",
"179 222 OFFCURVE",
"217 269 OFFCURVE",
"265 338 CURVE SMOOTH",
"313 406 OFFCURVE",
"340 460 OFFCURVE",
"340 495 CURVE SMOOTH",
"340 571 LINE SMOOTH",
"340 636 OFFCURVE",
"324 668 OFFCURVE",
"279 664 CURVE SMOOTH",
"190 656 OFFCURVE",
"160 634 OFFCURVE",
"160 566 CURVE SMOOTH",
"160 463 LINE SMOOTH",
"160 441 OFFCURVE",
"128 430 OFFCURVE",
"64 430 CURVE SMOOTH",
"52 430 OFFCURVE",
"46 436 OFFCURVE",
"46 448 CURVE SMOOTH",
"46 571 LINE SMOOTH",
"46 627 OFFCURVE",
"76 663 OFFCURVE",
"130 683 CURVE SMOOTH",
"184 703 OFFCURVE",
"243 710 OFFCURVE",
"340 715 CURVE SMOOTH",
"424 720 OFFCURVE",
"451 676 OFFCURVE",
"451 579 CURVE SMOOTH",
"451 490 LINE SMOOTH",
"451 446 OFFCURVE",
"429 398 OFFCURVE",
"385 347 CURVE SMOOTH"
);
}
);
width = 538;
}
);
note = two;
rightKerningGroup = quotesingle;
unicode = 0032;
},
{
glyphname = three;
layers = (
{
layerId = "818F4BA1-BEA0-4BCA-BD8D-F69F95152157";
paths = (
{
closed = 1;
nodes = (
"346 586 LINE SMOOTH",
"346 646 OFFCURVE",
"328 668 OFFCURVE",
"288 664 CURVE SMOOTH",
"201 656 OFFCURVE",
"176 639 OFFCURVE",
"176 571 CURVE SMOOTH",
"176 478 LINE SMOOTH",
"176 456 OFFCURVE",
"144 445 OFFCURVE",
"80 445 CURVE SMOOTH",
"68 445 OFFCURVE",
"62 451 OFFCURVE",
"62 463 CURVE SMOOTH",
"62 576 LINE SMOOTH",
"62 621 OFFCURVE",
"83 654 OFFCURVE",
"115 673 CURVE SMOOTH",
"146 692 OFFCURVE",
"204 704 OFFCURVE",
"253 709 CURVE SMOOTH",
"301 713 OFFCURVE",
"402 729 OFFCURVE",
"432 686 CURVE SMOOTH",
"447 664 OFFCURVE",
"454 628 OFFCURVE",
"454 579 CURVE SMOOTH",
"454 472 LINE SMOOTH",
"454 437 OFFCURVE",
"437 412 OFFCURVE",
"377 397 CURVE",
"377 395 LINE",
"452 382 OFFCURVE",
"470 338 OFFCURVE",
"470 257 CURVE SMOOTH",
"470 125 LINE SMOOTH",
"470 75 OFFCURVE",
"449 41 OFFCURVE",
"408 23 CURVE SMOOTH",
"367 4 OFFCURVE",
"298 -8 OFFCURVE",
"201 -13 CURVE SMOOTH",
"97 -18 OFFCURVE",
"63 18 OFFCURVE",
"63 122 CURVE SMOOTH",
"63 228 LINE",
"64 249 OFFCURVE",
"96 260 OFFCURVE",
"159 261 CURVE SMOOTH",
"171 261 OFFCURVE",
"177 255 OFFCURVE",
"177 243 CURVE SMOOTH",
"177 136 LINE SMOOTH",
"177 59 OFFCURVE",
"194 34 OFFCURVE",
"253 39 CURVE SMOOTH",
"337 46 OFFCURVE",
"360 66 OFFCURVE",
"360 130 CURVE SMOOTH",
"360 253 LINE SMOOTH",
"360 332 OFFCURVE",
"345 355 OFFCURVE",
"297 355 CURVE SMOOTH",
"286 355 OFFCURVE",
"266 353 OFFCURVE",
"238 348 CURVE",
"234 356 OFFCURVE",
"232 366 OFFCURVE",
"232 378 CURVE SMOOTH",
"232 389 OFFCURVE",
"233 399 OFFCURVE",
"236 406 CURVE",
"327 411 OFFCURVE",
"346 431 OFFCURVE",
"346 495 CURVE SMOOTH"
);
}
);
width = 530;
}
);
note = three;
rightKerningGroup = quotesingle;
unicode = 0033;
},
{
glyphname = four;
layers = (
{
layerId = "818F4BA1-BEA0-4BCA-BD8D-F69F95152157";
paths = (
{
closed = 1;
nodes = (
"385 177 LINE",
"385 95 LINE SMOOTH",
"385 58 OFFCURVE",
"389 40 OFFCURVE",
"396 40 CURVE SMOOTH",
"465 42 LINE",
"468 33 OFFCURVE",
"469 26 OFFCURVE",
"469 22 CURVE SMOOTH",
"469 17 OFFCURVE",
"468 11 OFFCURVE",
"466 6 CURVE",
"421 -7 OFFCURVE",
"379 -13 OFFCURVE",
"338 -13 CURVE SMOOTH",
"277 -13 OFFCURVE",
"270 -9 OFFCURVE",
"271 30 CURVE SMOOTH",
"271 167 LINE",
"16 148 LINE",
"12 161 OFFCURVE",
"10 174 OFFCURVE",
"10 186 CURVE SMOOTH",
"10 193 OFFCURVE",
"12 200 OFFCURVE",
"15 208 CURVE",
"268 704 LINE",
"303 716 OFFCURVE",
"342 722 OFFCURVE",
"385 722 CURVE",
"385 237 LINE",
"461 243 LINE",
"465 232 OFFCURVE",
"467 223 OFFCURVE",
"467 215 CURVE SMOOTH",
"467 202 OFFCURVE",
"465 191 OFFCURVE",
"462 183 CURVE"
);
},
{
closed = 1;
nodes = (
"274 604 LINE",
"237 508 LINE",
"96 214 LINE",
"271 228 LINE",
"271 499 LINE",
"276 604 LINE"
);
}
);
width = 501;
}
);
leftKerningGroup = four;
note = four;
rightKerningGroup = quotesingle;
unicode = 0034;
},
{
glyphname = five;
layers = (
{
layerId = "818F4BA1-BEA0-4BCA-BD8D-F69F95152157";
paths = (
{
closed = 1;
nodes = (
"163 225 OFFCURVE",
"169 219 OFFCURVE",
"169 207 CURVE SMOOTH",
"169 136 LINE SMOOTH",
"169 97 OFFCURVE",
"173 71 OFFCURVE",
"182 60 CURVE",
"199 37 OFFCURVE",
"221 40 OFFCURVE",
"270 48 CURVE SMOOTH",
"318 55 OFFCURVE",
"339 67 OFFCURVE",
"339 130 CURVE SMOOTH",
"339 365 LINE SMOOTH",
"339 402 OFFCURVE",
"331 415 OFFCURVE",
"302 416 CURVE",
"265 419 OFFCURVE",
"203 406 OFFCURVE",
"116 379 CURVE",
"105 377 OFFCURVE",
"94 379 OFFCURVE",
"84 384 CURVE",
"84 652 LINE SMOOTH",
"84 670 OFFCURVE",
"100 684 OFFCURVE",
"131 694 CURVE",
"202 714 OFFCURVE",
"305 724 OFFCURVE",
"440 724 CURVE",
"448 708 OFFCURVE",
"448 690 OFFCURVE",
"441 669 CURVE",
"344 669 OFFCURVE",
"260 661 OFFCURVE",
"188 644 CURVE",
"188 455 LINE",
"239 470 OFFCURVE",
"286 478 OFFCURVE",
"331 478 CURVE SMOOTH",
"424 478 OFFCURVE",
"453 448 OFFCURVE",
"453 349 CURVE SMOOTH",
"453 125 LINE SMOOTH",
"453 30 OFFCURVE",
"367 -18 OFFCURVE",
"196 -18 CURVE SMOOTH",
"104 -18 OFFCURVE",
"56 31 OFFCURVE",
"56 122 CURVE SMOOTH",
"56 192 LINE SMOOTH",
"56 202 OFFCURVE",
"62 209 OFFCURVE",
"73 213 CURVE SMOOTH",
"97 221 OFFCURVE",
"123 225 OFFCURVE",
"151 225 CURVE SMOOTH"
);
}
);
width = 513;
}
);
note = five;
rightKerningGroup = quotesingle;
unicode = 0035;
},
{
glyphname = six;
layers = (
{
layerId = "818F4BA1-BEA0-4BCA-BD8D-F69F95152157";
paths = (
{
closed = 1;
nodes = (
"493 125 LINE SMOOTH",
"493 68 OFFCURVE",
"446 28 OFFCURVE",
"376 9 CURVE SMOOTH",
"306 -10 OFFCURVE",
"249 -14 OFFCURVE",
"189 -14 CURVE SMOOTH",
"104 -14 OFFCURVE",
"75 26 OFFCURVE",
"75 122 CURVE SMOOTH",
"75 576 LINE SMOOTH",
"75 667 OFFCURVE",
"175 712 OFFCURVE",
"376 711 CURVE SMOOTH",
"407 711 OFFCURVE",
"434 710 OFFCURVE",
"459 707 CURVE",
"463 698 OFFCURVE",
"465 689 OFFCURVE",
"465 679 CURVE SMOOTH",
"465 672 OFFCURVE",
"463 665 OFFCURVE",
"460 657 CURVE",
"449 658 OFFCURVE",
"429 659 OFFCURVE",
"401 659 CURVE SMOOTH",
"338 659 OFFCURVE",
"284 653 OFFCURVE",
"239 642 CURVE SMOOTH",
"204 634 OFFCURVE",
"188 610 OFFCURVE",
"189 571 CURVE SMOOTH",
"189 446 LINE",
"268 467 OFFCURVE",
"332 478 OFFCURVE",
"382 478 CURVE SMOOTH",
"465 478 OFFCURVE",
"493 435 OFFCURVE",
"493 339 CURVE SMOOTH"
);
},
{
closed = 1;
nodes = (
"189 130 LINE SMOOTH",
"189 66 OFFCURVE",
"205 40 OFFCURVE",
"250 43 CURVE SMOOTH",
"342 48 OFFCURVE",
"379 67 OFFCURVE",
"379 130 CURVE SMOOTH",
"379 325 LINE SMOOTH",
"379 392 OFFCURVE",
"363 421 OFFCURVE",
"320 421 CURVE SMOOTH",
"289 421 OFFCURVE",
"222 407 OFFCURVE",
"189 395 CURVE"
);
}
);
width = 527;
}
);
note = six;
rightKerningGroup = quotesingle;
unicode = 0036;
},
{
glyphname = seven;
layers = (
{
layerId = "818F4BA1-BEA0-4BCA-BD8D-F69F95152157";
paths = (
{
closed = 1;
nodes = (
"260 95 LINE",
"255 83 OFFCURVE",
"253 72 OFFCURVE",
"253 62 CURVE SMOOTH",
"253 47 OFFCURVE",
"259 40 OFFCURVE",
"271 40 CURVE SMOOTH",
"340 42 LINE",
"343 35 OFFCURVE",
"344 29 OFFCURVE",
"344 22 CURVE SMOOTH",
"344 17 OFFCURVE",
"343 11 OFFCURVE",
"341 6 CURVE",
"292 -7 OFFCURVE",
"244 -13 OFFCURVE",
"199 -13 CURVE SMOOTH",
"150 -13 OFFCURVE",
"133 -8 OFFCURVE",
"133 23 CURVE SMOOTH",
"133 37 OFFCURVE",
"136 55 OFFCURVE",
"143 78 CURVE SMOOTH",
"333 669 LINE",
"272 666 OFFCURVE",
"231 662 OFFCURVE",
"209 658 CURVE SMOOTH",
"157 649 OFFCURVE",
"144 622 OFFCURVE",
"144 566 CURVE SMOOTH",
"144 538 LINE SMOOTH",
"144 516 OFFCURVE",
"112 505 OFFCURVE",
"48 505 CURVE SMOOTH",
"36 505 OFFCURVE",
"30 511 OFFCURVE",
"30 523 CURVE SMOOTH",
"30 571 LINE",
"29 655 OFFCURVE",
"42 678 OFFCURVE",
"119 693 CURVE SMOOTH",
"206 708 OFFCURVE",
"284 715 OFFCURVE",
"354 715 CURVE SMOOTH",
"385 715 OFFCURVE",
"412 713 OFFCURVE",
"436 710 CURVE",
"440 701 OFFCURVE",
"442 692 OFFCURVE",
"442 682 CURVE SMOOTH",
"442 677 OFFCURVE",
"440 668 OFFCURVE",
"437 655 CURVE"
);
}
);
width = 455;
}
);
leftKerningGroup = seven;
note = seven;
rightKerningGroup = seven;
unicode = 0037;
},
{
glyphname = eight;
layers = (
{
layerId = "818F4BA1-BEA0-4BCA-BD8D-F69F95152157";
paths = (
{
closed = 1;
nodes = (
"346 577 LINE SMOOTH",
"346 645 OFFCURVE",
"336 663 OFFCURVE",
"292 663 CURVE SMOOTH",
"212 663 OFFCURVE",
"189 644 OFFCURVE",
"189 577 CURVE SMOOTH",
"189 510 LINE SMOOTH",
"189 425 OFFCURVE",
"195 405 OFFCURVE",
"247 408 CURVE SMOOTH",
"328 413 OFFCURVE",
"346 431 OFFCURVE",
"346 495 CURVE SMOOTH"
);
},
{
closed = 1;
nodes = (
"359 254 LINE SMOOTH",
"359 327 OFFCURVE",
"344 357 OFFCURVE",
"289 354 CURVE SMOOTH",
"205 350 OFFCURVE",
"178 331 OFFCURVE",
"178 267 CURVE SMOOTH",
"178 115 LINE SMOOTH",
"178 48 OFFCURVE",
"193 36 OFFCURVE",
"244 39 CURVE SMOOTH",
"339 42 OFFCURVE",
"359 58 OFFCURVE",
"359 127 CURVE SMOOTH"
);
},
{
closed = 1;
nodes = (
"471 126 LINE SMOOTH",
"468 33 OFFCURVE",
"372 -13 OFFCURVE",
"183 -13 CURVE SMOOTH",
"98 -13 OFFCURVE",
"66 27 OFFCURVE",
"66 122 CURVE SMOOTH",
"66 293 LINE SMOOTH",
"66 326 OFFCURVE",
"97 365 OFFCURVE",
"158 380 CURVE",
"158 382 LINE",
"127 387 OFFCURVE",
"108 399 OFFCURVE",
"97 409 CURVE SMOOTH",
"86 419 OFFCURVE",
"82 446 OFFCURVE",
"82 460 CURVE",
"81 467 OFFCURVE",
"81 478 OFFCURVE",
"81 494 CURVE SMOOTH",
"81 583 LINE SMOOTH",
"81 631 OFFCURVE",
"102 663 OFFCURVE",
"130 682 CURVE SMOOTH",
"158 701 OFFCURVE",
"214 710 OFFCURVE",
"259 713 CURVE SMOOTH",
"282 714 OFFCURVE",
"311 715 OFFCURVE",
"346 715 CURVE SMOOTH",
"431 715 OFFCURVE",
"454 681 OFFCURVE",
"454 585 CURVE SMOOTH",
"454 479 LINE SMOOTH",
"454 436 OFFCURVE",
"429 409 OFFCURVE",
"378 397 CURVE",
"378 395 LINE",
"454 383 OFFCURVE",
"471 338 OFFCURVE",
"471 257 CURVE SMOOTH"
);
}
);
width = 536;
}
);
note = eight;
rightKerningGroup = quotesingle;
unicode = 0038;
},
{
glyphname = nine;
layers = (
{
layerId = "818F4BA1-BEA0-4BCA-BD8D-F69F95152157";
paths = (
{
closed = 1;
nodes = (
"55 576 LINE SMOOTH",
"55 679 OFFCURVE",
"132 714 OFFCURVE",
"313 714 CURVE SMOOTH",
"420 714 OFFCURVE",
"453 680 OFFCURVE",
"453 579 CURVE SMOOTH",
"453 122 LINE SMOOTH",
"453 55 OFFCURVE",
"394 15 OFFCURVE",
"316 -1 CURVE SMOOTH",
"277 -9 OFFCURVE",
"232 -13 OFFCURVE",
"182 -13 CURVE SMOOTH",
"151 -13 OFFCURVE",
"124 -12 OFFCURVE",
"99 -9 CURVE",
"95 1 OFFCURVE",
"93 10 OFFCURVE",
"93 19 CURVE SMOOTH",
"93 26 OFFCURVE",
"95 33 OFFCURVE",
"98 41 CURVE",
"109 40 OFFCURVE",
"129 39 OFFCURVE",
"157 39 CURVE SMOOTH",
"244 39 OFFCURVE",
"342 50 OFFCURVE",
"339 127 CURVE",
"339 249 LINE",
"274 230 OFFCURVE",
"216 220 OFFCURVE",
"166 220 CURVE SMOOTH",
"83 220 OFFCURVE",
"55 263 OFFCURVE",
"55 359 CURVE SMOOTH"
);
},
{
closed = 1;
nodes = (
"169 353 LINE SMOOTH",
"169 290 OFFCURVE",
"183 277 OFFCURVE",
"228 277 CURVE SMOOTH",
"265 277 OFFCURVE",
"302 284 OFFCURVE",
"339 297 CURVE",
"339 565 LINE SMOOTH",
"339 646 OFFCURVE",
"326 667 OFFCURVE",
"261 662 CURVE SMOOTH",
"186 657 OFFCURVE",
"169 645 OFFCURVE",
"169 584 CURVE SMOOTH"
);
}
);
width = 529;
}
);
note = nine;
rightKerningGroup = quotesingle;
unicode = 0039;
},
{
glyphname = fraction;
layers = (
{
layerId = "818F4BA1-BEA0-4BCA-BD8D-F69F95152157";
paths = (
{
closed = 1;
nodes = (
"46 -48 LINE",
"23 -46 OFFCURVE",
"5 -36 OFFCURVE",
"-10 -19 CURVE",
"344 766 LINE",
"369 764 OFFCURVE",
"388 754 OFFCURVE",
"400 736 CURVE"
);
}
);
width = 390;
}
);
note = fraction;
unicode = 2044;
},
{
glyphname = onesuperior;
layers = (
{
layerId = "818F4BA1-BEA0-4BCA-BD8D-F69F95152157";
paths = (
{
closed = 1;
nodes = (
"191 294 OFFCURVE",
"158 290 OFFCURVE",
"117 289 CURVE SMOOTH",
"84 289 OFFCURVE",
"81 291 OFFCURVE",
"81 315 CURVE SMOOTH",
"81 647 LINE SMOOTH",
"81 669 OFFCURVE",
"79 680 OFFCURVE",
"74 680 CURVE SMOOTH",
"25 679 LINE",
"24 683 OFFCURVE",
"23 688 OFFCURVE",
"23 695 CURVE SMOOTH",
"23 700 OFFCURVE",
"24 705 OFFCURVE",
"25 710 CURVE",
"54 717 OFFCURVE",
"89 721 OFFCURVE",
"129 721 CURVE SMOOTH",
"164 721 OFFCURVE",
"169 717 OFFCURVE",
"169 696 CURVE SMOOTH",
"169 364 LINE SMOOTH",
"169 342 OFFCURVE",
"171 331 OFFCURVE",
"176 331 CURVE SMOOTH",
"217 332 LINE",
"218 327 OFFCURVE",
"219 321 OFFCURVE",
"219 316 CURVE SMOOTH",
"219 310 OFFCURVE",
"218 305 OFFCURVE",
"217 301 CURVE"
);
}
);
width = 244;
}
);
note = onesuperior;
rightKerningGroup = quotesingle;
unicode = 00B9;
},
{
glyphname = twosuperior;
layers = (
{
layerId = "818F4BA1-BEA0-4BCA-BD8D-F69F95152157";
paths = (
{
closed = 1;
nodes = (
"125 339 LINE",
"176 340 OFFCURVE",
"208 343 OFFCURVE",
"228 347 CURVE SMOOTH",
"247 351 OFFCURVE",
"254 356 OFFCURVE",
"254 365 CURVE SMOOTH",
"254 405 LINE SMOOTH",
"254 410 OFFCURVE",
"257 414 OFFCURVE",
"264 417 CURVE",
"279 422 OFFCURVE",
"310 424 OFFCURVE",
"329 424 CURVE SMOOTH",
"336 424 OFFCURVE",
"339 421 OFFCURVE",
"339 414 CURVE SMOOTH",
"339 359 LINE SMOOTH",
"339 336 OFFCURVE",
"315 319 OFFCURVE",
"267 309 CURVE SMOOTH",
"219 298 OFFCURVE",
"151 293 OFFCURVE",
"62 293 CURVE",
"57 304 OFFCURVE",
"53 315 OFFCURVE",
"53 334 CURVE",
"66 353 OFFCURVE",
"83 374 OFFCURVE",
"103 399 CURVE SMOOTH",
"142 447 OFFCURVE",
"177 499 OFFCURVE",
"206 543 CURVE SMOOTH",
"220 565 OFFCURVE",
"227 583 OFFCURVE",
"227 597 CURVE SMOOTH",
"227 632 LINE SMOOTH",
"227 655 OFFCURVE",
"225 668 OFFCURVE",
"217 674 CURVE SMOOTH",
"209 680 OFFCURVE",
"199 680 OFFCURVE",
"186 679 CURVE SMOOTH",
"154 676 OFFCURVE",
"137 671 OFFCURVE",
"137 632 CURVE SMOOTH",
"137 581 LINE SMOOTH",
"137 573 OFFCURVE",
"125 569 OFFCURVE",
"110 566 CURVE",
"94 562 OFFCURVE",
"75 562 OFFCURVE",
"63 562 CURVE SMOOTH",
"56 562 OFFCURVE",
"53 565 OFFCURVE",
"53 572 CURVE SMOOTH",
"53 640 LINE SMOOTH",
"53 672 OFFCURVE",
"74 693 OFFCURVE",
"107 706 CURVE SMOOTH",
"140 718 OFFCURVE",
"183 722 OFFCURVE",
"232 722 CURVE SMOOTH",
"299 722 OFFCURVE",
"317 697 OFFCURVE",
"317 642 CURVE SMOOTH",
"317 609 LINE SMOOTH",
"317 570 OFFCURVE",
"299 538 OFFCURVE",
"268 503 CURVE SMOOTH"
);
}
);
width = 369;
}
);
note = twosuperior;
rightKerningGroup = quotesingle;
unicode = 00B2;
},
{
glyphname = threesuperior;
layers = (
{
layerId = "818F4BA1-BEA0-4BCA-BD8D-F69F95152157";
paths = (
{
closed = 1;
nodes = (
"222 627 LINE SMOOTH",
"222 664 OFFCURVE",
"214 682 OFFCURVE",
"185 679 CURVE SMOOTH",
"161 676 OFFCURVE",
"148 672 OFFCURVE",
"141 665 CURVE SMOOTH",
"133 657 OFFCURVE",
"133 647 OFFCURVE",
"133 631 CURVE SMOOTH",
"133 582 LINE SMOOTH",
"133 574 OFFCURVE",
"123 569 OFFCURVE",
"110 566 CURVE SMOOTH",
"97 563 OFFCURVE",
"80 562 OFFCURVE",
"67 562 CURVE SMOOTH",
"60 562 OFFCURVE",
"57 566 OFFCURVE",
"57 573 CURVE SMOOTH",
"57 640 LINE SMOOTH",
"57 672 OFFCURVE",
"78 693 OFFCURVE",
"111 705 CURVE SMOOTH",
"144 717 OFFCURVE",
"188 722 OFFCURVE",
"236 723 CURVE SMOOTH",
"283 724 OFFCURVE",
"298 699 OFFCURVE",
"298 643 CURVE SMOOTH",
"298 578 LINE SMOOTH",
"298 561 OFFCURVE",
"294 537 OFFCURVE",
"255 528 CURVE",
"255 526 LINE",
"304 519 OFFCURVE",
"310 491 OFFCURVE",
"310 450 CURVE SMOOTH",
"310 371 LINE SMOOTH",
"310 339 OFFCURVE",
"294 320 OFFCURVE",
"264 308 CURVE SMOOTH",
"234 296 OFFCURVE",
"191 292 OFFCURVE",
"138 289 CURVE SMOOTH",
"74 286 OFFCURVE",
"52 310 OFFCURVE",
"52 370 CURVE SMOOTH",
"52 433 LINE SMOOTH",
"52 441 OFFCURVE",
"62 445 OFFCURVE",
"75 449 CURVE",
"88 452 OFFCURVE",
"105 453 OFFCURVE",
"118 453 CURVE SMOOTH",
"125 453 OFFCURVE",
"128 449 OFFCURVE",
"128 442 CURVE SMOOTH",
"128 388 LINE SMOOTH",
"128 336 OFFCURVE",
"140 327 OFFCURVE",
"175 330 CURVE",
"200 331 OFFCURVE",
"214 336 OFFCURVE",
"220 344 CURVE SMOOTH",
"226 352 OFFCURVE",
"225 365 OFFCURVE",
"225 384 CURVE SMOOTH",
"225 438 LINE SMOOTH",
"225 455 OFFCURVE",
"225 470 OFFCURVE",
"220 481 CURVE SMOOTH",
"215 492 OFFCURVE",
"203 499 OFFCURVE",
"178 499 CURVE SMOOTH",
"174 499 OFFCURVE",
"170 499 OFFCURVE",
"165 499 CURVE SMOOTH",
"160 499 OFFCURVE",
"154 498 OFFCURVE",
"148 497 CURVE",
"145 504 OFFCURVE",
"144 513 OFFCURVE",
"144 520 CURVE SMOOTH",
"144 524 OFFCURVE",
"144 534 OFFCURVE",
"147 538 CURVE",
"179 541 OFFCURVE",
"198 544 OFFCURVE",
"209 552 CURVE",
"220 559 OFFCURVE",
"222 570 OFFCURVE",
"222 589 CURVE SMOOTH"
);
}
);
width = 371;
}
);
note = threesuperior;
rightKerningGroup = quotesingle;
unicode = 00B3;
},
{
glyphname = foursuperior;
layers = (
{
layerId = "818F4BA1-BEA0-4BCA-BD8D-F69F95152157";
paths = (
{
closed = 1;
nodes = (
"264 398 LINE",
"264 354 LINE SMOOTH",
"264 332 OFFCURVE",
"266 321 OFFCURVE",
"270 321 CURVE SMOOTH",
"312 322 LINE",
"313 317 OFFCURVE",
"314 313 OFFCURVE",
"314 310 CURVE SMOOTH",
"314 308 OFFCURVE",
"313 305 OFFCURVE",
"312 301 CURVE",
"286 293 OFFCURVE",
"257 289 OFFCURVE",
"226 289 CURVE SMOOTH",
"187 289 OFFCURVE",
"176 292 OFFCURVE",
"176 315 CURVE SMOOTH",
"176 392 LINE",
"15 381 LINE",
"13 393 OFFCURVE",
"12 400 OFFCURVE",
"12 403 CURVE SMOOTH",
"12 411 OFFCURVE",
"13 417 OFFCURVE",
"15 421 CURVE SMOOTH",
"175 717 LINE",
"196 724 OFFCURVE",
"225 727 OFFCURVE",
"264 727 CURVE",
"264 438 LINE",
"309 442 LINE",
"312 434 OFFCURVE",
"313 427 OFFCURVE",
"313 420 CURVE SMOOTH",
"313 412 OFFCURVE",
"312 406 OFFCURVE",
"310 402 CURVE"
);
},
{
closed = 1;
nodes = (
"179 645 LINE",
"170 617 OFFCURVE",
"162 595 OFFCURVE",
"155 578 CURVE",
"76 426 LINE",
"176 433 LINE",
"176 567 LINE SMOOTH",
"176 584 OFFCURVE",
"177 610 OFFCURVE",
"180 645 CURVE"
);
}
);
width = 350;
}
);
note = foursuperior;
unicode = 2074;
},
{
glyphname = asterisk;
layers = (
{
layerId = "818F4BA1-BEA0-4BCA-BD8D-F69F95152157";
paths = (
{
closed = 1;
nodes = (
"269 506 LINE",
"269 373 LINE SMOOTH",
"269 350 OFFCURVE",
"266 345 OFFCURVE",
"249 342 CURVE SMOOTH",
"228 339 LINE",
"213 338 OFFCURVE",
"210 346 OFFCURVE",
"210 371 CURVE SMOOTH",
"210 506 LINE",
"94 440 LINE",
"85 434 OFFCURVE",
"78 431 OFFCURVE",
"73 431 CURVE SMOOTH",
"68 431 OFFCURVE",
"63 435 OFFCURVE",
"58 442 CURVE",
"45 458 LINE",
"36 470 OFFCURVE",
"42 477 OFFCURVE",
"63 490 CURVE SMOOTH",
"180 557 LINE",
"65 624 LINE SMOOTH",
"45 636 OFFCURVE",
"41 641 OFFCURVE",
"48 657 CURVE SMOOTH",
"56 677 LINE",
"63 690 OFFCURVE",
"70 689 OFFCURVE",
"93 676 CURVE SMOOTH",
"210 608 LINE",
"210 742 LINE SMOOTH",
"210 765 OFFCURVE",
"213 770 OFFCURVE",
"230 773 CURVE SMOOTH",
"251 776 LINE",
"266 777 OFFCURVE",
"269 769 OFFCURVE",
"269 744 CURVE SMOOTH",
"269 608 LINE",
"385 675 LINE",
"394 681 OFFCURVE",
"401 684 OFFCURVE",
"406 684 CURVE SMOOTH",
"411 684 OFFCURVE",
"416 680 OFFCURVE",
"421 673 CURVE",
"434 657 LINE",
"443 645 OFFCURVE",
"437 638 OFFCURVE",
"416 625 CURVE SMOOTH",
"298 557 LINE",
"414 491 LINE SMOOTH",
"434 479 OFFCURVE",
"438 474 OFFCURVE",
"431 458 CURVE SMOOTH",
"423 438 LINE",
"416 425 OFFCURVE",
"409 426 OFFCURVE",
"386 439 CURVE SMOOTH"
);
}
);
width = 476;
}
);
note = asterisk;
rightKerningGroup = asterisk;
unicode = 002A;
},
{
glyphname = backslash;
layers = (
{
layerId = "818F4BA1-BEA0-4BCA-BD8D-F69F95152157";
paths = (
{
closed = 1;
nodes = (
"355 -152 LINE",
"341 -158 OFFCURVE",
"328 -161 OFFCURVE",
"316 -161 CURVE SMOOTH",
"304 -161 OFFCURVE",
"290 -158 OFFCURVE",
"273 -152 CURVE",
"30 764 LINE",
"46 769 OFFCURVE",
"60 772 OFFCURVE",
"72 772 CURVE SMOOTH",
"82 772 OFFCURVE",
"96 769 OFFCURVE",
"113 764 CURVE"
);
}
);
width = 385;
}
);
leftKerningGroup = backslash;
note = backslash;
rightKerningGroup = backslash;
unicode = 005C;
},
{
glyphname = periodcentered;
layers = (
{
layerId = "818F4BA1-BEA0-4BCA-BD8D-F69F95152157";
paths = (
{
closed = 1;
nodes = (
"57 326 LINE SMOOTH",
"57 349 OFFCURVE",
"60 354 OFFCURVE",
"77 357 CURVE",
"153 360 LINE SMOOTH",
"168 361 OFFCURVE",
"171 353 OFFCURVE",
"171 328 CURVE SMOOTH",
"171 277 LINE SMOOTH",
"171 254 OFFCURVE",
"168 249 OFFCURVE",
"151 246 CURVE",
"75 243 LINE SMOOTH",
"60 242 OFFCURVE",
"57 250 OFFCURVE",
"57 275 CURVE SMOOTH"
);
}
);
width = 229;
}
);
note = periodcentered;
rightKerningGroup = quotesingle;
unicode = 00B7;
},
{
glyphname = bullet;
layers = (
{
layerId = "818F4BA1-BEA0-4BCA-BD8D-F69F95152157";
paths = (
{
closed = 1;
nodes = (
"63 404 LINE SMOOTH",
"63 424 OFFCURVE",
"64 437 OFFCURVE",
"69 446 CURVE SMOOTH",
"74 455 OFFCURVE",
"84 460 OFFCURVE",
"101 463 CURVE",
"245 468 LINE",
"273 471 OFFCURVE",
"279 453 OFFCURVE",
"279 408 CURVE SMOOTH",
"279 311 LINE SMOOTH",
"279 272 OFFCURVE",
"276 258 OFFCURVE",
"241 253 CURVE",
"97 247 LINE",
"69 244 OFFCURVE",
"63 262 OFFCURVE",
"63 307 CURVE SMOOTH"
);
}
);
width = 342;
}
);
note = bullet;
rightKerningGroup = quotesingle;
unicode = 2022;
},
{
glyphname = colon;
layers = (
{
layerId = "818F4BA1-BEA0-4BCA-BD8D-F69F95152157";
paths = (
{
closed = 1;
nodes = (
"58 74 LINE SMOOTH",
"58 97 OFFCURVE",
"61 102 OFFCURVE",
"78 105 CURVE",
"154 108 LINE SMOOTH",
"169 109 OFFCURVE",
"172 101 OFFCURVE",
"172 76 CURVE SMOOTH",
"172 25 LINE SMOOTH",
"172 2 OFFCURVE",
"169 -3 OFFCURVE",
"152 -6 CURVE",
"76 -9 LINE SMOOTH",
"61 -10 OFFCURVE",
"58 -2 OFFCURVE",
"58 23 CURVE SMOOTH"
);
},
{
closed = 1;
nodes = (
"58 498 LINE SMOOTH",
"58 521 OFFCURVE",
"61 526 OFFCURVE",
"78 529 CURVE",
"154 532 LINE SMOOTH",
"169 533 OFFCURVE",
"172 525 OFFCURVE",
"172 500 CURVE SMOOTH",
"172 449 LINE SMOOTH",
"172 426 OFFCURVE",
"169 421 OFFCURVE",
"152 418 CURVE",
"76 415 LINE SMOOTH",
"61 414 OFFCURVE",
"58 422 OFFCURVE",
"58 447 CURVE SMOOTH"
);
}
);
width = 229;
}
);
leftKerningGroup = colon;
note = colon;
rightKerningGroup = quotesingle;
unicode = 003A;
},
{
glyphname = comma;
layers = (
{
layerId = "818F4BA1-BEA0-4BCA-BD8D-F69F95152157";
paths = (
{
closed = 1;
nodes = (
"167 25 LINE SMOOTH",
"167 -56 OFFCURVE",
"126 -106 OFFCURVE",
"44 -127 CURVE",
"25 -104 OFFCURVE",
"23 -103 OFFCURVE",
"23 -88 CURVE",
"62 -72 OFFCURVE",
"102 -38 OFFCURVE",
"103 -7 CURVE",
"71 -9 LINE SMOOTH",
"56 -10 OFFCURVE",
"53 -2 OFFCURVE",
"53 23 CURVE SMOOTH",
"53 74 LINE SMOOTH",
"53 97 OFFCURVE",
"56 102 OFFCURVE",
"73 105 CURVE",
"149 108 LINE SMOOTH",
"164 109 OFFCURVE",
"167 101 OFFCURVE",
"167 76 CURVE SMOOTH"
);
}
);
width = 222;
}
);
leftKerningGroup = comma;
note = comma;
rightKerningGroup = comma;
unicode = 002C;
},
{
glyphname = exclam;
layers = (
{
layerId = "818F4BA1-BEA0-4BCA-BD8D-F69F95152157";
paths = (
{
closed = 1;
nodes = (
"25 658 LINE",
"22 663 OFFCURVE",
"21 670 OFFCURVE",
"21 677 CURVE SMOOTH",
"21 682 OFFCURVE",
"22 688 OFFCURVE",
"24 694 CURVE",
"69 707 OFFCURVE",
"114 713 OFFCURVE",
"159 713 CURVE SMOOTH",
"215 713 OFFCURVE",
"220 709 OFFCURVE",
"219 670 CURVE SMOOTH",
"219 198 LINE SMOOTH",
"219 189 OFFCURVE",
"214 182 OFFCURVE",
"203 178 CURVE",
"179 171 OFFCURVE",
"152 167 OFFCURVE",
"122 167 CURVE SMOOTH",
"111 167 OFFCURVE",
"105 173 OFFCURVE",
"105 184 CURVE SMOOTH",
"105 620 LINE",
"104 647 OFFCURVE",
"101 660 OFFCURVE",
"94 660 CURVE SMOOTH"
);
},
{
closed = 1;
nodes = (
"104 74 LINE SMOOTH",
"104 97 OFFCURVE",
"107 102 OFFCURVE",
"124 105 CURVE",
"200 108 LINE SMOOTH",
"215 109 OFFCURVE",
"218 101 OFFCURVE",
"218 76 CURVE SMOOTH",
"218 25 LINE SMOOTH",
"218 2 OFFCURVE",
"215 -3 OFFCURVE",
"198 -6 CURVE",
"122 -9 LINE SMOOTH",
"107 -10 OFFCURVE",
"104 -2 OFFCURVE",
"104 23 CURVE SMOOTH"
);
}
);
width = 296;
}
);
leftKerningGroup = exclam;
note = exclam;
unicode = 0021;
},
{
glyphname = numbersign;
layers = (
{
layerId = "818F4BA1-BEA0-4BCA-BD8D-F69F95152157";
paths = (
{
closed = 1;
nodes = (
"371 218 LINE",
"224 206 LINE",
"214 -10 LINE",
"196 -18 OFFCURVE",
"180 -22 OFFCURVE",
"167 -22 CURVE SMOOTH",
"156 -22 OFFCURVE",
"145 -20 OFFCURVE",
"136 -15 CURVE",
"146 199 LINE",
"41 190 LINE",
"36 201 OFFCURVE",
"33 214 OFFCURVE",
"33 229 CURVE SMOOTH",
"33 238 OFFCURVE",
"34 246 OFFCURVE",
"36 254 CURVE",
"149 264 LINE",
"156 410 LINE",
"52 401 LINE",
"47 412 OFFCURVE",
"44 425 OFFCURVE",
"44 440 CURVE SMOOTH",
"44 449 OFFCURVE",
"45 457 OFFCURVE",
"47 465 CURVE",
"159 474 LINE",
"169 678 LINE",
"183 685 OFFCURVE",
"198 688 OFFCURVE",
"213 688 CURVE SMOOTH",
"224 688 OFFCURVE",
"235 686 OFFCURVE",
"247 683 CURVE",
"237 481 LINE",
"384 494 LINE",
"394 698 LINE",
"408 705 OFFCURVE",
"423 708 OFFCURVE",
"438 708 CURVE SMOOTH",
"449 708 OFFCURVE",
"460 706 OFFCURVE",
"472 703 CURVE",
"462 501 LINE",
"566 510 LINE",
"572 498 OFFCURVE",
"575 484 OFFCURVE",
"575 469 CURVE SMOOTH",
"575 459 OFFCURVE",
"574 451 OFFCURVE",
"573 446 CURVE",
"459 436 LINE",
"452 290 LINE",
"555 299 LINE",
"561 287 OFFCURVE",
"564 273 OFFCURVE",
"564 258 CURVE SMOOTH",
"564 248 OFFCURVE",
"563 240 OFFCURVE",
"562 235 CURVE",
"449 225 LINE",
"439 10 LINE",
"421 2 OFFCURVE",
"405 -2 OFFCURVE",
"392 -2 CURVE SMOOTH",
"381 -2 OFFCURVE",
"370 0 OFFCURVE",
"361 5 CURVE"
);
},
{
closed = 1;
nodes = (
"234 417 LINE",
"227 271 LINE",
"374 283 LINE",
"381 429 LINE"
);
}
);
width = 608;
}
);
note = numbersign;
unicode = 0023;
},
{
glyphname = period;
layers = (
{
layerId = "818F4BA1-BEA0-4BCA-BD8D-F69F95152157";
paths = (
{
closed = 1;
nodes = (
"53 74 LINE SMOOTH",
"53 97 OFFCURVE",
"56 102 OFFCURVE",
"73 105 CURVE",
"149 108 LINE SMOOTH",
"164 109 OFFCURVE",
"167 101 OFFCURVE",
"167 76 CURVE SMOOTH",
"167 25 LINE SMOOTH",
"167 2 OFFCURVE",
"164 -3 OFFCURVE",
"147 -6 CURVE",
"71 -9 LINE SMOOTH",
"56 -10 OFFCURVE",
"53 -2 OFFCURVE",
"53 23 CURVE SMOOTH"
);
}
);
width = 221;
}
);
leftKerningGroup = comma;
note = period;
rightKerningGroup = comma;
unicode = 002E;
},
{
glyphname = question;
layers = (
{
layerId = "818F4BA1-BEA0-4BCA-BD8D-F69F95152157";
paths = (
{
closed = 1;
nodes = (
"328 571 LINE SMOOTH",
"328 634 OFFCURVE",
"312 658 OFFCURVE",
"267 658 CURVE SMOOTH",
"238 658 OFFCURVE",
"204 651 OFFCURVE",
"178 625 CURVE SMOOTH",
"165 612 OFFCURVE",
"158 594 OFFCURVE",
"158 571 CURVE SMOOTH",
"158 478 LINE SMOOTH",
"158 457 OFFCURVE",
"124 446 OFFCURVE",
"56 445 CURVE SMOOTH",
"44 445 OFFCURVE",
"38 451 OFFCURVE",
"38 463 CURVE SMOOTH",
"38 576 LINE SMOOTH",
"38 633 OFFCURVE",
"83 672 OFFCURVE",
"148 692 CURVE SMOOTH",
"213 711 OFFCURVE",
"268 715 OFFCURVE",
"328 715 CURVE SMOOTH",
"415 715 OFFCURVE",
"448 674 OFFCURVE",
"448 579 CURVE SMOOTH",
"448 535 OFFCURVE",
"405 470 OFFCURVE",
"362 421 CURVE SMOOTH",
"319 372 OFFCURVE",
"275 313 OFFCURVE",
"275 280 CURVE SMOOTH",
"275 200 LINE SMOOTH",
"275 178 OFFCURVE",
"247 167 OFFCURVE",
"190 167 CURVE SMOOTH",
"178 167 OFFCURVE",
"172 173 OFFCURVE",
"172 185 CURVE SMOOTH",
"172 281 LINE SMOOTH",
"172 325 OFFCURVE",
"237 413 OFFCURVE",
"289 483 CURVE SMOOTH",
"315 518 OFFCURVE",
"328 544 OFFCURVE",
"328 561 CURVE SMOOTH"
);
},
{
closed = 1;
nodes = (
"168 74 LINE SMOOTH",
"168 97 OFFCURVE",
"171 102 OFFCURVE",
"188 105 CURVE",
"264 108 LINE SMOOTH",
"279 109 OFFCURVE",
"282 101 OFFCURVE",
"282 76 CURVE SMOOTH",
"282 25 LINE SMOOTH",
"282 2 OFFCURVE",
"279 -3 OFFCURVE",
"262 -6 CURVE",
"186 -9 LINE SMOOTH",
"171 -10 OFFCURVE",
"168 -2 OFFCURVE",
"168 23 CURVE SMOOTH"
);
}
);
width = 478;
}
);
note = question;
rightKerningGroup = quotesingle;
unicode = 003F;
},
{
glyphname = quotedbl;
layers = (
{
layerId = "818F4BA1-BEA0-4BCA-BD8D-F69F95152157";
paths = (
{
closed = 1;
nodes = (
"54 694 LINE SMOOTH",
"54 717 OFFCURVE",
"57 722 OFFCURVE",
"74 725 CURVE",
"125 728 LINE SMOOTH",
"140 729 OFFCURVE",
"143 721 OFFCURVE",
"143 696 CURVE SMOOTH",
"143 535 LINE SMOOTH",
"143 512 OFFCURVE",
"140 507 OFFCURVE",
"123 504 CURVE",
"72 501 LINE SMOOTH",
"57 500 OFFCURVE",
"54 508 OFFCURVE",
"54 533 CURVE SMOOTH"
);
},
{
closed = 1;
nodes = (
"223 694 LINE SMOOTH",
"223 717 OFFCURVE",
"226 722 OFFCURVE",
"243 725 CURVE",
"294 728 LINE SMOOTH",
"309 729 OFFCURVE",
"312 721 OFFCURVE",
"312 696 CURVE SMOOTH",
"312 535 LINE SMOOTH",
"312 512 OFFCURVE",
"309 507 OFFCURVE",
"292 504 CURVE",
"241 501 LINE SMOOTH",
"226 500 OFFCURVE",
"223 508 OFFCURVE",
"223 533 CURVE SMOOTH"
);
}
);
width = 366;
}
);
leftKerningGroup = quotedbl;
note = quotedbl;
unicode = 0022;
},
{
glyphname = quotesingle;
layers = (
{
layerId = "818F4BA1-BEA0-4BCA-BD8D-F69F95152157";
paths = (
{
closed = 1;
nodes = (
"54 694 LINE SMOOTH",
"54 717 OFFCURVE",
"57 722 OFFCURVE",
"74 725 CURVE",
"125 728 LINE SMOOTH",
"140 729 OFFCURVE",
"143 721 OFFCURVE",
"143 696 CURVE SMOOTH",
"143 535 LINE SMOOTH",
"143 512 OFFCURVE",
"140 507 OFFCURVE",
"123 504 CURVE",
"72 501 LINE SMOOTH",
"57 500 OFFCURVE",
"54 508 OFFCURVE",
"54 533 CURVE SMOOTH"
);
}
);
width = 197;
}
);
leftKerningGroup = quotedbl;
note = quotesingle;
rightKerningGroup = quotesingle;
unicode = 0027;
},
{
glyphname = semicolon;
layers = (
{
layerId = "818F4BA1-BEA0-4BCA-BD8D-F69F95152157";
paths = (
{
closed = 1;
nodes = (
"76 498 LINE SMOOTH",
"76 521 OFFCURVE",
"79 526 OFFCURVE",
"96 529 CURVE",
"172 532 LINE SMOOTH",
"187 533 OFFCURVE",
"190 525 OFFCURVE",
"190 500 CURVE SMOOTH",
"190 449 LINE SMOOTH",
"190 426 OFFCURVE",
"187 421 OFFCURVE",
"170 418 CURVE",
"94 415 LINE SMOOTH",
"79 414 OFFCURVE",
"76 422 OFFCURVE",
"76 447 CURVE SMOOTH"
);
},
{
closed = 1;
nodes = (
"188 25 LINE SMOOTH",
"188 -56 OFFCURVE",
"147 -106 OFFCURVE",
"65 -127 CURVE",
"46 -104 OFFCURVE",
"44 -103 OFFCURVE",
"44 -88 CURVE",
"83 -72 OFFCURVE",
"123 -38 OFFCURVE",
"124 -7 CURVE",
"92 -9 LINE SMOOTH",
"77 -10 OFFCURVE",
"74 -2 OFFCURVE",
"74 23 CURVE SMOOTH",
"74 74 LINE SMOOTH",
"74 97 OFFCURVE",
"77 102 OFFCURVE",
"94 105 CURVE",
"170 108 LINE SMOOTH",
"185 109 OFFCURVE",
"188 101 OFFCURVE",
"188 76 CURVE SMOOTH"
);
}
);
width = 255;
}
);
leftKerningGroup = colon;
note = semicolon;
rightKerningGroup = quotesingle;
unicode = 003B;
},
{
glyphname = slash;
layers = (
{
layerId = "818F4BA1-BEA0-4BCA-BD8D-F69F95152157";
paths = (
{
closed = 1;
nodes = (
"272 764 LINE",
"289 769 OFFCURVE",
"303 772 OFFCURVE",
"313 772 CURVE SMOOTH",
"325 772 OFFCURVE",
"339 769 OFFCURVE",
"355 764 CURVE",
"112 -152 LINE",
"95 -158 OFFCURVE",
"80 -161 OFFCURVE",
"69 -161 CURVE SMOOTH",
"57 -161 OFFCURVE",
"44 -158 OFFCURVE",
"30 -152 CURVE"
);
}
);
width = 385;
}
);
leftKerningGroup = slash;
note = slash;
rightKerningGroup = slash;
unicode = 002F;
},
{
glyphname = underscore;
layers = (
{
layerId = "818F4BA1-BEA0-4BCA-BD8D-F69F95152157";
paths = (
{
closed = 1;
nodes = (
"6 -377 LINE",
"2 -362 OFFCURVE",
"0 -347 OFFCURVE",
"0 -334 CURVE SMOOTH",
"0 -324 OFFCURVE",
"2 -313 OFFCURVE",
"5 -302 CURVE",
"34 -301 OFFCURVE",
"98 -298 OFFCURVE",
"199 -295 CURVE SMOOTH",
"300 -292 OFFCURVE",
"365 -289 OFFCURVE",
"394 -288 CURVE",
"397 -303 OFFCURVE",
"399 -315 OFFCURVE",
"399 -326 CURVE SMOOTH",
"399 -339 OFFCURVE",
"398 -352 OFFCURVE",
"395 -363 CURVE"
);
}
);
width = 399;
}
);
note = underscore;
rightKerningGroup = quotesingle;
unicode = 005F;
},
{
glyphname = braceleft;
layers = (
{
layerId = "818F4BA1-BEA0-4BCA-BD8D-F69F95152157";
paths = (
{
closed = 1;
nodes = (
"121 659 LINE SMOOTH",
"121 712 OFFCURVE",
"134 745 OFFCURVE",
"163 757 CURVE SMOOTH",
"191 769 OFFCURVE",
"213 770 OFFCURVE",
"281 770 CURVE",
"284 760 OFFCURVE",
"286 752 OFFCURVE",
"286 745 CURVE SMOOTH",
"286 737 OFFCURVE",
"285 730 OFFCURVE",
"282 725 CURVE",
"227 725 OFFCURVE",
"212 706 OFFCURVE",
"213 655 CURVE SMOOTH",
"213 441 LINE SMOOTH",
"212 372 OFFCURVE",
"179 331 OFFCURVE",
"112 318 CURVE",
"112 317 LINE",
"179 304 OFFCURVE",
"213 263 OFFCURVE",
"213 193 CURVE SMOOTH",
"213 -22 LINE SMOOTH",
"212 -73 OFFCURVE",
"227 -92 OFFCURVE",
"282 -92 CURVE",
"285 -97 OFFCURVE",
"286 -104 OFFCURVE",
"286 -112 CURVE SMOOTH",
"286 -119 OFFCURVE",
"284 -127 OFFCURVE",
"281 -137 CURVE",
"213 -137 OFFCURVE",
"186 -135 OFFCURVE",
"159 -122 CURVE SMOOTH",
"132 -109 OFFCURVE",
"121 -79 OFFCURVE",
"121 -26 CURVE SMOOTH",
"121 190 LINE SMOOTH",
"121 267 OFFCURVE",
"75 295 OFFCURVE",
"3 296 CURVE",
"-1 303 OFFCURVE",
"-3 310 OFFCURVE",
"-3 317 CURVE SMOOTH",
"-3 324 OFFCURVE",
"-1 331 OFFCURVE",
"3 338 CURVE",
"79 341 OFFCURVE",
"121 370 OFFCURVE",
"121 443 CURVE SMOOTH"
);
}
);
width = 316;
}
);
note = braceleft;
rightKerningGroup = braceleft;
unicode = 007B;
},
{
glyphname = braceright;
layers = (
{
layerId = "818F4BA1-BEA0-4BCA-BD8D-F69F95152157";
paths = (
{
closed = 1;
nodes = (
"193 -25 LINE SMOOTH",
"193 -78 OFFCURVE",
"180 -111 OFFCURVE",
"152 -123 CURVE SMOOTH",
"123 -135 OFFCURVE",
"101 -136 OFFCURVE",
"33 -136 CURVE",
"30 -126 OFFCURVE",
"28 -118 OFFCURVE",
"28 -111 CURVE SMOOTH",
"28 -103 OFFCURVE",
"29 -96 OFFCURVE",
"32 -91 CURVE",
"87 -91 OFFCURVE",
"102 -72 OFFCURVE",
"101 -21 CURVE",
"101 193 LINE SMOOTH",
"102 262 OFFCURVE",
"135 303 OFFCURVE",
"202 316 CURVE",
"202 317 LINE",
"135 330 OFFCURVE",
"101 371 OFFCURVE",
"101 441 CURVE SMOOTH",
"101 656 LINE SMOOTH",
"102 707 OFFCURVE",
"87 726 OFFCURVE",
"32 726 CURVE",
"29 731 OFFCURVE",
"28 738 OFFCURVE",
"28 746 CURVE SMOOTH",
"28 753 OFFCURVE",
"30 761 OFFCURVE",
"33 771 CURVE",
"101 771 OFFCURVE",
"128 769 OFFCURVE",
"155 756 CURVE SMOOTH",
"182 743 OFFCURVE",
"193 713 OFFCURVE",
"193 660 CURVE SMOOTH",
"193 444 LINE SMOOTH",
"193 367 OFFCURVE",
"239 339 OFFCURVE",
"311 338 CURVE",
"315 331 OFFCURVE",
"317 324 OFFCURVE",
"317 317 CURVE SMOOTH",
"317 310 OFFCURVE",
"315 303 OFFCURVE",
"311 296 CURVE",
"235 293 OFFCURVE",
"193 264 OFFCURVE",
"193 191 CURVE SMOOTH"
);
}
);
width = 317;
}
);
leftKerningGroup = braceright;
note = braceright;
rightKerningGroup = quotesingle;
unicode = 007D;
},
{
glyphname = bracketleft;
layers = (
{
layerId = "818F4BA1-BEA0-4BCA-BD8D-F69F95152157";
paths = (
{
closed = 1;
nodes = (
"75 717 LINE",
"74 757 OFFCURVE",
"78 760 OFFCURVE",
"131 760 CURVE SMOOTH",
"172 760 OFFCURVE",
"213 754 OFFCURVE",
"254 741 CURVE",
"256 736 OFFCURVE",
"257 731 OFFCURVE",
"257 725 CURVE SMOOTH",
"257 721 OFFCURVE",
"256 714 OFFCURVE",
"253 705 CURVE",
"178 707 LINE SMOOTH",
"171 707 OFFCURVE",
"167 689 OFFCURVE",
"167 652 CURVE SMOOTH",
"167 -20 LINE SMOOTH",
"167 -57 OFFCURVE",
"171 -75 OFFCURVE",
"178 -75 CURVE SMOOTH",
"253 -73 LINE",
"256 -82 OFFCURVE",
"257 -89 OFFCURVE",
"257 -93 CURVE SMOOTH",
"257 -99 OFFCURVE",
"256 -104 OFFCURVE",
"254 -109 CURVE",
"213 -122 OFFCURVE",
"172 -128 OFFCURVE",
"131 -128 CURVE SMOOTH",
"78 -128 OFFCURVE",
"74 -125 OFFCURVE",
"75 -85 CURVE SMOOTH"
);
}
);
width = 281;
}
);
note = bracketleft;
rightKerningGroup = bracketleft;
unicode = 005B;
},
{
glyphname = bracketright;
layers = (
{
layerId = "818F4BA1-BEA0-4BCA-BD8D-F69F95152157";
paths = (
{
closed = 1;
nodes = (
"207 -85 LINE SMOOTH",
"208 -125 OFFCURVE",
"204 -128 OFFCURVE",
"151 -128 CURVE SMOOTH",
"110 -128 OFFCURVE",
"69 -122 OFFCURVE",
"28 -109 CURVE",
"26 -104 OFFCURVE",
"25 -99 OFFCURVE",
"25 -93 CURVE SMOOTH",
"25 -89 OFFCURVE",
"26 -82 OFFCURVE",
"29 -73 CURVE",
"104 -75 LINE SMOOTH",
"111 -75 OFFCURVE",
"115 -57 OFFCURVE",
"115 -20 CURVE SMOOTH",
"115 652 LINE SMOOTH",
"115 689 OFFCURVE",
"111 707 OFFCURVE",
"104 707 CURVE SMOOTH",
"29 705 LINE",
"26 714 OFFCURVE",
"25 721 OFFCURVE",
"25 725 CURVE SMOOTH",
"25 731 OFFCURVE",
"26 736 OFFCURVE",
"28 741 CURVE",
"69 754 OFFCURVE",
"110 760 OFFCURVE",
"151 760 CURVE SMOOTH",
"204 760 OFFCURVE",
"208 757 OFFCURVE",
"207 717 CURVE SMOOTH"
);
}
);
width = 281;
}
);
leftKerningGroup = bracketright;
note = bracketright;
rightKerningGroup = quotesingle;
unicode = 005D;
},
{
glyphname = parenleft;
layers = (
{
layerId = "818F4BA1-BEA0-4BCA-BD8D-F69F95152157";
paths = (
{
closed = 1;
nodes = (
"152 -81 OFFCURVE",
"131 -45 OFFCURVE",
"112 -4 CURVE SMOOTH",
"92 37 OFFCURVE",
"73 85 OFFCURVE",
"61 134 CURVE SMOOTH",
"48 183 OFFCURVE",
"42 224 OFFCURVE",
"39 260 CURVE SMOOTH",
"37 277 OFFCURVE",
"36 295 OFFCURVE",
"36 314 CURVE SMOOTH",
"36 353 OFFCURVE",
"41 420 OFFCURVE",
"62 499 CURVE SMOOTH",
"82 578 OFFCURVE",
"120 667 OFFCURVE",
"187 754 CURVE",
"197 759 OFFCURVE",
"208 761 OFFCURVE",
"220 761 CURVE SMOOTH",
"228 761 OFFCURVE",
"236 759 OFFCURVE",
"245 754 CURVE",
"209 693 OFFCURVE",
"182 618 OFFCURVE",
"166 542 CURVE SMOOTH",
"149 465 OFFCURVE",
"141 386 OFFCURVE",
"141 314 CURVE SMOOTH",
"141 242 OFFCURVE",
"149 163 OFFCURVE",
"166 86 CURVE SMOOTH",
"182 9 OFFCURVE",
"209 -65 OFFCURVE",
"245 -126 CURVE",
"236 -131 OFFCURVE",
"225 -133 OFFCURVE",
"212 -133 CURVE SMOOTH",
"205 -133 OFFCURVE",
"196 -131 OFFCURVE",
"187 -126 CURVE"
);
}
);
width = 269;
}
);
note = parenleft;
rightKerningGroup = parenleft;
unicode = 0028;
},
{
glyphname = parenright;
layers = (
{
layerId = "818F4BA1-BEA0-4BCA-BD8D-F69F95152157";
paths = (
{
closed = 1;
nodes = (
"117 709 OFFCURVE",
"138 673 OFFCURVE",
"158 632 CURVE SMOOTH",
"177 591 OFFCURVE",
"196 543 OFFCURVE",
"209 494 CURVE SMOOTH",
"221 445 OFFCURVE",
"227 404 OFFCURVE",
"231 369 CURVE",
"232 351 OFFCURVE",
"233 333 OFFCURVE",
"233 314 CURVE SMOOTH",
"233 275 OFFCURVE",
"228 208 OFFCURVE",
"208 129 CURVE SMOOTH",
"187 50 OFFCURVE",
"149 -39 OFFCURVE",
"82 -126 CURVE",
"72 -131 OFFCURVE",
"61 -133 OFFCURVE",
"49 -133 CURVE SMOOTH",
"41 -133 OFFCURVE",
"33 -131 OFFCURVE",
"24 -126 CURVE",
"60 -65 OFFCURVE",
"87 10 OFFCURVE",
"104 87 CURVE SMOOTH",
"120 163 OFFCURVE",
"128 242 OFFCURVE",
"128 314 CURVE SMOOTH",
"128 386 OFFCURVE",
"120 465 OFFCURVE",
"104 542 CURVE SMOOTH",
"87 619 OFFCURVE",
"60 693 OFFCURVE",
"24 754 CURVE",
"33 759 OFFCURVE",
"44 761 OFFCURVE",
"57 761 CURVE SMOOTH",
"64 761 OFFCURVE",
"73 759 OFFCURVE",
"82 754 CURVE"
);
}
);
width = 269;
}
);
leftKerningGroup = parenright;
note = parenright;
rightKerningGroup = quotesingle;
unicode = 0029;
},
{
glyphname = emdash;
layers = (
{
layerId = "818F4BA1-BEA0-4BCA-BD8D-F69F95152157";
paths = (
{
closed = 1;
nodes = (
"69 261 LINE",
"64 276 OFFCURVE",
"61 290 OFFCURVE",
"61 303 CURVE SMOOTH",
"61 314 OFFCURVE",
"63 327 OFFCURVE",
"67 340 CURVE",
"160 345 OFFCURVE",
"298 352 OFFCURVE",
"483 362 CURVE SMOOTH",
"668 372 OFFCURVE",
"807 379 OFFCURVE",
"900 384 CURVE",
"905 372 OFFCURVE",
"907 359 OFFCURVE",
"907 345 CURVE SMOOTH",
"907 330 OFFCURVE",
"905 316 OFFCURVE",
"902 305 CURVE"
);
}
);
width = 971;
}
);
leftKerningGroup = hyphen;
note = emdash;
rightKerningGroup = hyphen;
unicode = 2014;
},
{
glyphname = endash;
layers = (
{
layerId = "818F4BA1-BEA0-4BCA-BD8D-F69F95152157";
paths = (
{
closed = 1;
nodes = (
"71 266 LINE",
"66 281 OFFCURVE",
"64 295 OFFCURVE",
"64 307 CURVE SMOOTH",
"64 317 OFFCURVE",
"66 330 OFFCURVE",
"69 345 CURVE",
"574 372 LINE",
"580 357 OFFCURVE",
"583 343 OFFCURVE",
"583 332 CURVE SMOOTH",
"583 320 OFFCURVE",
"581 307 OFFCURVE",
"576 293 CURVE"
);
}
);
width = 648;
}
);
leftKerningGroup = hyphen;
note = endash;
rightKerningGroup = hyphen;
unicode = 2013;
},
{
glyphname = hyphen;
layers = (
{
layerId = "818F4BA1-BEA0-4BCA-BD8D-F69F95152157";
paths = (
{
closed = 1;
nodes = (
"72 262 LINE",
"67 279 OFFCURVE",
"64 296 OFFCURVE",
"64 311 CURVE SMOOTH",
"64 325 OFFCURVE",
"66 340 OFFCURVE",
"70 356 CURVE",
"274 368 LINE",
"279 352 OFFCURVE",
"282 337 OFFCURVE",
"282 323 CURVE SMOOTH",
"282 308 OFFCURVE",
"280 292 OFFCURVE",
"276 274 CURVE"
);
}
);
width = 343;
}
);
leftKerningGroup = hyphen;
note = hyphen;
rightKerningGroup = hyphen;
unicode = 002D;
},
{
glyphname = softhyphen;
layers = (
{
layerId = "818F4BA1-BEA0-4BCA-BD8D-F69F95152157";
paths = (
{
closed = 1;
nodes = (
"71 262 LINE",
"66 277 OFFCURVE",
"63 293 OFFCURVE",
"63 310 CURVE SMOOTH",
"63 323 OFFCURVE",
"65 339 OFFCURVE",
"69 356 CURVE",
"273 368 LINE",
"277 351 OFFCURVE",
"279 334 OFFCURVE",
"279 318 CURVE SMOOTH",
"279 303 OFFCURVE",
"278 288 OFFCURVE",
"275 274 CURVE"
);
}
);
width = 342;
}
);
leftKerningGroup = hyphen;
note = uni00AD;
rightKerningGroup = hyphen;
unicode = 00AD;
},
{
glyphname = guillemetleft;
layers = (
{
layerId = "818F4BA1-BEA0-4BCA-BD8D-F69F95152157";
paths = (
{
closed = 1;
nodes = (
"131 334 LINE",
"243 141 LINE",
"231 114 OFFCURVE",
"211 100 OFFCURVE",
"184 100 CURVE SMOOTH",
"179 100 OFFCURVE",
"176 100 OFFCURVE",
"173 101 CURVE",
"39 334 LINE",
"173 568 LINE",
"175 568 OFFCURVE",
"177 568 OFFCURVE",
"179 569 CURVE",
"180 569 OFFCURVE",
"182 569 OFFCURVE",
"184 569 CURVE SMOOTH",
"211 569 OFFCURVE",
"230 555 OFFCURVE",
"243 527 CURVE"
);
},
{
closed = 1;
nodes = (
"333 334 LINE",
"445 141 LINE",
"433 114 OFFCURVE",
"413 100 OFFCURVE",
"386 100 CURVE SMOOTH",
"381 100 OFFCURVE",
"378 100 OFFCURVE",
"375 101 CURVE",
"241 334 LINE",
"375 568 LINE",
"377 568 OFFCURVE",
"379 568 OFFCURVE",
"381 569 CURVE",
"382 569 OFFCURVE",
"384 569 OFFCURVE",
"386 569 CURVE SMOOTH",
"413 569 OFFCURVE",
"432 555 OFFCURVE",
"445 527 CURVE"
);
}
);
width = 492;
}
);
leftKerningGroup = guillemetleft;
note = guillemetleft;
rightKerningGroup = guillemetleft;
unicode = 00AB;
},
{
glyphname = guillemetright;
layers = (
{
layerId = "818F4BA1-BEA0-4BCA-BD8D-F69F95152157";
paths = (
{
closed = 1;
nodes = (
"361 334 LINE",
"249 527 LINE",
"260 555 OFFCURVE",
"280 569 OFFCURVE",
"308 569 CURVE SMOOTH",
"310 569 OFFCURVE",
"312 569 OFFCURVE",
"314 569 CURVE",
"315 568 OFFCURVE",
"317 568 OFFCURVE",
"319 568 CURVE",
"453 334 LINE",
"319 101 LINE",
"316 100 OFFCURVE",
"313 100 OFFCURVE",
"308 100 CURVE SMOOTH",
"280 100 OFFCURVE",
"260 114 OFFCURVE",
"249 141 CURVE"
);
},
{
closed = 1;
nodes = (
"159 334 LINE",
"47 527 LINE",
"58 555 OFFCURVE",
"78 569 OFFCURVE",
"106 569 CURVE SMOOTH",
"108 569 OFFCURVE",
"110 569 OFFCURVE",
"112 569 CURVE",
"113 568 OFFCURVE",
"115 568 OFFCURVE",
"117 568 CURVE",
"251 334 LINE",
"117 101 LINE",
"114 100 OFFCURVE",
"111 100 OFFCURVE",
"106 100 CURVE SMOOTH",
"78 100 OFFCURVE",
"58 114 OFFCURVE",
"47 141 CURVE"
);
}
);
width = 492;
}
);
leftKerningGroup = guillemetright;
note = guillemetright;
rightKerningGroup = guillemetright;
unicode = 00BB;
},
{
glyphname = guilsinglleft;
layers = (
{
layerId = "818F4BA1-BEA0-4BCA-BD8D-F69F95152157";
paths = (
{
closed = 1;
nodes = (
"131 334 LINE",
"243 141 LINE",
"231 114 OFFCURVE",
"211 100 OFFCURVE",
"184 100 CURVE SMOOTH",
"179 100 OFFCURVE",
"176 100 OFFCURVE",
"173 101 CURVE",
"39 334 LINE",
"173 568 LINE",
"175 568 OFFCURVE",
"177 568 OFFCURVE",
"179 569 CURVE",
"180 569 OFFCURVE",
"182 569 OFFCURVE",
"184 569 CURVE SMOOTH",
"211 569 OFFCURVE",
"230 555 OFFCURVE",
"243 527 CURVE"
);
}
);
width = 290;
}
);
leftKerningGroup = guillemetleft;
note = guilsinglleft;
rightKerningGroup = guillemetleft;
unicode = 2039;
},
{
glyphname = guilsinglright;
layers = (
{
layerId = "818F4BA1-BEA0-4BCA-BD8D-F69F95152157";
paths = (
{
closed = 1;
nodes = (
"159 334 LINE",
"47 527 LINE",
"58 555 OFFCURVE",
"78 569 OFFCURVE",
"106 569 CURVE SMOOTH",
"108 569 OFFCURVE",
"110 569 OFFCURVE",
"112 569 CURVE",
"113 568 OFFCURVE",
"115 568 OFFCURVE",
"117 568 CURVE",
"251 334 LINE",
"117 101 LINE",
"114 100 OFFCURVE",
"111 100 OFFCURVE",
"106 100 CURVE SMOOTH",
"78 100 OFFCURVE",
"58 114 OFFCURVE",
"47 141 CURVE"
);
}
);
width = 290;
}
);
leftKerningGroup = guillemetright;
note = guilsinglright;
rightKerningGroup = guillemetright;
unicode = 203A;
},
{
glyphname = quotedblbase;
layers = (
{
layerId = "818F4BA1-BEA0-4BCA-BD8D-F69F95152157";
paths = (
{
closed = 1;
nodes = (
"167 25 LINE SMOOTH",
"167 -56 OFFCURVE",
"126 -106 OFFCURVE",
"44 -127 CURVE",
"25 -104 OFFCURVE",
"23 -103 OFFCURVE",
"23 -88 CURVE",
"62 -72 OFFCURVE",
"102 -38 OFFCURVE",
"103 -7 CURVE",
"71 -9 LINE SMOOTH",
"56 -10 OFFCURVE",
"53 -2 OFFCURVE",
"53 23 CURVE SMOOTH",
"53 74 LINE SMOOTH",
"53 97 OFFCURVE",
"56 102 OFFCURVE",
"73 105 CURVE",
"149 108 LINE SMOOTH",
"164 109 OFFCURVE",
"167 101 OFFCURVE",
"167 76 CURVE SMOOTH"
);
},
{
closed = 1;
nodes = (
"367 25 LINE SMOOTH",
"367 -56 OFFCURVE",
"326 -106 OFFCURVE",
"244 -127 CURVE",
"225 -104 OFFCURVE",
"223 -103 OFFCURVE",
"223 -88 CURVE",
"262 -72 OFFCURVE",
"302 -38 OFFCURVE",
"303 -7 CURVE",
"271 -9 LINE SMOOTH",
"256 -10 OFFCURVE",
"253 -2 OFFCURVE",
"253 23 CURVE SMOOTH",
"253 74 LINE SMOOTH",
"253 97 OFFCURVE",
"256 102 OFFCURVE",
"273 105 CURVE",
"349 108 LINE SMOOTH",
"364 109 OFFCURVE",
"367 101 OFFCURVE",
"367 76 CURVE SMOOTH"
);
}
);
width = 422;
}
);
leftKerningGroup = comma;
note = quotedblbase;
rightKerningGroup = comma;
unicode = 201E;
},
{
glyphname = quotedblleft;
layers = (
{
layerId = "818F4BA1-BEA0-4BCA-BD8D-F69F95152157";
paths = (
{
closed = 1;
nodes = (
"47 561 LINE SMOOTH",
"47 642 OFFCURVE",
"88 692 OFFCURVE",
"170 713 CURVE",
"189 690 OFFCURVE",
"191 689 OFFCURVE",
"191 674 CURVE",
"152 658 OFFCURVE",
"112 624 OFFCURVE",
"111 593 CURVE",
"143 595 LINE SMOOTH",
"158 596 OFFCURVE",
"161 588 OFFCURVE",
"161 563 CURVE SMOOTH",
"161 512 LINE SMOOTH",
"161 489 OFFCURVE",
"158 484 OFFCURVE",
"141 481 CURVE",
"65 478 LINE SMOOTH",
"50 477 OFFCURVE",
"47 485 OFFCURVE",
"47 510 CURVE SMOOTH"
);
},
{
closed = 1;
nodes = (
"247 561 LINE SMOOTH",
"247 642 OFFCURVE",
"288 692 OFFCURVE",
"370 713 CURVE",
"389 690 OFFCURVE",
"391 689 OFFCURVE",
"391 674 CURVE",
"352 658 OFFCURVE",
"312 624 OFFCURVE",
"311 593 CURVE",
"343 595 LINE SMOOTH",
"358 596 OFFCURVE",
"361 588 OFFCURVE",
"361 563 CURVE SMOOTH",
"361 512 LINE SMOOTH",
"361 489 OFFCURVE",
"358 484 OFFCURVE",
"341 481 CURVE",
"265 478 LINE SMOOTH",
"250 477 OFFCURVE",
"247 485 OFFCURVE",
"247 510 CURVE SMOOTH"
);
}
);
width = 425;
}
);
leftKerningGroup = quoteleft;
note = quotedblleft;
rightKerningGroup = quoteleft;
unicode = 201C;
},
{
glyphname = quotedblright;
layers = (
{
layerId = "818F4BA1-BEA0-4BCA-BD8D-F69F95152157";
paths = (
{
closed = 1;
nodes = (
"183 629 LINE SMOOTH",
"183 548 OFFCURVE",
"142 498 OFFCURVE",
"60 477 CURVE",
"41 500 OFFCURVE",
"39 501 OFFCURVE",
"39 516 CURVE",
"78 532 OFFCURVE",
"118 566 OFFCURVE",
"119 597 CURVE",
"87 595 LINE SMOOTH",
"72 594 OFFCURVE",
"69 602 OFFCURVE",
"69 627 CURVE SMOOTH",
"69 678 LINE SMOOTH",
"69 701 OFFCURVE",
"72 706 OFFCURVE",
"89 709 CURVE",
"165 712 LINE SMOOTH",
"180 713 OFFCURVE",
"183 705 OFFCURVE",
"183 680 CURVE SMOOTH"
);
},
{
closed = 1;
nodes = (
"383 629 LINE SMOOTH",
"383 548 OFFCURVE",
"342 498 OFFCURVE",
"260 477 CURVE",
"241 500 OFFCURVE",
"239 501 OFFCURVE",
"239 516 CURVE",
"278 532 OFFCURVE",
"318 566 OFFCURVE",
"319 597 CURVE",
"287 595 LINE SMOOTH",
"272 594 OFFCURVE",
"269 602 OFFCURVE",
"269 627 CURVE SMOOTH",
"269 678 LINE SMOOTH",
"269 701 OFFCURVE",
"272 706 OFFCURVE",
"289 709 CURVE",
"365 712 LINE SMOOTH",
"380 713 OFFCURVE",
"383 705 OFFCURVE",
"383 680 CURVE SMOOTH"
);
}
);
width = 422;
}
);
leftKerningGroup = quoteright;
note = quotedblright;
rightKerningGroup = quoteright;
unicode = 201D;
},
{
glyphname = quoteleft;
layers = (
{
layerId = "818F4BA1-BEA0-4BCA-BD8D-F69F95152157";
paths = (
{
closed = 1;
nodes = (
"47 561 LINE SMOOTH",
"47 642 OFFCURVE",
"88 692 OFFCURVE",
"170 713 CURVE",
"189 690 OFFCURVE",
"191 689 OFFCURVE",
"191 674 CURVE",
"152 658 OFFCURVE",
"112 624 OFFCURVE",
"111 593 CURVE",
"143 595 LINE SMOOTH",
"158 596 OFFCURVE",
"161 588 OFFCURVE",
"161 563 CURVE SMOOTH",
"161 512 LINE SMOOTH",
"161 489 OFFCURVE",
"158 484 OFFCURVE",
"141 481 CURVE",
"65 478 LINE SMOOTH",
"50 477 OFFCURVE",
"47 485 OFFCURVE",
"47 510 CURVE SMOOTH"
);
}
);
width = 225;
}
);
leftKerningGroup = quoteleft;
note = quoteleft;
rightKerningGroup = quoteleft;
unicode = 2018;
},
{
glyphname = quoteright;
layers = (
{
layerId = "818F4BA1-BEA0-4BCA-BD8D-F69F95152157";
paths = (
{
closed = 1;
nodes = (
"183 629 LINE SMOOTH",
"183 548 OFFCURVE",
"142 498 OFFCURVE",
"60 477 CURVE",
"41 500 OFFCURVE",
"39 501 OFFCURVE",
"39 516 CURVE",
"78 532 OFFCURVE",
"118 566 OFFCURVE",
"119 597 CURVE",
"87 595 LINE SMOOTH",
"72 594 OFFCURVE",
"69 602 OFFCURVE",
"69 627 CURVE SMOOTH",
"69 678 LINE SMOOTH",
"69 701 OFFCURVE",
"72 706 OFFCURVE",
"89 709 CURVE",
"165 712 LINE SMOOTH",
"180 713 OFFCURVE",
"183 705 OFFCURVE",
"183 680 CURVE SMOOTH"
);
}
);
width = 222;
}
);
leftKerningGroup = quoteright;
note = quoteright;
rightKerningGroup = quoteright;
unicode = 2019;
},
{
glyphname = quotesinglbase;
layers = (
{
layerId = "818F4BA1-BEA0-4BCA-BD8D-F69F95152157";
paths = (
{
closed = 1;
nodes = (
"167 25 LINE SMOOTH",
"167 -56 OFFCURVE",
"126 -106 OFFCURVE",
"44 -127 CURVE",
"25 -104 OFFCURVE",
"23 -103 OFFCURVE",
"23 -88 CURVE",
"62 -72 OFFCURVE",
"102 -38 OFFCURVE",
"103 -7 CURVE",
"71 -9 LINE SMOOTH",
"56 -10 OFFCURVE",
"53 -2 OFFCURVE",
"53 23 CURVE SMOOTH",
"53 74 LINE SMOOTH",
"53 97 OFFCURVE",
"56 102 OFFCURVE",
"73 105 CURVE",
"149 108 LINE SMOOTH",
"164 109 OFFCURVE",
"167 101 OFFCURVE",
"167 76 CURVE SMOOTH"
);
}
);
width = 222;
}
);
leftKerningGroup = comma;
note = quotesinglbase;
rightKerningGroup = comma;
unicode = 201A;
},
{
glyphname = .notdef;
layers = (
{
layerId = "818F4BA1-BEA0-4BCA-BD8D-F69F95152157";
paths = (
{
closed = 1;
nodes = (
"50 0 LINE",
"50 500 LINE",
"464 500 LINE",
"464 0 LINE"
);
},
{
closed = 1;
nodes = (
"112 438 LINE",
"112 62 LINE",
"402 62 LINE",
"402 438 LINE"
);
}
);
width = 529;
}
);
note = .notdef;
},
{
glyphname = cent;
layers = (
{
layerId = "818F4BA1-BEA0-4BCA-BD8D-F69F95152157";
paths = (
{
closed = 1;
nodes = (
"411 503 OFFCURVE",
"412 494 OFFCURVE",
"412 486 CURVE SMOOTH",
"412 478 OFFCURVE",
"411 470 OFFCURVE",
"408 463 CURVE",
"395 465 OFFCURVE",
"359 466 OFFCURVE",
"300 466 CURVE SMOOTH",
"244 466 OFFCURVE",
"164 449 OFFCURVE",
"163 397 CURVE SMOOTH",
"163 99 LINE SMOOTH",
"163 48 OFFCURVE",
"178 37 OFFCURVE",
"237 37 CURVE SMOOTH",
"277 37 OFFCURVE",
"357 54 OFFCURVE",
"388 63 CURVE SMOOTH",
"403 67 OFFCURVE",
"414 70 OFFCURVE",
"420 72 CURVE",
"423 65 OFFCURVE",
"425 57 OFFCURVE",
"425 47 CURVE SMOOTH",
"425 38 OFFCURVE",
"424 32 OFFCURVE",
"421 27 CURVE",
"378 13 OFFCURVE",
"337 3 OFFCURVE",
"296 -3 CURVE",
"296 -110 LINE",
"285 -114 OFFCURVE",
"275 -116 OFFCURVE",
"267 -116 CURVE SMOOTH",
"258 -116 OFFCURVE",
"249 -114 OFFCURVE",
"240 -111 CURVE",
"240 -9 LINE",
"213 -12 OFFCURVE",
"185 -13 OFFCURVE",
"152 -13 CURVE SMOOTH",
"80 -13 OFFCURVE",
"49 8 OFFCURVE",
"49 60 CURVE SMOOTH",
"49 397 LINE SMOOTH",
"50 428 OFFCURVE",
"60 452 OFFCURVE",
"88 471 CURVE SMOOTH",
"116 490 OFFCURVE",
"163 502 OFFCURVE",
"240 510 CURVE",
"240 609 LINE",
"251 613 OFFCURVE",
"260 615 OFFCURVE",
"269 615 CURVE SMOOTH",
"280 615 OFFCURVE",
"289 613 OFFCURVE",
"296 610 CURVE",
"296 514 LINE",
"348 514 OFFCURVE",
"384 513 OFFCURVE",
"407 510 CURVE"
);
}
);
width = 463;
}
);
note = cent;
rightKerningGroup = quotesingle;
unicode = 00A2;
},
{
glyphname = currency;
layers = (
{
layerId = "818F4BA1-BEA0-4BCA-BD8D-F69F95152157";
paths = (
{
closed = 1;
nodes = (
"81 399 OFFCURVE",
"92 434 OFFCURVE",
"115 465 CURVE",
"49 531 LINE",
"56 546 OFFCURVE",
"70 560 OFFCURVE",
"91 573 CURVE",
"156 507 LINE",
"191 530 OFFCURVE",
"227 542 OFFCURVE",
"264 542 CURVE SMOOTH",
"300 542 OFFCURVE",
"335 530 OFFCURVE",
"370 507 CURVE",
"437 574 LINE",
"456 569 OFFCURVE",
"470 554 OFFCURVE",
"479 531 CURVE",
"413 465 LINE",
"436 434 OFFCURVE",
"448 398 OFFCURVE",
"448 358 CURVE SMOOTH",
"448 316 OFFCURVE",
"436 280 OFFCURVE",
"413 251 CURVE",
"479 185 LINE",
"478 164 OFFCURVE",
"464 150 OFFCURVE",
"438 143 CURVE",
"371 209 LINE",
"338 186 OFFCURVE",
"302 175 OFFCURVE",
"264 175 CURVE SMOOTH",
"223 175 OFFCURVE",
"188 186 OFFCURVE",
"157 209 CURVE",
"91 143 LINE",
"63 151 OFFCURVE",
"49 165 OFFCURVE",
"49 185 CURVE",
"114 251 LINE",
"92 282 OFFCURVE",
"81 317 OFFCURVE",
"81 358 CURVE SMOOTH"
);
},
{
closed = 1;
nodes = (
"157 294 OFFCURVE",
"205 240 OFFCURVE",
"264 240 CURVE SMOOTH",
"324 240 OFFCURVE",
"372 294 OFFCURVE",
"372 358 CURVE SMOOTH",
"372 425 OFFCURVE",
"325 476 OFFCURVE",
"264 476 CURVE SMOOTH",
"205 476 OFFCURVE",
"157 423 OFFCURVE",
"157 358 CURVE SMOOTH"
);
}
);
width = 528;
}
);
note = currency;
rightKerningGroup = quotesingle;
unicode = 00A4;
},
{
glyphname = dollar;
layers = (
{
layerId = "818F4BA1-BEA0-4BCA-BD8D-F69F95152157";
paths = (
{
closed = 1;
nodes = (
"85 49 OFFCURVE",
"128 46 OFFCURVE",
"163 46 CURVE SMOOTH",
"228 46 OFFCURVE",
"271 50 OFFCURVE",
"294 58 CURVE",
"317 65 OFFCURVE",
"328 80 OFFCURVE",
"327 102 CURVE",
"327 121 OFFCURVE",
"312 153 OFFCURVE",
"282 200 CURVE SMOOTH",
"80 501 LINE SMOOTH",
"57 535 OFFCURVE",
"46 569 OFFCURVE",
"47 602 CURVE SMOOTH",
"47 659 OFFCURVE",
"108 692 OFFCURVE",
"229 701 CURVE",
"229 778 LINE",
"240 782 OFFCURVE",
"249 784 OFFCURVE",
"258 784 CURVE SMOOTH",
"269 784 OFFCURVE",
"278 782 OFFCURVE",
"285 779 CURVE",
"285 703 LINE",
"296 703 LINE SMOOTH",
"334 703 OFFCURVE",
"377 700 OFFCURVE",
"425 695 CURVE",
"429 676 OFFCURVE",
"427 657 OFFCURVE",
"422 641 CURVE",
"358 654 OFFCURVE",
"167 669 OFFCURVE",
"167 602 CURVE SMOOTH",
"167 578 OFFCURVE",
"191 536 OFFCURVE",
"215 501 CURVE SMOOTH",
"352 301 LINE SMOOTH",
"354 298 OFFCURVE",
"359 291 OFFCURVE",
"368 279 CURVE",
"376 266 OFFCURVE",
"382 257 OFFCURVE",
"387 251 CURVE",
"395 238 OFFCURVE",
"415 209 OFFCURVE",
"424 191 CURVE SMOOTH",
"433 173 OFFCURVE",
"445 150 OFFCURVE",
"450 131 CURVE SMOOTH",
"453 121 OFFCURVE",
"454 112 OFFCURVE",
"454 104 CURVE SMOOTH",
"453 37 OFFCURVE",
"386 0 OFFCURVE",
"253 -5 CURVE",
"253 -98 LINE",
"244 -102 OFFCURVE",
"234 -104 OFFCURVE",
"224 -104 CURVE SMOOTH",
"214 -104 OFFCURVE",
"205 -102 OFFCURVE",
"197 -99 CURVE",
"197 -6 LINE",
"158 -5 OFFCURVE",
"104 -2 OFFCURVE",
"36 3 CURVE",
"32 12 OFFCURVE",
"30 21 OFFCURVE",
"30 31 CURVE SMOOTH",
"30 39 OFFCURVE",
"32 47 OFFCURVE",
"35 56 CURVE"
);
}
);
width = 503;
}
);
note = dollar;
unicode = 0024;
},
{
glyphname = euro;
layers = (
{
layerId = "818F4BA1-BEA0-4BCA-BD8D-F69F95152157";
paths = (
{
closed = 1;
nodes = (
"507 675 LINE",
"507 580 LINE SMOOTH",
"507 569 OFFCURVE",
"501 562 OFFCURVE",
"490 559 CURVE SMOOTH",
"470 554 OFFCURVE",
"453 551 OFFCURVE",
"439 551 CURVE SMOOTH",
"427 551 OFFCURVE",
"421 557 OFFCURVE",
"421 569 CURVE SMOOTH",
"421 662 LINE",
"372 663 OFFCURVE",
"325 659 OFFCURVE",
"279 648 CURVE",
"234 641 OFFCURVE",
"211 615 OFFCURVE",
"211 571 CURVE SMOOTH",
"211 437 LINE",
"268 441 OFFCURVE",
"336 444 OFFCURVE",
"417 445 CURVE",
"421 437 OFFCURVE",
"423 427 OFFCURVE",
"423 416 CURVE SMOOTH",
"423 409 OFFCURVE",
"421 402 OFFCURVE",
"418 393 CURVE",
"361 393 OFFCURVE",
"292 390 OFFCURVE",
"211 383 CURVE",
"211 322 LINE",
"272 327 OFFCURVE",
"331 329 OFFCURVE",
"387 330 CURVE",
"391 322 OFFCURVE",
"393 312 OFFCURVE",
"393 301 CURVE SMOOTH",
"393 294 OFFCURVE",
"391 287 OFFCURVE",
"388 278 CURVE",
"351 278 OFFCURVE",
"292 275 OFFCURVE",
"211 268 CURVE",
"211 136 LINE SMOOTH",
"211 63 OFFCURVE",
"232 44 OFFCURVE",
"307 44 CURVE SMOOTH",
"378 45 OFFCURVE",
"442 53 OFFCURVE",
"499 68 CURVE",
"503 58 OFFCURVE",
"505 49 OFFCURVE",
"505 40 CURVE SMOOTH",
"505 32 OFFCURVE",
"503 25 OFFCURVE",
"500 18 CURVE",
"431 -3 OFFCURVE",
"350 -13 OFFCURVE",
"255 -13 CURVE SMOOTH",
"132 -13 OFFCURVE",
"91 18 OFFCURVE",
"91 122 CURVE SMOOTH",
"91 258 LINE",
"68 255 OFFCURVE",
"51 254 OFFCURVE",
"41 253 CURVE",
"37 261 OFFCURVE",
"35 270 OFFCURVE",
"35 279 CURVE SMOOTH",
"35 286 OFFCURVE",
"37 294 OFFCURVE",
"40 303 CURVE",
"91 310 LINE",
"91 373 LINE",
"68 370 OFFCURVE",
"51 369 OFFCURVE",
"41 368 CURVE",
"37 376 OFFCURVE",
"35 385 OFFCURVE",
"35 394 CURVE SMOOTH",
"35 401 OFFCURVE",
"37 409 OFFCURVE",
"40 418 CURVE",
"91 425 LINE",
"91 576 LINE SMOOTH",
"91 695 OFFCURVE",
"247 712 OFFCURVE",
"396 712 CURVE SMOOTH",
"437 712 OFFCURVE",
"472 710 OFFCURVE",
"501 707 CURVE",
"505 699 OFFCURVE",
"507 690 OFFCURVE",
"507 680 CURVE SMOOTH"
);
}
);
width = 592;
}
);
note = euro;
unicode = 20AC;
},
{
glyphname = sterling;
layers = (
{
layerId = "818F4BA1-BEA0-4BCA-BD8D-F69F95152157";
paths = (
{
closed = 1;
nodes = (
"47 3 OFFCURVE",
"45 12 OFFCURVE",
"45 23 CURVE SMOOTH",
"45 33 OFFCURVE",
"46 42 OFFCURVE",
"49 50 CURVE",
"73 47 OFFCURVE",
"100 45 OFFCURVE",
"131 44 CURVE",
"130 53 OFFCURVE",
"129 61 OFFCURVE",
"129 67 CURVE SMOOTH",
"129 259 LINE",
"39 253 LINE",
"35 263 OFFCURVE",
"33 272 OFFCURVE",
"33 281 CURVE SMOOTH",
"33 288 OFFCURVE",
"35 295 OFFCURVE",
"38 303 CURVE",
"129 310 LINE",
"129 566 LINE SMOOTH",
"129 667 OFFCURVE",
"208 703 OFFCURVE",
"395 714 CURVE SMOOTH",
"515 719 OFFCURVE",
"555 686 OFFCURVE",
"555 579 CURVE SMOOTH",
"555 508 LINE SMOOTH",
"555 497 OFFCURVE",
"549 490 OFFCURVE",
"538 487 CURVE SMOOTH",
"506 479 OFFCURVE",
"479 475 OFFCURVE",
"457 475 CURVE SMOOTH",
"445 475 OFFCURVE",
"439 481 OFFCURVE",
"439 493 CURVE SMOOTH",
"439 565 LINE SMOOTH",
"439 644 OFFCURVE",
"426 663 OFFCURVE",
"382 663 CURVE SMOOTH",
"376 663 OFFCURVE",
"363 662 OFFCURVE",
"343 661 CURVE",
"263 652 OFFCURVE",
"249 636 OFFCURVE",
"249 561 CURVE SMOOTH",
"249 319 LINE",
"437 333 LINE",
"441 324 OFFCURVE",
"443 315 OFFCURVE",
"443 305 CURVE SMOOTH",
"443 296 OFFCURVE",
"441 289 OFFCURVE",
"438 283 CURVE",
"249 268 LINE",
"249 46 LINE",
"358 45 OFFCURVE",
"455 55 OFFCURVE",
"542 77 CURVE",
"550 54 OFFCURVE",
"550 35 OFFCURVE",
"542 19 CURVE",
"443 -2 OFFCURVE",
"340 -13 OFFCURVE",
"232 -13 CURVE SMOOTH",
"172 -13 OFFCURVE",
"112 -10 OFFCURVE",
"51 -4 CURVE"
);
}
);
width = 620;
}
);
note = sterling;
rightKerningGroup = quotesingle;
unicode = 00A3;
},
{
glyphname = yen;
layers = (
{
layerId = "818F4BA1-BEA0-4BCA-BD8D-F69F95152157";
paths = (
{
closed = 1;
nodes = (
"690 335 LINE",
"694 328 OFFCURVE",
"696 319 OFFCURVE",
"696 308 CURVE SMOOTH",
"696 301 OFFCURVE",
"695 293 OFFCURVE",
"692 285 CURVE",
"625 289 LINE",
"625 -102 LINE SMOOTH",
"625 -223 OFFCURVE",
"452 -240 OFFCURVE",
"263 -240 CURVE SMOOTH",
"228 -240 OFFCURVE",
"188 -238 OFFCURVE",
"145 -233 CURVE",
"141 -226 OFFCURVE",
"139 -217 OFFCURVE",
"139 -206 CURVE SMOOTH",
"139 -199 OFFCURVE",
"140 -191 OFFCURVE",
"143 -183 CURVE",
"166 -188 OFFCURVE",
"204 -190 OFFCURVE",
"257 -190 CURVE SMOOTH",
"338 -189 OFFCURVE",
"404 -181 OFFCURVE",
"455 -167 CURVE",
"489 -159 OFFCURVE",
"506 -136 OFFCURVE",
"505 -97 CURVE",
"505 36 LINE",
"412 3 OFFCURVE",
"318 -13 OFFCURVE",
"221 -13 CURVE SMOOTH",
"146 -13 OFFCURVE",
"113 10 OFFCURVE",
"113 63 CURVE SMOOTH",
"113 269 LINE",
"82 263 OFFCURVE",
"58 258 OFFCURVE",
"41 254 CURVE",
"37 261 OFFCURVE",
"35 270 OFFCURVE",
"35 281 CURVE SMOOTH",
"35 288 OFFCURVE",
"36 296 OFFCURVE",
"39 304 CURVE",
"113 319 LINE",
"113 383 LINE",
"82 377 OFFCURVE",
"58 372 OFFCURVE",
"41 368 CURVE",
"37 375 OFFCURVE",
"35 384 OFFCURVE",
"35 395 CURVE SMOOTH",
"35 402 OFFCURVE",
"36 410 OFFCURVE",
"39 418 CURVE",
"113 433 LINE",
"113 605 LINE SMOOTH",
"113 642 OFFCURVE",
"109 660 OFFCURVE",
"102 660 CURVE SMOOTH",
"39 658 LINE",
"36 663 OFFCURVE",
"35 670 OFFCURVE",
"35 677 CURVE SMOOTH",
"35 682 OFFCURVE",
"36 688 OFFCURVE",
"38 694 CURVE",
"83 707 OFFCURVE",
"125 713 OFFCURVE",
"166 713 CURVE SMOOTH",
"227 713 OFFCURVE",
"234 709 OFFCURVE",
"233 670 CURVE SMOOTH",
"233 449 LINE",
"292 455 OFFCURVE",
"354 458 OFFCURVE",
"419 458 CURVE SMOOTH",
"428 458 OFFCURVE",
"443 458 OFFCURVE",
"462 458 CURVE",
"481 457 OFFCURVE",
"495 457 OFFCURVE",
"505 457 CURVE",
"505 680 LINE SMOOTH",
"505 690 OFFCURVE",
"511 697 OFFCURVE",
"522 701 CURVE SMOOTH",
"546 709 OFFCURVE",
"574 713 OFFCURVE",
"607 713 CURVE SMOOTH",
"619 713 OFFCURVE",
"625 707 OFFCURVE",
"625 695 CURVE SMOOTH",
"625 453 LINE",
"690 449 LINE",
"694 442 OFFCURVE",
"696 433 OFFCURVE",
"696 422 CURVE SMOOTH",
"696 415 OFFCURVE",
"695 407 OFFCURVE",
"692 399 CURVE",
"625 403 LINE",
"625 339 LINE"
);
},
{
closed = 1;
nodes = (
"359 53 OFFCURVE",
"424 64 OFFCURVE",
"505 86 CURVE",
"505 292 LINE",
"447 292 LINE SMOOTH",
"374 292 OFFCURVE",
"303 289 OFFCURVE",
"233 283 CURVE",
"233 118 LINE SMOOTH",
"233 65 OFFCURVE",
"250 53 OFFCURVE",
"311 53 CURVE SMOOTH"
);
},
{
closed = 1;
nodes = (
"447 406 LINE SMOOTH",
"374 406 OFFCURVE",
"303 403 OFFCURVE",
"233 397 CURVE",
"233 335 LINE",
"292 341 OFFCURVE",
"354 344 OFFCURVE",
"419 344 CURVE SMOOTH",
"428 344 OFFCURVE",
"443 344 OFFCURVE",
"462 344 CURVE",
"481 343 OFFCURVE",
"495 343 OFFCURVE",
"505 343 CURVE",
"505 406 LINE"
);
}
);
width = 728;
}
);
note = yen;
rightKerningGroup = quotesingle;
unicode = 00A5;
},
{
glyphname = asciitilde;
layers = (
{
layerId = "818F4BA1-BEA0-4BCA-BD8D-F69F95152157";
paths = (
{
closed = 1;
nodes = (
"63 261 OFFCURVE",
"51 268 OFFCURVE",
"43 284 CURVE",
"78 363 OFFCURVE",
"123 403 OFFCURVE",
"177 403 CURVE SMOOTH",
"201 403 OFFCURVE",
"227 394 OFFCURVE",
"255 377 CURVE SMOOTH",
"283 359 OFFCURVE",
"305 350 OFFCURVE",
"321 350 CURVE SMOOTH",
"362 350 OFFCURVE",
"399 364 OFFCURVE",
"414 396 CURVE",
"429 393 OFFCURVE",
"450 381 OFFCURVE",
"455 368 CURVE",
"420 289 OFFCURVE",
"376 249 OFFCURVE",
"321 249 CURVE SMOOTH",
"297 249 OFFCURVE",
"270 258 OFFCURVE",
"241 276 CURVE SMOOTH",
"212 294 OFFCURVE",
"190 303 OFFCURVE",
"177 303 CURVE SMOOTH",
"144 303 OFFCURVE",
"100 288 OFFCURVE",
"84 256 CURVE"
);
}
);
width = 494;
}
);
note = asciitilde;
rightKerningGroup = quotesingle;
unicode = 007E;
},
{
glyphname = divide;
layers = (
{
layerId = "818F4BA1-BEA0-4BCA-BD8D-F69F95152157";
paths = (
{
closed = 1;
nodes = (
"56 284 LINE",
"50 301 OFFCURVE",
"47 314 OFFCURVE",
"47 325 CURVE SMOOTH",
"47 335 OFFCURVE",
"49 348 OFFCURVE",
"54 363 CURVE",
"466 385 LINE",
"471 369 OFFCURVE",
"474 355 OFFCURVE",
"474 342 CURVE SMOOTH",
"474 330 OFFCURVE",
"472 318 OFFCURVE",
"468 306 CURVE"
);
},
{
closed = 1;
nodes = (
"201 177 LINE SMOOTH",
"201 200 OFFCURVE",
"204 205 OFFCURVE",
"221 208 CURVE",
"297 211 LINE SMOOTH",
"312 212 OFFCURVE",
"315 204 OFFCURVE",
"315 179 CURVE SMOOTH",
"315 128 LINE SMOOTH",
"315 105 OFFCURVE",
"312 100 OFFCURVE",
"295 97 CURVE",
"219 94 LINE SMOOTH",
"204 93 OFFCURVE",
"201 101 OFFCURVE",
"201 126 CURVE SMOOTH"
);
},
{
closed = 1;
nodes = (
"201 546 LINE SMOOTH",
"201 569 OFFCURVE",
"204 574 OFFCURVE",
"221 577 CURVE",
"297 580 LINE SMOOTH",
"312 581 OFFCURVE",
"315 573 OFFCURVE",
"315 548 CURVE SMOOTH",
"315 497 LINE SMOOTH",
"315 474 OFFCURVE",
"312 469 OFFCURVE",
"295 466 CURVE",
"219 463 LINE SMOOTH",
"204 462 OFFCURVE",
"201 470 OFFCURVE",
"201 495 CURVE SMOOTH"
);
}
);
width = 521;
}
);
note = divide;
rightKerningGroup = quotesingle;
unicode = 00F7;
},
{
glyphname = equal;
layers = (
{
layerId = "818F4BA1-BEA0-4BCA-BD8D-F69F95152157";
paths = (
{
closed = 1;
nodes = (
"73 392 LINE",
"69 406 OFFCURVE",
"67 420 OFFCURVE",
"67 435 CURVE SMOOTH",
"67 446 OFFCURVE",
"69 459 OFFCURVE",
"73 472 CURVE",
"481 494 LINE",
"486 478 OFFCURVE",
"488 465 OFFCURVE",
"488 455 CURVE SMOOTH",
"488 443 OFFCURVE",
"486 429 OFFCURVE",
"481 414 CURVE"
);
},
{
closed = 1;
nodes = (
"77 218 LINE",
"73 232 OFFCURVE",
"71 246 OFFCURVE",
"71 261 CURVE SMOOTH",
"71 272 OFFCURVE",
"73 285 OFFCURVE",
"77 298 CURVE",
"485 320 LINE",
"490 304 OFFCURVE",
"492 291 OFFCURVE",
"492 281 CURVE SMOOTH",
"492 269 OFFCURVE",
"490 255 OFFCURVE",
"485 240 CURVE"
);
}
);
width = 561;
}
);
note = equal;
rightKerningGroup = quotesingle;
unicode = 003D;
},
{
glyphname = greater;
layers = (
{
layerId = "818F4BA1-BEA0-4BCA-BD8D-F69F95152157";
paths = (
{
closed = 1;
nodes = (
"84 119 LINE",
"57 131 OFFCURVE",
"40 150 OFFCURVE",
"35 177 CURVE",
"235 333 LINE",
"41 510 LINE",
"50 536 OFFCURVE",
"67 554 OFFCURVE",
"91 564 CURVE",
"326 350 LINE",
"332 335 OFFCURVE",
"332 321 OFFCURVE",
"325 307 CURVE"
);
}
);
width = 384;
}
);
note = greater;
rightKerningGroup = quotesingle;
unicode = 003E;
},
{
glyphname = less;
layers = (
{
layerId = "818F4BA1-BEA0-4BCA-BD8D-F69F95152157";
paths = (
{
closed = 1;
nodes = (
"44 307 LINE",
"37 321 OFFCURVE",
"37 335 OFFCURVE",
"43 350 CURVE",
"278 564 LINE",
"302 554 OFFCURVE",
"319 536 OFFCURVE",
"328 510 CURVE",
"134 333 LINE",
"334 177 LINE",
"329 150 OFFCURVE",
"312 131 OFFCURVE",
"285 119 CURVE"
);
}
);
width = 384;
}
);
note = less;
rightKerningGroup = quotesingle;
unicode = 003C;
},
{
glyphname = logicalnot;
layers = (
{
layerId = "818F4BA1-BEA0-4BCA-BD8D-F69F95152157";
paths = (
{
closed = 1;
nodes = (
"324 334 LINE",
"65 321 LINE",
"58 338 OFFCURVE",
"55 352 OFFCURVE",
"55 363 CURVE SMOOTH",
"55 371 OFFCURVE",
"58 383 OFFCURVE",
"63 399 CURVE",
"409 417 LINE",
"413 194 LINE",
"396 188 OFFCURVE",
"380 185 OFFCURVE",
"363 185 CURVE SMOOTH",
"354 185 OFFCURVE",
"342 187 OFFCURVE",
"327 190 CURVE"
);
}
);
width = 484;
}
);
note = logicalnot;
rightKerningGroup = quotesingle;
unicode = 00AC;
},
{
glyphname = micro;
layers = (
{
layerId = "818F4BA1-BEA0-4BCA-BD8D-F69F95152157";
paths = (
{
closed = 1;
nodes = (
"383 483 LINE SMOOTH",
"383 492 OFFCURVE",
"388 499 OFFCURVE",
"399 503 CURVE",
"423 510 OFFCURVE",
"450 514 OFFCURVE",
"480 514 CURVE SMOOTH",
"491 514 OFFCURVE",
"497 508 OFFCURVE",
"497 497 CURVE SMOOTH",
"497 95 LINE SMOOTH",
"497 58 OFFCURVE",
"501 40 OFFCURVE",
"508 40 CURVE SMOOTH",
"577 42 LINE",
"580 37 OFFCURVE",
"581 30 OFFCURVE",
"581 23 CURVE SMOOTH",
"581 18 OFFCURVE",
"580 12 OFFCURVE",
"578 6 CURVE",
"533 -7 OFFCURVE",
"488 -13 OFFCURVE",
"443 -13 CURVE SMOOTH",
"388 -13 OFFCURVE",
"383 -6 OFFCURVE",
"383 34 CURVE",
"310 -9 OFFCURVE",
"271 -13 OFFCURVE",
"226 -13 CURVE SMOOTH",
"189 -13 OFFCURVE",
"158 4 OFFCURVE",
"132 38 CURVE",
"127 38 LINE",
"130 2 OFFCURVE",
"138 -32 OFFCURVE",
"150 -65 CURVE SMOOTH",
"204 -210 LINE",
"204 -219 OFFCURVE",
"199 -226 OFFCURVE",
"188 -230 CURVE",
"164 -237 OFFCURVE",
"137 -241 OFFCURVE",
"107 -241 CURVE SMOOTH",
"96 -241 OFFCURVE",
"90 -235 OFFCURVE",
"90 -224 CURVE",
"79 -158 OFFCURVE",
"73 -68 OFFCURVE",
"73 46 CURVE SMOOTH",
"73 483 LINE SMOOTH",
"73 492 OFFCURVE",
"78 499 OFFCURVE",
"89 503 CURVE",
"113 510 OFFCURVE",
"140 514 OFFCURVE",
"170 514 CURVE SMOOTH",
"181 514 OFFCURVE",
"187 508 OFFCURVE",
"187 497 CURVE SMOOTH",
"187 79 LINE SMOOTH",
"187 54 OFFCURVE",
"206 42 OFFCURVE",
"243 42 CURVE SMOOTH",
"279 42 OFFCURVE",
"326 55 OFFCURVE",
"383 80 CURVE"
);
}
);
width = 607;
}
);
note = micro;
rightKerningGroup = quotesingle;
unicode = 00B5;
},
{
glyphname = minus;
layers = (
{
layerId = "818F4BA1-BEA0-4BCA-BD8D-F69F95152157";
paths = (
{
closed = 1;
nodes = (
"77 287 LINE",
"71 304 OFFCURVE",
"68 317 OFFCURVE",
"68 328 CURVE SMOOTH",
"68 338 OFFCURVE",
"70 351 OFFCURVE",
"75 366 CURVE",
"487 388 LINE",
"492 372 OFFCURVE",
"495 358 OFFCURVE",
"495 345 CURVE SMOOTH",
"495 333 OFFCURVE",
"493 321 OFFCURVE",
"489 309 CURVE"
);
}
);
width = 563;
}
);
note = minus;
unicode = 2212;
},
{
glyphname = multiply;
layers = (
{
layerId = "818F4BA1-BEA0-4BCA-BD8D-F69F95152157";
paths = (
{
closed = 1;
nodes = (
"246 281 LINE",
"127 151 LINE",
"102 166 OFFCURVE",
"82 185 OFFCURVE",
"73 202 CURVE",
"194 336 LINE",
"61 459 LINE",
"77 490 OFFCURVE",
"92 501 OFFCURVE",
"115 517 CURVE",
"245 392 LINE",
"368 527 LINE",
"389 516 OFFCURVE",
"413 492 OFFCURVE",
"421 476 CURVE",
"295 342 LINE",
"430 215 LINE",
"418 183 OFFCURVE",
"397 164 OFFCURVE",
"377 156 CURVE"
);
}
);
width = 496;
}
);
note = multiply;
rightKerningGroup = quotesingle;
unicode = 00D7;
},
{
glyphname = percent;
layers = (
{
layerId = "818F4BA1-BEA0-4BCA-BD8D-F69F95152157";
paths = (
{
closed = 1;
nodes = (
"318 388 LINE SMOOTH",
"318 357 OFFCURVE",
"303 335 OFFCURVE",
"274 323 CURVE SMOOTH",
"244 310 OFFCURVE",
"195 304 OFFCURVE",
"127 304 CURVE SMOOTH",
"59 304 OFFCURVE",
"37 322 OFFCURVE",
"37 386 CURVE SMOOTH",
"37 618 LINE SMOOTH",
"37 649 OFFCURVE",
"52 671 OFFCURVE",
"83 684 CURVE SMOOTH",
"113 696 OFFCURVE",
"162 702 OFFCURVE",
"230 702 CURVE SMOOTH",
"297 702 OFFCURVE",
"318 684 OFFCURVE",
"318 620 CURVE SMOOTH"
);
},
{
closed = 1;
nodes = (
"118 415 LINE SMOOTH",
"118 368 OFFCURVE",
"127 356 OFFCURVE",
"164 356 CURVE SMOOTH",
"225 356 OFFCURVE",
"237 371 OFFCURVE",
"237 411 CURVE SMOOTH",
"237 591 LINE SMOOTH",
"237 636 OFFCURVE",
"225 650 OFFCURVE",
"193 650 CURVE SMOOTH",
"130 650 OFFCURVE",
"118 635 OFFCURVE",
"118 595 CURVE SMOOTH"
);
},
{
closed = 1;
nodes = (
"806 93 LINE SMOOTH",
"806 62 OFFCURVE",
"791 40 OFFCURVE",
"762 28 CURVE SMOOTH",
"732 15 OFFCURVE",
"683 9 OFFCURVE",
"615 9 CURVE SMOOTH",
"547 9 OFFCURVE",
"525 27 OFFCURVE",
"525 91 CURVE SMOOTH",
"525 323 LINE SMOOTH",
"525 354 OFFCURVE",
"540 376 OFFCURVE",
"571 389 CURVE SMOOTH",
"601 401 OFFCURVE",
"650 407 OFFCURVE",
"718 407 CURVE SMOOTH",
"785 407 OFFCURVE",
"806 389 OFFCURVE",
"806 325 CURVE SMOOTH"
);
},
{
closed = 1;
nodes = (
"606 120 LINE SMOOTH",
"606 73 OFFCURVE",
"615 61 OFFCURVE",
"652 61 CURVE SMOOTH",
"713 61 OFFCURVE",
"725 76 OFFCURVE",
"725 116 CURVE SMOOTH",
"725 296 LINE SMOOTH",
"725 341 OFFCURVE",
"713 355 OFFCURVE",
"681 355 CURVE SMOOTH",
"618 355 OFFCURVE",
"606 340 OFFCURVE",
"606 300 CURVE SMOOTH"
);
},
{
closed = 1;
nodes = (
"275 -48 LINE",
"252 -46 OFFCURVE",
"234 -36 OFFCURVE",
"219 -19 CURVE",
"573 766 LINE",
"598 764 OFFCURVE",
"617 754 OFFCURVE",
"629 736 CURVE"
);
}
);
width = 843;
}
);
note = percent;
unicode = 0025;
},
{
glyphname = plus;
layers = (
{
layerId = "818F4BA1-BEA0-4BCA-BD8D-F69F95152157";
paths = (
{
closed = 1;
nodes = (
"208 298 LINE",
"191 297 OFFCURVE",
"163 296 OFFCURVE",
"126 294 CURVE SMOOTH",
"89 292 OFFCURVE",
"61 291 OFFCURVE",
"44 290 CURVE",
"40 304 OFFCURVE",
"38 317 OFFCURVE",
"38 328 CURVE SMOOTH",
"38 341 OFFCURVE",
"39 353 OFFCURVE",
"42 364 CURVE",
"207 372 LINE",
"203 554 LINE",
"220 559 OFFCURVE",
"235 561 OFFCURVE",
"249 561 CURVE SMOOTH",
"255 561 OFFCURVE",
"266 560 OFFCURVE",
"282 557 CURVE",
"286 377 LINE",
"303 378 OFFCURVE",
"331 379 OFFCURVE",
"368 381 CURVE SMOOTH",
"405 383 OFFCURVE",
"433 384 OFFCURVE",
"450 385 CURVE",
"454 372 OFFCURVE",
"456 359 OFFCURVE",
"456 345 CURVE SMOOTH",
"456 332 OFFCURVE",
"455 321 OFFCURVE",
"452 311 CURVE",
"287 303 LINE",
"291 121 LINE",
"275 114 OFFCURVE",
"261 110 OFFCURVE",
"248 110 CURVE SMOOTH",
"236 110 OFFCURVE",
"224 112 OFFCURVE",
"212 116 CURVE"
);
}
);
width = 494;
}
);
note = plus;
rightKerningGroup = quotesingle;
unicode = 002B;
},
{
glyphname = plusminus;
layers = (
{
layerId = "818F4BA1-BEA0-4BCA-BD8D-F69F95152157";
paths = (
{
closed = 1;
nodes = (
"225 380 LINE",
"207 379 OFFCURVE",
"180 378 OFFCURVE",
"143 376 CURVE SMOOTH",
"106 374 OFFCURVE",
"79 373 OFFCURVE",
"61 372 CURVE",
"57 386 OFFCURVE",
"55 399 OFFCURVE",
"55 410 CURVE SMOOTH",
"55 423 OFFCURVE",
"56 435 OFFCURVE",
"59 446 CURVE",
"224 454 LINE",
"220 606 LINE",
"236 611 OFFCURVE",
"251 613 OFFCURVE",
"266 613 CURVE SMOOTH",
"272 613 OFFCURVE",
"283 612 OFFCURVE",
"299 609 CURVE",
"303 459 LINE",
"321 460 OFFCURVE",
"348 461 OFFCURVE",
"385 463 CURVE SMOOTH",
"422 465 OFFCURVE",
"449 466 OFFCURVE",
"467 467 CURVE",
"471 454 OFFCURVE",
"473 441 OFFCURVE",
"473 427 CURVE SMOOTH",
"473 414 OFFCURVE",
"472 403 OFFCURVE",
"469 393 CURVE",
"304 385 LINE",
"308 243 LINE",
"292 236 OFFCURVE",
"278 232 OFFCURVE",
"265 232 CURVE SMOOTH",
"253 232 OFFCURVE",
"241 234 OFFCURVE",
"229 238 CURVE"
);
},
{
closed = 1;
nodes = (
"61 93 LINE",
"57 107 OFFCURVE",
"55 120 OFFCURVE",
"55 131 CURVE SMOOTH",
"55 144 OFFCURVE",
"56 156 OFFCURVE",
"59 167 CURVE",
"467 188 LINE",
"471 175 OFFCURVE",
"473 161 OFFCURVE",
"473 148 CURVE SMOOTH",
"473 135 OFFCURVE",
"472 124 OFFCURVE",
"469 114 CURVE"
);
}
);
width = 535;
}
);
note = plusminus;
rightKerningGroup = quotesingle;
unicode = 00B1;
},
{
glyphname = bar;
layers = (
{
layerId = "818F4BA1-BEA0-4BCA-BD8D-F69F95152157";
paths = (
{
closed = 1;
nodes = (
"74 764 LINE",
"89 769 OFFCURVE",
"101 772 OFFCURVE",
"112 772 CURVE SMOOTH",
"121 772 OFFCURVE",
"134 769 OFFCURVE",
"150 764 CURVE",
"150 -152 LINE",
"135 -156 OFFCURVE",
"123 -158 OFFCURVE",
"112 -158 CURVE SMOOTH",
"101 -158 OFFCURVE",
"88 -156 OFFCURVE",
"74 -152 CURVE"
);
}
);
width = 224;
}
);
note = bar;
rightKerningGroup = quotesingle;
unicode = 007C;
},
{
glyphname = brokenbar;
layers = (
{
layerId = "818F4BA1-BEA0-4BCA-BD8D-F69F95152157";
paths = (
{
closed = 1;
nodes = (
"76 764 LINE",
"92 768 OFFCURVE",
"102 771 OFFCURVE",
"113 771 CURVE SMOOTH",
"118 771 OFFCURVE",
"124 770 OFFCURVE",
"130 769 CURVE SMOOTH",
"135 768 OFFCURVE",
"142 766 OFFCURVE",
"151 764 CURVE",
"151 372 LINE",
"137 367 OFFCURVE",
"125 364 OFFCURVE",
"114 364 CURVE SMOOTH",
"103 364 OFFCURVE",
"90 367 OFFCURVE",
"76 372 CURVE"
);
},
{
closed = 1;
nodes = (
"76 240 LINE",
"92 244 OFFCURVE",
"102 247 OFFCURVE",
"113 247 CURVE SMOOTH",
"118 247 OFFCURVE",
"124 246 OFFCURVE",
"130 245 CURVE SMOOTH",
"135 244 OFFCURVE",
"142 242 OFFCURVE",
"151 240 CURVE",
"151 -152 LINE",
"137 -157 OFFCURVE",
"125 -160 OFFCURVE",
"114 -160 CURVE SMOOTH",
"103 -160 OFFCURVE",
"90 -157 OFFCURVE",
"76 -152 CURVE"
);
}
);
width = 227;
}
);
note = brokenbar;
rightKerningGroup = quotesingle;
unicode = 00A6;
},
{
glyphname = at;
layers = (
{
layerId = "818F4BA1-BEA0-4BCA-BD8D-F69F95152157";
paths = (
{
closed = 1;
nodes = (
"623 -17 OFFCURVE",
"625 -25 OFFCURVE",
"625 -36 CURVE SMOOTH",
"625 -45 OFFCURVE",
"624 -53 OFFCURVE",
"621 -60 CURVE",
"512 -91 OFFCURVE",
"385 -107 OFFCURVE",
"240 -107 CURVE SMOOTH",
"117 -107 OFFCURVE",
"76 -76 OFFCURVE",
"76 28 CURVE SMOOTH",
"76 526 LINE SMOOTH",
"76 577 OFFCURVE",
"113 613 OFFCURVE",
"187 634 CURVE SMOOTH",
"261 654 OFFCURVE",
"379 664 OFFCURVE",
"542 664 CURVE SMOOTH",
"665 664 OFFCURVE",
"706 633 OFFCURVE",
"706 529 CURVE SMOOTH",
"706 195 LINE SMOOTH",
"706 158 OFFCURVE",
"710 140 OFFCURVE",
"717 140 CURVE SMOOTH",
"786 142 LINE",
"789 137 OFFCURVE",
"790 130 OFFCURVE",
"790 123 CURVE SMOOTH",
"790 118 OFFCURVE",
"789 112 OFFCURVE",
"787 106 CURVE",
"742 93 OFFCURVE",
"697 87 OFFCURVE",
"652 87 CURVE SMOOTH",
"600 87 OFFCURVE",
"593 91 OFFCURVE",
"592 120 CURVE",
"515 98 OFFCURVE",
"449 87 OFFCURVE",
"394 87 CURVE SMOOTH",
"321 87 OFFCURVE",
"293 108 OFFCURVE",
"293 163 CURVE SMOOTH",
"293 303 LINE SMOOTH",
"293 360 OFFCURVE",
"321 389 OFFCURVE",
"381 402 CURVE",
"458 414 OFFCURVE",
"529 421 OFFCURVE",
"592 424 CURVE",
"592 515 LINE SMOOTH",
"592 588 OFFCURVE",
"566 611 OFFCURVE",
"490 611 CURVE SMOOTH",
"406 611 OFFCURVE",
"342 607 OFFCURVE",
"297 600 CURVE SMOOTH",
"208 585 OFFCURVE",
"190 564 OFFCURVE",
"190 521 CURVE SMOOTH",
"190 42 LINE SMOOTH",
"190 -31 OFFCURVE",
"216 -54 OFFCURVE",
"292 -54 CURVE SMOOTH",
"413 -54 OFFCURVE",
"568 -27 OFFCURVE",
"619 -10 CURVE"
);
},
{
closed = 1;
nodes = (
"592 379 LINE",
"549 377 OFFCURVE",
"510 372 OFFCURVE",
"474 365 CURVE SMOOTH",
"419 353 OFFCURVE",
"407 344 OFFCURVE",
"407 299 CURVE SMOOTH",
"407 188 LINE SMOOTH",
"407 158 OFFCURVE",
"428 143 OFFCURVE",
"470 143 CURVE SMOOTH",
"499 143 OFFCURVE",
"540 150 OFFCURVE",
"592 165 CURVE"
);
}
);
width = 820;
}
);
note = at;
rightKerningGroup = quotesingle;
unicode = 0040;
},
{
glyphname = ampersand;
layers = (
{
layerId = "818F4BA1-BEA0-4BCA-BD8D-F69F95152157";
paths = (
{
closed = 1;
nodes = (
"378 80 LINE",
"303 29 LINE SMOOTH",
"260 0 OFFCURVE",
"219 -15 OFFCURVE",
"181 -15 CURVE SMOOTH",
"134 -15 OFFCURVE",
"98 7 OFFCURVE",
"72 52 CURVE SMOOTH",
"23 137 LINE SMOOTH",
"10 159 OFFCURVE",
"4 179 OFFCURVE",
"4 197 CURVE SMOOTH",
"4 224 OFFCURVE",
"18 251 OFFCURVE",
"45 280 CURVE SMOOTH",
"72 308 OFFCURVE",
"116 343 OFFCURVE",
"179 386 CURVE",
"128 466 LINE",
"117 485 OFFCURVE",
"112 503 OFFCURVE",
"112 520 CURVE SMOOTH",
"112 573 OFFCURVE",
"160 621 OFFCURVE",
"257 678 CURVE SMOOTH",
"326 718 OFFCURVE",
"370 731 OFFCURVE",
"422 642 CURVE SMOOTH",
"443 607 OFFCURVE",
"453 579 OFFCURVE",
"453 556 CURVE SMOOTH",
"453 530 OFFCURVE",
"438 506 OFFCURVE",
"409 484 CURVE SMOOTH",
"294 397 LINE",
"432 184 LINE",
"595 295 LINE",
"614 289 OFFCURVE",
"625 277 OFFCURVE",
"626 259 CURVE",
"462 138 LINE",
"482 108 LINE SMOOTH",
"512 61 OFFCURVE",
"535 39 OFFCURVE",
"552 40 CURVE SMOOTH",
"621 42 LINE",
"627 31 OFFCURVE",
"627 19 OFFCURVE",
"622 6 CURVE",
"577 -7 OFFCURVE",
"533 -13 OFFCURVE",
"488 -13 CURVE SMOOTH",
"444 -13 OFFCURVE",
"434 -7 OFFCURVE",
"410 30 CURVE SMOOTH"
);
},
{
closed = 1;
nodes = (
"350 124 LINE",
"208 343 LINE",
"173 320 OFFCURVE",
"148 301 OFFCURVE",
"133 286 CURVE SMOOTH",
"118 270 OFFCURVE",
"111 254 OFFCURVE",
"111 239 CURVE SMOOTH",
"111 226 OFFCURVE",
"116 211 OFFCURVE",
"127 193 CURVE SMOOTH",
"166 126 LINE SMOOTH",
"188 89 OFFCURVE",
"212 70 OFFCURVE",
"239 70 CURVE SMOOTH",
"260 70 OFFCURVE",
"285 80 OFFCURVE",
"316 101 CURVE SMOOTH"
);
},
{
closed = 1;
nodes = (
"219 588 OFFCURVE",
"208 571 OFFCURVE",
"208 553 CURVE SMOOTH",
"208 542 OFFCURVE",
"212 529 OFFCURVE",
"220 515 CURVE",
"265 444 LINE",
"312 476 LINE SMOOTH",
"347 500 OFFCURVE",
"364 524 OFFCURVE",
"364 547 CURVE SMOOTH",
"364 571 OFFCURVE",
"342 606 OFFCURVE",
"327 620 CURVE SMOOTH",
"320 627 OFFCURVE",
"312 630 OFFCURVE",
"303 630 CURVE SMOOTH",
"289 630 OFFCURVE",
"269 621 OFFCURVE",
"242 603 CURVE SMOOTH"
);
}
);
width = 678;
}
);
leftKerningGroup = ampersand;
note = ampersand;
rightKerningGroup = ampersand;
unicode = 0026;
},
{
glyphname = paragraph;
layers = (
{
layerId = "818F4BA1-BEA0-4BCA-BD8D-F69F95152157";
paths = (
{
closed = 1;
nodes = (
"280 388 LINE",
"280 605 LINE SMOOTH",
"280 634 OFFCURVE",
"278 652 OFFCURVE",
"273 658 CURVE",
"180 650 OFFCURVE",
"155 624 OFFCURVE",
"156 571 CURVE SMOOTH",
"156 484 LINE SMOOTH",
"156 409 OFFCURVE",
"177 388 OFFCURVE",
"252 388 CURVE SMOOTH"
);
},
{
closed = 1;
nodes = (
"569 42 LINE",
"572 37 OFFCURVE",
"573 30 OFFCURVE",
"573 23 CURVE SMOOTH",
"573 18 OFFCURVE",
"572 12 OFFCURVE",
"570 6 CURVE",
"525 -7 OFFCURVE",
"478 -13 OFFCURVE",
"427 -13 CURVE SMOOTH",
"329 -13 OFFCURVE",
"280 1 OFFCURVE",
"280 30 CURVE SMOOTH",
"280 336 LINE",
"263 335 OFFCURVE",
"237 335 OFFCURVE",
"200 335 CURVE SMOOTH",
"77 335 OFFCURVE",
"36 366 OFFCURVE",
"36 470 CURVE SMOOTH",
"36 576 LINE SMOOTH",
"36 624 OFFCURVE",
"72 662 OFFCURVE",
"113 680 CURVE SMOOTH",
"153 698 OFFCURVE",
"215 708 OFFCURVE",
"248 711 CURVE SMOOTH",
"264 712 OFFCURVE",
"279 713 OFFCURVE",
"293 713 CURVE SMOOTH",
"354 713 OFFCURVE",
"361 709 OFFCURVE",
"360 670 CURVE SMOOTH",
"360 95 LINE SMOOTH",
"360 58 OFFCURVE",
"364 40 OFFCURVE",
"371 40 CURVE SMOOTH",
"420 40 LINE",
"420 713 LINE",
"484 713 OFFCURVE",
"496 707 OFFCURVE",
"495 670 CURVE SMOOTH",
"495 95 LINE SMOOTH",
"495 58 OFFCURVE",
"499 40 OFFCURVE",
"506 40 CURVE SMOOTH"
);
}
);
width = 593;
}
);
note = paragraph;
rightKerningGroup = quotesingle;
unicode = 00B6;
},
{
glyphname = copyright;
layers = (
{
layerId = "818F4BA1-BEA0-4BCA-BD8D-F69F95152157";
paths = (
{
closed = 1;
nodes = (
"70 576 LINE SMOOTH",
"70 627 OFFCURVE",
"110 663 OFFCURVE",
"189 684 CURVE SMOOTH",
"268 704 OFFCURVE",
"396 714 OFFCURVE",
"571 714 CURVE SMOOTH",
"682 714 OFFCURVE",
"720 683 OFFCURVE",
"720 579 CURVE SMOOTH",
"720 125 LINE SMOOTH",
"720 74 OFFCURVE",
"680 38 OFFCURVE",
"601 18 CURVE SMOOTH",
"522 -3 OFFCURVE",
"394 -13 OFFCURVE",
"219 -13 CURVE SMOOTH",
"108 -13 OFFCURVE",
"70 18 OFFCURVE",
"70 122 CURVE SMOOTH"
);
},
{
closed = 1;
nodes = (
"635 565 LINE SMOOTH",
"635 638 OFFCURVE",
"605 661 OFFCURVE",
"529 661 CURVE SMOOTH",
"430 661 OFFCURVE",
"353 658 OFFCURVE",
"298 651 CURVE SMOOTH",
"242 644 OFFCURVE",
"204 634 OFFCURVE",
"185 621 CURVE SMOOTH",
"165 608 OFFCURVE",
"155 592 OFFCURVE",
"155 571 CURVE SMOOTH",
"155 136 LINE SMOOTH",
"155 63 OFFCURVE",
"185 40 OFFCURVE",
"261 40 CURVE SMOOTH",
"360 40 OFFCURVE",
"437 44 OFFCURVE",
"493 51 CURVE SMOOTH",
"548 58 OFFCURVE",
"586 67 OFFCURVE",
"606 80 CURVE SMOOTH",
"625 93 OFFCURVE",
"635 109 OFFCURVE",
"635 130 CURVE SMOOTH"
);
},
{
closed = 1;
nodes = (
"509 538 OFFCURVE",
"405 540 OFFCURVE",
"365 524 CURVE SMOOTH",
"337 513 OFFCURVE",
"333 503 OFFCURVE",
"333 480 CURVE SMOOTH",
"333 228 LINE SMOOTH",
"333 183 OFFCURVE",
"346 170 OFFCURVE",
"393 170 CURVE SMOOTH",
"443 171 OFFCURVE",
"491 177 OFFCURVE",
"537 189 CURVE",
"539 183 OFFCURVE",
"540 178 OFFCURVE",
"540 173 CURVE SMOOTH",
"540 168 OFFCURVE",
"540 166 OFFCURVE",
"540 165 CURVE",
"539 158 OFFCURVE",
"538 152 OFFCURVE",
"537 148 CURVE",
"486 133 OFFCURVE",
"421 125 OFFCURVE",
"341 125 CURVE SMOOTH",
"264 125 OFFCURVE",
"238 144 OFFCURVE",
"238 209 CURVE SMOOTH",
"238 493 LINE SMOOTH",
"238 568 OFFCURVE",
"346 579 OFFCURVE",
"458 579 CURVE SMOOTH",
"477 579 OFFCURVE",
"501 578 OFFCURVE",
"532 575 CURVE",
"534 570 OFFCURVE",
"535 563 OFFCURVE",
"535 553 CURVE SMOOTH",
"535 544 OFFCURVE",
"534 537 OFFCURVE",
"533 533 CURVE"
);
}
);
width = 790;
}
);
note = copyright;
rightKerningGroup = quotesingle;
unicode = 00A9;
},
{
glyphname = registered;
layers = (
{
layerId = "818F4BA1-BEA0-4BCA-BD8D-F69F95152157";
paths = (
{
closed = 1;
nodes = (
"198 512 OFFCURVE",
"197 519 OFFCURVE",
"197 530 CURVE SMOOTH",
"197 540 OFFCURVE",
"198 547 OFFCURVE",
"199 550 CURVE",
"268 570 OFFCURVE",
"351 580 OFFCURVE",
"448 580 CURVE SMOOTH",
"525 580 OFFCURVE",
"551 560 OFFCURVE",
"551 495 CURVE SMOOTH",
"551 418 LINE SMOOTH",
"551 384 OFFCURVE",
"527 362 OFFCURVE",
"478 352 CURVE SMOOTH",
"473 351 OFFCURVE",
"468 350 OFFCURVE",
"461 349 CURVE",
"536 192 LINE SMOOTH",
"547 169 OFFCURVE",
"556 157 OFFCURVE",
"565 157 CURVE SMOOTH",
"595 158 LINE",
"598 153 OFFCURVE",
"599 144 OFFCURVE",
"596 136 CURVE",
"567 128 OFFCURVE",
"538 124 OFFCURVE",
"507 124 CURVE SMOOTH",
"483 124 OFFCURVE",
"473 128 OFFCURVE",
"462 151 CURVE SMOOTH",
"380 337 LINE",
"319 337 LINE",
"319 192 LINE SMOOTH",
"319 169 OFFCURVE",
"321 157 OFFCURVE",
"326 157 CURVE SMOOTH",
"361 158 LINE",
"364 151 OFFCURVE",
"364 143 OFFCURVE",
"361 136 CURVE",
"330 128 OFFCURVE",
"302 124 OFFCURVE",
"276 124 CURVE SMOOTH",
"237 124 OFFCURVE",
"233 127 OFFCURVE",
"234 151 CURVE",
"234 475 LINE SMOOTH",
"234 481 OFFCURVE",
"237 485 OFFCURVE",
"244 488 CURVE",
"263 493 OFFCURVE",
"285 496 OFFCURVE",
"308 496 CURVE SMOOTH",
"315 496 OFFCURVE",
"319 492 OFFCURVE",
"319 484 CURVE SMOOTH",
"319 376 LINE",
"366 379 OFFCURVE",
"400 383 OFFCURVE",
"421 388 CURVE SMOOTH",
"457 396 OFFCURVE",
"466 402 OFFCURVE",
"466 431 CURVE SMOOTH",
"466 486 LINE SMOOTH",
"466 523 OFFCURVE",
"451 537 OFFCURVE",
"406 537 CURVE SMOOTH",
"330 537 OFFCURVE",
"236 520 OFFCURVE",
"200 509 CURVE"
);
},
{
closed = 1;
nodes = (
"70 576 LINE SMOOTH",
"70 627 OFFCURVE",
"110 663 OFFCURVE",
"189 684 CURVE SMOOTH",
"268 704 OFFCURVE",
"396 714 OFFCURVE",
"571 714 CURVE SMOOTH",
"682 714 OFFCURVE",
"720 683 OFFCURVE",
"720 579 CURVE SMOOTH",
"720 125 LINE SMOOTH",
"720 74 OFFCURVE",
"680 38 OFFCURVE",
"601 18 CURVE SMOOTH",
"522 -3 OFFCURVE",
"394 -13 OFFCURVE",
"219 -13 CURVE SMOOTH",
"108 -13 OFFCURVE",
"70 18 OFFCURVE",
"70 122 CURVE SMOOTH"
);
},
{
closed = 1;
nodes = (
"635 565 LINE SMOOTH",
"635 638 OFFCURVE",
"605 661 OFFCURVE",
"529 661 CURVE SMOOTH",
"430 661 OFFCURVE",
"353 658 OFFCURVE",
"298 651 CURVE SMOOTH",
"242 644 OFFCURVE",
"204 634 OFFCURVE",
"185 621 CURVE SMOOTH",
"165 608 OFFCURVE",
"155 592 OFFCURVE",
"155 571 CURVE SMOOTH",
"155 136 LINE SMOOTH",
"155 63 OFFCURVE",
"185 40 OFFCURVE",
"261 40 CURVE SMOOTH",
"360 40 OFFCURVE",
"437 44 OFFCURVE",
"493 51 CURVE SMOOTH",
"548 58 OFFCURVE",
"586 67 OFFCURVE",
"606 80 CURVE SMOOTH",
"625 93 OFFCURVE",
"635 109 OFFCURVE",
"635 130 CURVE SMOOTH"
);
}
);
width = 790;
}
);
note = registered;
rightKerningGroup = quotesingle;
unicode = 00AE;
},
{
glyphname = section;
layers = (
{
layerId = "818F4BA1-BEA0-4BCA-BD8D-F69F95152157";
paths = (
{
closed = 1;
nodes = (
"131 245 OFFCURVE",
"112 261 OFFCURVE",
"104 270 CURVE",
"87 286 OFFCURVE",
"66 312 OFFCURVE",
"58 333 CURVE SMOOTH",
"54 343 OFFCURVE",
"52 353 OFFCURVE",
"52 363 CURVE SMOOTH",
"52 418 OFFCURVE",
"99 467 OFFCURVE",
"176 491 CURVE",
"119 531 OFFCURVE",
"91 572 OFFCURVE",
"91 614 CURVE SMOOTH",
"91 681 OFFCURVE",
"161 714 OFFCURVE",
"300 714 CURVE SMOOTH",
"329 714 OFFCURVE",
"370 711 OFFCURVE",
"424 705 CURVE",
"427 698 OFFCURVE",
"428 692 OFFCURVE",
"429 687 CURVE",
"429 682 OFFCURVE",
"429 679 OFFCURVE",
"429 678 CURVE SMOOTH",
"429 663 OFFCURVE",
"432 656 OFFCURVE",
"402 661 CURVE SMOOTH",
"372 666 OFFCURVE",
"338 671 OFFCURVE",
"306 671 CURVE SMOOTH",
"267 671 OFFCURVE",
"240 667 OFFCURVE",
"225 659 CURVE",
"210 650 OFFCURVE",
"202 637 OFFCURVE",
"203 620 CURVE",
"203 607 OFFCURVE",
"210 592 OFFCURVE",
"215 584 CURVE SMOOTH",
"220 576 OFFCURVE",
"240 560 OFFCURVE",
"245 556 CURVE",
"248 554 OFFCURVE",
"269 540 OFFCURVE",
"310 514 CURVE SMOOTH",
"390 461 OFFCURVE",
"412 447 OFFCURVE",
"444 411 CURVE",
"459 392 OFFCURVE",
"467 374 OFFCURVE",
"467 356 CURVE SMOOTH",
"467 301 OFFCURVE",
"413 249 OFFCURVE",
"330 218 CURVE",
"393 177 OFFCURVE",
"425 133 OFFCURVE",
"425 88 CURVE SMOOTH",
"425 19 OFFCURVE",
"353 -16 OFFCURVE",
"208 -15 CURVE SMOOTH",
"182 -15 OFFCURVE",
"138 -11 OFFCURVE",
"77 -4 CURVE",
"73 6 OFFCURVE",
"71 15 OFFCURVE",
"71 24 CURVE SMOOTH",
"71 37 OFFCURVE",
"69 48 OFFCURVE",
"101 42 CURVE SMOOTH",
"132 36 OFFCURVE",
"170 30 OFFCURVE",
"202 30 CURVE SMOOTH",
"244 29 OFFCURVE",
"272 33 OFFCURVE",
"287 42 CURVE SMOOTH",
"302 51 OFFCURVE",
"309 64 OFFCURVE",
"309 82 CURVE SMOOTH",
"309 95 OFFCURVE",
"303 110 OFFCURVE",
"297 119 CURVE SMOOTH",
"291 128 OFFCURVE",
"272 143 OFFCURVE",
"265 148 CURVE",
"262 151 OFFCURVE",
"227 175 OFFCURVE",
"160 222 CURVE"
);
},
{
closed = 1;
nodes = (
"361 361 OFFCURVE",
"311 410 OFFCURVE",
"211 469 CURVE",
"170 448 OFFCURVE",
"149 417 OFFCURVE",
"149 378 CURVE SMOOTH",
"149 361 OFFCURVE",
"159 343 OFFCURVE",
"179 324 CURVE SMOOTH",
"199 305 OFFCURVE",
"234 279 OFFCURVE",
"285 247 CURVE",
"342 268 OFFCURVE",
"361 292 OFFCURVE",
"361 324 CURVE SMOOTH"
);
}
);
width = 502;
}
);
note = section;
rightKerningGroup = quotesingle;
unicode = 00A7;
},
{
glyphname = degree;
layers = (
{
layerId = "818F4BA1-BEA0-4BCA-BD8D-F69F95152157";
paths = (
{
closed = 1;
nodes = (
"34 605 OFFCURVE",
"52 642 OFFCURVE",
"80 670 CURVE SMOOTH",
"107 697 OFFCURVE",
"145 714 OFFCURVE",
"185 714 CURVE SMOOTH",
"226 714 OFFCURVE",
"264 697 OFFCURVE",
"292 669 CURVE SMOOTH",
"320 641 OFFCURVE",
"337 603 OFFCURVE",
"337 562 CURVE SMOOTH",
"337 522 OFFCURVE",
"320 484 OFFCURVE",
"293 457 CURVE SMOOTH",
"265 429 OFFCURVE",
"228 411 OFFCURVE",
"185 411 CURVE SMOOTH",
"144 411 OFFCURVE",
"106 428 OFFCURVE",
"79 456 CURVE",
"51 483 OFFCURVE",
"34 521 OFFCURVE",
"34 562 CURVE SMOOTH"
);
},
{
closed = 1;
nodes = (
"99 511 OFFCURVE",
"134 470 OFFCURVE",
"185 470 CURVE SMOOTH",
"236 470 OFFCURVE",
"272 511 OFFCURVE",
"272 562 CURVE SMOOTH",
"272 614 OFFCURVE",
"236 655 OFFCURVE",
"185 655 CURVE SMOOTH",
"134 655 OFFCURVE",
"99 614 OFFCURVE",
"99 562 CURVE SMOOTH"
);
}
);
width = 371;
}
);
note = degree;
rightKerningGroup = quotesingle;
unicode = 00B0;
},
{
glyphname = asciicircum;
layers = (
{
layerId = "818F4BA1-BEA0-4BCA-BD8D-F69F95152157";
paths = (
{
closed = 1;
nodes = (
"195 575 OFFCURVE",
"158 544 OFFCURVE",
"135 524 CURVE SMOOTH",
"112 503 OFFCURVE",
"98 493 OFFCURVE",
"94 493 CURVE SMOOTH",
"86 493 OFFCURVE",
"64 504 OFFCURVE",
"59 511 CURVE",
"55 515 OFFCURVE",
"51 521 OFFCURVE",
"55 525 CURVE SMOOTH",
"212 692 LINE SMOOTH",
"219 699 OFFCURVE",
"239 700 OFFCURVE",
"246 700 CURVE SMOOTH",
"253 700 OFFCURVE",
"273 699 OFFCURVE",
"280 692 CURVE SMOOTH",
"437 525 LINE SMOOTH",
"441 521 OFFCURVE",
"438 516 OFFCURVE",
"433 511 CURVE",
"422 499 OFFCURVE",
"406 493 OFFCURVE",
"398 493 CURVE SMOOTH",
"394 493 OFFCURVE",
"381 503 OFFCURVE",
"358 524 CURVE SMOOTH",
"335 544 OFFCURVE",
"297 575 OFFCURVE",
"246 618 CURVE"
);
}
);
width = 493;
}
);
note = asciicircum;
rightKerningGroup = quotesingle;
unicode = 005E;
},
{
glyphname = acute;
layers = (
{
layerId = "818F4BA1-BEA0-4BCA-BD8D-F69F95152157";
paths = (
{
closed = 1;
nodes = (
"155 733 OFFCURVE",
"161 736 OFFCURVE",
"166 736 CURVE SMOOTH",
"175 736 OFFCURVE",
"189 724 OFFCURVE",
"201 709 CURVE SMOOTH",
"213 694 OFFCURVE",
"222 677 OFFCURVE",
"222 666 CURVE SMOOTH",
"222 660 OFFCURVE",
"215 652 OFFCURVE",
"200 642 CURVE",
"171 621 OFFCURVE",
"132 598 OFFCURVE",
"90 577 CURVE SMOOTH",
"69 566 OFFCURVE",
"55 561 OFFCURVE",
"49 562 CURVE",
"37 562 OFFCURVE",
"22 585 OFFCURVE",
"22 593 CURVE SMOOTH",
"22 596 OFFCURVE",
"23 599 OFFCURVE",
"26 601 CURVE",
"76 648 OFFCURVE",
"117 690 OFFCURVE",
"150 728 CURVE"
);
}
);
width = 278;
}
);
note = acute;
rightKerningGroup = quotesingle;
unicode = 00B4;
},
{
glyphname = caron;
layers = (
{
layerId = "818F4BA1-BEA0-4BCA-BD8D-F69F95152157";
paths = (
{
closed = 1;
nodes = (
"168 565 OFFCURVE",
"156 568 OFFCURVE",
"151 573 CURVE SMOOTH",
"111 613 OFFCURVE",
"71 655 OFFCURVE",
"30 702 CURVE",
"28 705 OFFCURVE",
"27 707 OFFCURVE",
"27 709 CURVE SMOOTH",
"27 721 OFFCURVE",
"62 735 OFFCURVE",
"70 734 CURVE",
"73 734 OFFCURVE",
"80 730 OFFCURVE",
"91 722 CURVE SMOOTH",
"187 647 LINE",
"281 725 LINE SMOOTH",
"300 740 OFFCURVE",
"309 737 OFFCURVE",
"328 725 CURVE",
"337 718 OFFCURVE",
"342 713 OFFCURVE",
"342 708 CURVE SMOOTH",
"342 707 OFFCURVE",
"341 705 OFFCURVE",
"340 704 CURVE",
"219 573 LINE",
"210 568 OFFCURVE",
"199 565 OFFCURVE",
"185 565 CURVE SMOOTH"
);
}
);
width = 348;
}
);
note = caron;
rightKerningGroup = quotesingle;
unicode = 02C7;
},
